<?xml version="1.0" encoding="utf-8"?>
<!-- Generator: Adobe Illustrator 24.0.3, SVG Export Plug-In . SVG Version: 6.00 Build 0)  -->
<svg version="1.1" id="Layer_1" xmlns="http://www.w3.org/2000/svg" xmlns:xlink="http://www.w3.org/1999/xlink" x="0px" y="0px"
	 viewBox="0 0 500 216" style="enable-background:new 0 0 500 216;" xml:space="preserve">
<style type="text/css">
	.st0{fill-rule:evenodd;clip-rule:evenodd;fill:#FFFFFF;}
</style>
<g>
	<g>
		<rect x="296.99" y="9.77" class="st0" width="199.01" height="198.78"/>
	</g>
	<g>
		<path d="M395.57,73.08c0-5.1-0.69-7.53-1.04-8.34c-0.12-0.12-0.35-0.23-0.46-0.46c-0.35-0.23-0.81-0.35-1.85-0.58
			c-4.75-0.93-4.17-7.76,0.69-8.11c2.08-0.23,3.59-0.23,4.4-0.23c6.48,0,11.7,2.55,11.7,8.57c0,0.7-0.12,2.66-0.46,5.44
			c-0.35,2.2-0.58,4.52-0.81,7.41v0.23c11.93-1.27,21.19-1.97,28.02-1.97c3.13,0,6.25,1.16,8.68,2.89c2.78,1.97,3.94,3.94,3.94,5.33
			c0,3.36-3.01,5.09-6.14,5.09c-0.81,0-2.43-0.12-4.4-0.46c-5.67-1.04-12.27-1.51-20.15-1.51c-3.82,0-7.3,0.12-10.42,0.23v0.23
			c-0.12,4.63-0.23,7.87-0.23,9.5c0,1.97,0,3.59,0.12,4.86c0,0.12,0,0.23,0.12,0.35c4.05,5.09,5.44,11.58,5.44,19.34
			c0,16.21-7.18,30.11-22.12,41.34c-4.63,3.24-9.5-2.55-5.91-5.79c7.18-7.06,11.81-14.94,14.13-24.09c-2.2,1.39-5.1,2.08-8.11,2.08
			c-8.11,0-14.13-3.94-16.79-10.89c-2.89-7.64-1.85-16.56,4.05-22.81c5.44-5.67,12.51-6.6,17.6-6.02v-7.06
			c-13.32,1.62-25.01,3.47-34.86,6.02c-1.97,0.46-3.71,0.58-4.86,0.58c-6.14,0-9.5-5.1-11.12-11.7c-1.04-4.17,5.44-7.53,7.99-3.71
			c1.27,1.85,3.13,2.78,6.25,2.78c1.27,0,5.33-0.46,12.62-1.27c6.6-0.69,14.59-1.39,23.97-2.2V73.08z M399.04,111.29
			c-0.81-6.02-2.66-7.88-6.02-7.88c-1.97,0-3.47,0.7-5.33,2.66c-5.33,5.67-4.86,18.53,3.47,18.53c2.08,0,3.82-0.81,5.44-3.24
			c1.39-2.2,2.2-5.21,2.43-9.38V111.29z"/>
	</g>
	<g>
		<rect x="4" y="9.77" class="st0" width="279.51" height="198.7"/>
	</g>
	<path d="M98.96,92.48c-1.97-2.45-4.57-3.67-7.79-3.67c-1.14,0-2.24,0.27-3.31,0.81c-1.08,0.54-1.61,1.46-1.61,2.78
		c0,1.08,0.55,1.87,1.66,2.37c1.1,0.51,2.51,0.96,4.21,1.34c1.7,0.39,3.52,0.81,5.46,1.26c1.94,0.45,3.76,1.15,5.46,2.1
		c1.7,0.96,3.1,2.26,4.21,3.9c1.11,1.64,1.66,3.84,1.66,6.58c0,2.81-0.61,5.12-1.84,6.94c-1.22,1.82-2.79,3.29-4.7,4.39
		c-1.91,1.11-4.06,1.88-6.45,2.33c-2.39,0.45-4.75,0.67-7.08,0.67c-3.05,0-6.12-0.43-9.23-1.3c-3.11-0.87-5.73-2.4-7.88-4.61
		l8.15-9.05c1.26,1.55,2.64,2.73,4.17,3.54c1.52,0.81,3.3,1.21,5.33,1.21c1.55,0,2.96-0.23,4.21-0.67c1.25-0.45,1.88-1.27,1.88-2.46
		c0-1.13-0.55-1.99-1.66-2.55c-1.11-0.57-2.51-1.05-4.21-1.43c-1.7-0.39-3.52-0.81-5.46-1.25s-3.76-1.12-5.46-2.02
		c-1.7-0.89-3.1-2.16-4.21-3.81c-1.1-1.64-1.66-3.84-1.66-6.59c0-2.57,0.52-4.78,1.57-6.63c1.04-1.85,2.42-3.37,4.12-4.57
		c1.7-1.19,3.66-2.07,5.87-2.64c2.21-0.57,4.45-0.85,6.72-0.85c2.87,0,5.76,0.42,8.69,1.25c2.92,0.84,5.4,2.33,7.43,4.48
		L98.96,92.48z"/>
	<path d="M157.73,123.21h-12.9v-5.91h-0.18c-0.48,0.84-1.09,1.67-1.84,2.51c-0.75,0.84-1.66,1.58-2.73,2.24
		c-1.08,0.66-2.3,1.19-3.67,1.61c-1.37,0.42-2.87,0.63-4.48,0.63c-3.4,0-6.17-0.52-8.29-1.57c-2.12-1.04-3.76-2.49-4.93-4.34
		s-1.94-4.03-2.33-6.54c-0.39-2.51-0.58-5.23-0.58-8.15V79.67h13.44v21.32c0,1.25,0.04,2.55,0.13,3.9c0.09,1.35,0.36,2.59,0.81,3.72
		c0.45,1.14,1.13,2.06,2.06,2.78c0.93,0.72,2.26,1.08,3.99,1.08c1.73,0,3.14-0.31,4.21-0.94c1.08-0.63,1.9-1.46,2.46-2.51
		c0.57-1.04,0.94-2.22,1.12-3.54s0.27-2.69,0.27-4.12V79.67h13.44V123.21z"/>
	<path d="M168.48,55.48h13.44v28.85h0.18c1.55-2.09,3.54-3.57,5.96-4.43c2.42-0.87,5.03-1.3,7.84-1.3c3.1,0,5.88,0.64,8.33,1.93
		c2.45,1.28,4.52,3,6.23,5.15c1.7,2.15,3.02,4.61,3.94,7.39c0.92,2.78,1.39,5.69,1.39,8.73c0,3.29-0.51,6.3-1.52,9.05
		c-1.01,2.75-2.46,5.12-4.35,7.12c-1.88,2-4.14,3.55-6.76,4.66c-2.63,1.1-5.55,1.66-8.78,1.66c-1.55,0-3.02-0.21-4.39-0.63
		c-1.37-0.42-2.64-0.95-3.81-1.61c-1.16-0.66-2.18-1.39-3.05-2.19c-0.87-0.81-1.57-1.6-2.11-2.37h-0.18v5.73h-12.36V55.48z
		 M180.84,101.44c0,3.29,0.94,5.94,2.82,7.97c1.88,2.03,4.53,3.04,7.93,3.04c3.4,0,6.05-1.01,7.93-3.04
		c1.88-2.03,2.82-4.69,2.82-7.97c0-3.28-0.94-5.94-2.82-7.97c-1.88-2.03-4.52-3.05-7.93-3.05c-3.4,0-6.05,1.02-7.93,3.05
		C181.78,95.5,180.84,98.15,180.84,101.44z"/>
	<g>
		<path d="M71.73,128.97h6.71v20.66l7.42-8.59h8.23l-8.63,9.79l8.86,11.94h-8.45l-7.33-11h-0.09v11h-6.71V128.97z"/>
		<path d="M117.52,162.78h-6.44v-2.95H111c-0.24,0.42-0.54,0.83-0.92,1.25c-0.37,0.42-0.83,0.79-1.36,1.12
			c-0.54,0.33-1.15,0.6-1.83,0.8c-0.69,0.21-1.43,0.31-2.24,0.31c-1.7,0-3.08-0.26-4.14-0.78c-1.06-0.52-1.88-1.25-2.46-2.17
			s-0.97-2.01-1.16-3.26c-0.19-1.25-0.29-2.61-0.29-4.07v-11.99h6.71v10.64c0,0.63,0.02,1.27,0.07,1.95
			c0.04,0.67,0.18,1.29,0.4,1.86c0.22,0.57,0.57,1.03,1.03,1.39c0.46,0.36,1.13,0.54,1.99,0.54s1.57-0.16,2.1-0.47
			c0.54-0.31,0.95-0.73,1.23-1.25c0.28-0.52,0.47-1.11,0.56-1.77c0.09-0.66,0.13-1.34,0.13-2.06v-10.82h6.71V162.78z"/>
		<path d="M122.35,128.97h6.71v33.81h-6.71V128.97z"/>
		<path d="M148.7,146.41h-5.9v7.25c0,0.6,0.03,1.14,0.09,1.63c0.06,0.49,0.19,0.92,0.4,1.28c0.21,0.36,0.53,0.63,0.96,0.83
			c0.43,0.19,1.01,0.29,1.72,0.29c0.36,0,0.83-0.04,1.41-0.11c0.58-0.07,1.02-0.25,1.32-0.51v5.59c-0.75,0.27-1.52,0.45-2.33,0.54
			c-0.8,0.09-1.6,0.13-2.37,0.13c-1.13,0-2.18-0.12-3.13-0.36c-0.95-0.24-1.79-0.62-2.5-1.14c-0.72-0.52-1.28-1.2-1.68-2.03
			c-0.4-0.83-0.6-1.85-0.6-3.04v-10.33h-4.29v-5.37h4.29v-6.44h6.71v6.44h5.9V146.41z"/>
		<path d="M173.03,162.78h-6.44v-2.95h-0.09c-0.24,0.42-0.54,0.83-0.92,1.25c-0.37,0.42-0.83,0.79-1.36,1.12s-1.15,0.6-1.83,0.8
			s-1.43,0.31-2.24,0.31c-1.7,0-3.08-0.26-4.14-0.78c-1.06-0.52-1.88-1.25-2.46-2.17c-0.58-0.92-0.97-2.01-1.16-3.26
			c-0.19-1.25-0.29-2.61-0.29-4.07v-11.99h6.71v10.64c0,0.63,0.02,1.27,0.07,1.95c0.04,0.67,0.18,1.29,0.4,1.86
			c0.22,0.57,0.57,1.03,1.03,1.39c0.46,0.36,1.13,0.54,1.99,0.54c0.86,0,1.57-0.16,2.1-0.47c0.54-0.31,0.95-0.73,1.23-1.25
			c0.28-0.52,0.47-1.11,0.56-1.77c0.09-0.66,0.13-1.34,0.13-2.06v-10.82h6.71V162.78z"/>
		<path d="M177.77,141.05h6.71v3.49h0.09c0.72-1.34,1.57-2.35,2.55-3.02c0.98-0.67,2.22-1.01,3.71-1.01c0.39,0,0.78,0.02,1.16,0.04
			c0.39,0.03,0.75,0.09,1.07,0.18v6.13c-0.48-0.15-0.95-0.26-1.41-0.34c-0.46-0.07-0.95-0.11-1.45-0.11c-1.28,0-2.3,0.18-3.04,0.54
			c-0.75,0.36-1.32,0.86-1.72,1.5c-0.4,0.64-0.66,1.41-0.78,2.3c-0.12,0.89-0.18,1.88-0.18,2.95v9.08h-6.71V141.05z"/>
		<path d="M209.61,160.05h-0.09c-0.75,1.16-1.74,2-2.97,2.5c-1.24,0.51-2.54,0.76-3.91,0.76c-1.01,0-1.99-0.14-2.93-0.43
			c-0.94-0.28-1.77-0.71-2.48-1.27c-0.72-0.57-1.28-1.27-1.7-2.1c-0.42-0.83-0.63-1.8-0.63-2.91c0-1.25,0.23-2.31,0.69-3.18
			c0.46-0.86,1.09-1.58,1.88-2.15c0.79-0.57,1.69-1.01,2.71-1.32c1.01-0.31,2.06-0.54,3.15-0.69c1.09-0.15,2.18-0.24,3.26-0.27
			c1.09-0.03,2.09-0.04,3.02-0.04c0-1.19-0.42-2.14-1.27-2.84c-0.85-0.7-1.86-1.05-3.02-1.05c-1.1,0-2.11,0.23-3.02,0.69
			c-0.91,0.46-1.72,1.1-2.44,1.9l-3.58-3.67c1.25-1.16,2.71-2.04,4.38-2.62c1.67-0.58,3.4-0.87,5.19-0.87
			c1.97,0,3.59,0.25,4.85,0.74c1.27,0.49,2.28,1.22,3.04,2.17c0.76,0.95,1.29,2.12,1.59,3.51c0.3,1.39,0.45,2.99,0.45,4.81v11.05
			h-6.17V160.05z M207.96,153.26c-0.51,0-1.14,0.02-1.9,0.07c-0.76,0.04-1.49,0.17-2.19,0.38c-0.7,0.21-1.3,0.52-1.79,0.94
			c-0.49,0.42-0.74,1-0.74,1.74c0,0.81,0.34,1.4,1.03,1.79c0.69,0.39,1.4,0.58,2.15,0.58c0.66,0,1.29-0.09,1.9-0.27
			c0.61-0.18,1.16-0.43,1.63-0.76c0.48-0.33,0.86-0.75,1.14-1.25c0.28-0.51,0.42-1.1,0.42-1.79v-1.43H207.96z"/>
	</g>
</g>
</svg>
