<?xml version="1.0" encoding="utf-8"?>
<!-- Generator: Adobe Illustrator 24.0.3, SVG Export Plug-In . SVG Version: 6.00 Build 0)  -->
<svg version="1.1" id="Layer_1" xmlns="http://www.w3.org/2000/svg" xmlns:xlink="http://www.w3.org/1999/xlink" x="0px" y="0px"
	 viewBox="0 0 500 216" style="enable-background:new 0 0 500 216;" xml:space="preserve">
<style type="text/css">
	.st0{fill-rule:evenodd;clip-rule:evenodd;fill:#EC1C24;}
	.st1{fill:#FFFFFF;}
</style>
<g>
	<g>
		<rect x="296.01" y="8.52" class="st0" width="196.99" height="196.76"/>
	</g>
	<g>
		<path class="st1" d="M393.59,71.18c0-5.04-0.69-7.45-1.03-8.25c-0.11-0.11-0.34-0.23-0.46-0.46c-0.34-0.23-0.8-0.34-1.83-0.57
			c-4.7-0.92-4.13-7.68,0.69-8.02c2.06-0.23,3.55-0.23,4.36-0.23c6.42,0,11.58,2.52,11.58,8.48c0,0.69-0.11,2.64-0.46,5.39
			c-0.34,2.18-0.57,4.47-0.8,7.34v0.23c11.81-1.26,20.98-1.95,27.74-1.95c3.1,0,6.19,1.15,8.6,2.87c2.75,1.95,3.9,3.9,3.9,5.27
			c0,3.32-2.98,5.04-6.08,5.04c-0.8,0-2.41-0.11-4.36-0.46c-5.62-1.03-12.15-1.49-19.94-1.49c-3.78,0-7.22,0.11-10.32,0.23v0.23
			c-0.11,4.58-0.23,7.79-0.23,9.4c0,1.95,0,3.55,0.11,4.81c0,0.11,0,0.23,0.11,0.34c4.01,5.04,5.39,11.46,5.39,19.14
			c0,16.05-7.11,29.8-21.89,40.92c-4.58,3.21-9.4-2.52-5.85-5.73c7.11-6.99,11.69-14.79,13.98-23.84c-2.18,1.38-5.04,2.06-8.02,2.06
			c-8.02,0-13.98-3.9-16.62-10.77c-2.87-7.57-1.83-16.39,4.01-22.58c5.39-5.62,12.38-6.53,17.42-5.96v-6.99
			c-13.18,1.6-24.76,3.44-34.5,5.96c-1.95,0.46-3.67,0.57-4.81,0.57c-6.08,0-9.4-5.04-11-11.58c-1.03-4.13,5.39-7.45,7.91-3.67
			c1.26,1.83,3.09,2.75,6.19,2.75c1.26,0,5.27-0.46,12.49-1.26c6.53-0.69,14.44-1.38,23.73-2.18V71.18z M397.03,109.01
			c-0.8-5.96-2.64-7.8-5.96-7.8c-1.95,0-3.44,0.69-5.27,2.64c-5.27,5.62-4.81,18.34,3.44,18.34c2.06,0,3.78-0.8,5.39-3.21
			c1.38-2.18,2.18-5.16,2.41-9.28V109.01z"/>
	</g>
</g>
<g>
	<g>
		<rect x="6" y="8.52" class="st0" width="276.67" height="196.68"/>
	</g>
	<path class="st1" d="M100,90.38c-1.95-2.42-4.52-3.64-7.71-3.64c-1.12,0-2.22,0.27-3.28,0.8c-1.06,0.53-1.6,1.45-1.6,2.75
		c0,1.06,0.55,1.85,1.64,2.35c1.09,0.5,2.48,0.95,4.17,1.33c1.68,0.38,3.49,0.8,5.41,1.24c1.92,0.44,3.72,1.14,5.41,2.08
		c1.68,0.95,3.07,2.23,4.17,3.86c1.09,1.63,1.64,3.8,1.64,6.52c0,2.78-0.61,5.07-1.82,6.87c-1.21,1.8-2.76,3.25-4.66,4.35
		c-1.89,1.09-4.02,1.86-6.38,2.31c-2.36,0.44-4.7,0.66-7,0.66c-3.02,0-6.06-0.43-9.13-1.29c-3.07-0.86-5.68-2.38-7.8-4.57l8.07-8.96
		c1.24,1.54,2.62,2.7,4.12,3.5c1.51,0.8,3.27,1.2,5.28,1.2c1.54,0,2.93-0.22,4.17-0.67c1.24-0.44,1.86-1.26,1.86-2.44
		c0-1.12-0.55-1.96-1.64-2.53c-1.09-0.56-2.48-1.04-4.17-1.42c-1.68-0.38-3.49-0.8-5.41-1.24s-3.72-1.11-5.41-2
		c-1.68-0.89-3.07-2.14-4.17-3.77c-1.09-1.63-1.64-3.8-1.64-6.52c0-2.54,0.52-4.73,1.55-6.56c1.03-1.83,2.4-3.34,4.08-4.52
		c1.69-1.18,3.62-2.05,5.81-2.62c2.19-0.56,4.4-0.84,6.65-0.84c2.84,0,5.7,0.41,8.6,1.24c2.89,0.83,5.35,2.31,7.36,4.43L100,90.38z"
		/>
	<path class="st1" d="M158.17,120.8H145.4v-5.85h-0.18c-0.47,0.83-1.08,1.66-1.82,2.48c-0.74,0.83-1.64,1.57-2.7,2.22
		c-1.06,0.65-2.28,1.18-3.64,1.6c-1.36,0.41-2.84,0.62-4.43,0.62c-3.37,0-6.1-0.52-8.2-1.55c-2.1-1.03-3.73-2.47-4.88-4.3
		c-1.15-1.83-1.92-3.99-2.31-6.47c-0.38-2.48-0.58-5.17-0.58-8.07V77.7h13.3v21.11c0,1.24,0.04,2.53,0.13,3.86
		c0.09,1.33,0.35,2.56,0.8,3.68c0.44,1.12,1.12,2.04,2.04,2.75c0.92,0.71,2.23,1.06,3.95,1.06c1.71,0,3.1-0.31,4.17-0.93
		c1.06-0.62,1.88-1.45,2.44-2.48c0.56-1.03,0.93-2.2,1.11-3.5c0.18-1.3,0.27-2.66,0.27-4.08V77.7h13.3V120.8z"/>
	<path class="st1" d="M168.81,53.76h13.3v28.55h0.18c1.54-2.07,3.5-3.53,5.9-4.39c2.4-0.86,4.98-1.29,7.76-1.29
		c3.07,0,5.82,0.64,8.25,1.91c2.42,1.27,4.48,2.97,6.16,5.1c1.68,2.13,2.98,4.57,3.9,7.32c0.91,2.75,1.37,5.63,1.37,8.64
		c0,3.25-0.5,6.24-1.51,8.96c-1,2.72-2.44,5.07-4.3,7.05c-1.86,1.98-4.09,3.52-6.69,4.61c-2.6,1.09-5.5,1.64-8.69,1.64
		c-1.54,0-2.99-0.21-4.35-0.62c-1.36-0.41-2.62-0.94-3.77-1.6c-1.15-0.65-2.16-1.38-3.02-2.17c-0.86-0.8-1.55-1.58-2.08-2.35h-0.18
		v5.68h-12.24V53.76z M181.05,99.25c0,3.25,0.93,5.88,2.79,7.89c1.86,2.01,4.48,3.01,7.85,3.01c3.37,0,5.98-1,7.85-3.01
		c1.86-2.01,2.79-4.64,2.79-7.89c0-3.25-0.93-5.88-2.79-7.89c-1.86-2.01-4.48-3.02-7.85-3.02c-3.37,0-5.99,1.01-7.85,3.02
		C181.98,93.37,181.05,96,181.05,99.25z"/>
	<g>
		<path class="st1" d="M73.04,126.51h6.64v20.45l7.35-8.5h8.15l-8.54,9.7l8.77,11.82h-8.37l-7.26-10.89h-0.09v10.89h-6.64V126.51z"
			/>
		<path class="st1" d="M118.37,159.97H112v-2.92h-0.09c-0.24,0.41-0.54,0.83-0.91,1.24c-0.37,0.41-0.82,0.78-1.35,1.11
			c-0.53,0.32-1.14,0.59-1.82,0.8c-0.68,0.21-1.42,0.31-2.21,0.31c-1.68,0-3.05-0.26-4.09-0.77c-1.05-0.52-1.86-1.23-2.44-2.15
			c-0.58-0.91-0.96-1.99-1.15-3.23c-0.19-1.24-0.29-2.58-0.29-4.03v-11.86h6.64v10.54c0,0.62,0.02,1.26,0.07,1.93
			c0.04,0.66,0.18,1.28,0.4,1.84c0.22,0.56,0.56,1.02,1.02,1.37c0.46,0.35,1.11,0.53,1.97,0.53s1.55-0.15,2.08-0.46
			c0.53-0.31,0.94-0.72,1.22-1.24c0.28-0.52,0.46-1.1,0.55-1.75c0.09-0.65,0.13-1.33,0.13-2.04v-10.71h6.64V159.97z"/>
		<path class="st1" d="M123.15,126.51h6.64v33.47h-6.64V126.51z"/>
		<path class="st1" d="M149.23,143.77h-5.84v7.17c0,0.59,0.03,1.13,0.09,1.62c0.06,0.49,0.19,0.91,0.4,1.26
			c0.21,0.35,0.52,0.63,0.95,0.82c0.43,0.19,1,0.29,1.7,0.29c0.35,0,0.82-0.04,1.39-0.11c0.58-0.07,1.01-0.24,1.31-0.51v5.53
			c-0.74,0.27-1.5,0.44-2.3,0.53c-0.8,0.09-1.58,0.13-2.35,0.13c-1.12,0-2.15-0.12-3.1-0.35c-0.95-0.24-1.77-0.61-2.48-1.13
			c-0.71-0.52-1.26-1.19-1.66-2.01c-0.4-0.83-0.6-1.83-0.6-3.01v-10.23h-4.25v-5.31h4.25v-6.38h6.64v6.38h5.84V143.77z"/>
		<path class="st1" d="M173.31,159.97h-6.38v-2.92h-0.09c-0.24,0.41-0.54,0.83-0.91,1.24c-0.37,0.41-0.82,0.78-1.35,1.11
			c-0.53,0.32-1.14,0.59-1.82,0.8s-1.42,0.31-2.21,0.31c-1.68,0-3.05-0.26-4.09-0.77c-1.05-0.52-1.86-1.23-2.44-2.15
			c-0.58-0.91-0.96-1.99-1.15-3.23c-0.19-1.24-0.29-2.58-0.29-4.03v-11.86h6.64v10.54c0,0.62,0.02,1.26,0.07,1.93
			c0.04,0.66,0.18,1.28,0.4,1.84c0.22,0.56,0.56,1.02,1.02,1.37c0.46,0.35,1.11,0.53,1.97,0.53c0.86,0,1.55-0.15,2.08-0.46
			c0.53-0.31,0.94-0.72,1.22-1.24c0.28-0.52,0.46-1.1,0.55-1.75c0.09-0.65,0.13-1.33,0.13-2.04v-10.71h6.64V159.97z"/>
		<path class="st1" d="M178,138.46h6.64v3.45h0.09c0.71-1.33,1.55-2.32,2.52-2.99c0.97-0.66,2.2-1,3.67-1
			c0.38,0,0.77,0.02,1.15,0.04c0.38,0.03,0.74,0.09,1.06,0.18v6.06c-0.47-0.15-0.94-0.26-1.39-0.33c-0.46-0.07-0.94-0.11-1.44-0.11
			c-1.27,0-2.27,0.18-3.01,0.53c-0.74,0.35-1.31,0.85-1.71,1.48c-0.4,0.63-0.66,1.39-0.77,2.28c-0.12,0.89-0.18,1.86-0.18,2.92v8.99
			H178V138.46z"/>
		<path class="st1" d="M209.52,157.27h-0.09c-0.74,1.15-1.72,1.98-2.94,2.48c-1.22,0.5-2.52,0.75-3.87,0.75c-1,0-1.97-0.14-2.9-0.42
			c-0.93-0.28-1.75-0.7-2.46-1.26c-0.71-0.56-1.27-1.25-1.68-2.08c-0.41-0.83-0.62-1.79-0.62-2.88c0-1.24,0.23-2.29,0.69-3.14
			c0.46-0.86,1.08-1.56,1.86-2.12c0.78-0.56,1.67-1,2.68-1.31c1-0.31,2.04-0.54,3.12-0.69c1.08-0.15,2.15-0.24,3.23-0.27
			c1.08-0.03,2.07-0.04,2.99-0.04c0-1.18-0.42-2.12-1.26-2.81c-0.84-0.69-1.84-1.04-2.99-1.04c-1.09,0-2.09,0.23-2.99,0.69
			c-0.9,0.46-1.7,1.08-2.41,1.88l-3.54-3.63c1.24-1.15,2.69-2.01,4.34-2.59c1.65-0.58,3.36-0.86,5.13-0.86
			c1.95,0,3.55,0.24,4.8,0.73c1.25,0.49,2.26,1.2,3.01,2.15c0.75,0.95,1.28,2.1,1.57,3.48c0.29,1.37,0.44,2.96,0.44,4.76v10.93
			h-6.11V157.27z M207.88,150.54c-0.5,0-1.13,0.02-1.88,0.07c-0.75,0.04-1.48,0.17-2.17,0.38c-0.69,0.21-1.28,0.52-1.77,0.93
			c-0.49,0.41-0.73,0.99-0.73,1.73c0,0.8,0.34,1.39,1.02,1.77c0.68,0.38,1.39,0.58,2.13,0.58c0.65,0,1.28-0.09,1.88-0.27
			c0.61-0.18,1.14-0.43,1.62-0.75c0.47-0.32,0.85-0.74,1.13-1.24c0.28-0.5,0.42-1.09,0.42-1.77v-1.42H207.88z"/>
	</g>
</g>
</svg>
