<?xml version="1.0" encoding="utf-8"?>
<!-- Generator: Adobe Illustrator 24.0.3, SVG Export Plug-In . SVG Version: 6.00 Build 0)  -->
<svg version="1.1" id="Layer_1" xmlns="http://www.w3.org/2000/svg" xmlns:xlink="http://www.w3.org/1999/xlink" x="0px" y="0px"
	 viewBox="0 0 612 340.18" style="enable-background:new 0 0 612 340.18;" xml:space="preserve">
<path d="M371.98,81.28h-8.81h-1.26v1.76h0.25c0.25,0,0.25,0.25,0,1.26c0,0.76-0.5,2.52-1.51,5.04l-33.98,103.97l-27.44-99.44
	c0-0.25,0-0.5-0.25-0.5c0-0.25,0-0.25,0-0.25l-2.77-9.82c0-0.25,0.25-0.25,0.25-0.25h0.25v-1.76h-1.01h-20.64h-0.5v1.76h0.5
	c0.25,0,0.5,0.5,1.01,2.01c0.5,1.26,1.51,4.28,2.77,8.81l8.81,28.19l-23.08,71.44L233.02,84.05v-1.01h0.25v-1.76h-1.01h-20.64h-0.5
	v1.76h0.5c0.25,0,0.5,0.5,1.01,1.76c0.5,1.01,1.51,3.78,2.77,8.06l40.53,127.38h5.29l29.96-86.85l26.68,86.85h5.54l47.33-135.18
	c0.5-1.51,1.01-2.01,1.26-2.01h0.5v-1.76H371.98z"/>
<path d="M425.08,52.33c3.52,0,6.55-1.26,8.56-3.27c2.27-2.27,3.27-5.29,3.27-8.81c0-3.52-1.01-6.55-3.27-8.56
	c-2.01-2.27-5.04-3.27-8.56-3.27c-3.52,0-6.54,1.01-8.81,3.27c-2.01,2.01-3.27,5.03-3.27,8.56c0,3.52,1.26,6.54,3.27,8.81
	C418.54,51.07,421.56,52.33,425.08,52.33z"/>
<path d="M415.77,207.65c0,3.52,0,5.79-0.25,6.8c0,1.01-0.25,1.51-0.76,1.51v1.76h20.64v-1.76h-0.25c-0.25,0-0.5-0.5-0.76-1.51
	c0-1.01-0.25-3.27-0.25-6.8v-98.93V81.28h-3.27l-16.36,4.53v2.01h0.25c0.25,0,0.5,0.25,0.5,1.01c0.25,0.5,0.25,1.51,0.25,3.52
	c0.25,1.76,0.25,4.28,0.25,7.8c0.25,3.27,0,7.3,0,12.84V207.65z"/>
<path d="M492.9,207.65c0,3.52,0,5.79-0.25,6.8c0,1.01-0.25,1.51-0.76,1.51v1.76h20.64v-1.76h-0.25c-0.25,0-0.5-0.5-0.76-1.51
	c0-1.01-0.25-3.27-0.25-6.8v-98.93V81.28H508l-16.36,4.53v2.01h0.25c0.25,0,0.5,0.25,0.5,1.01c0.25,0.5,0.25,1.51,0.25,3.52
	c0.25,1.76,0.25,4.28,0.25,7.8c0.25,3.27,0,7.3,0,12.84V207.65z"/>
<path d="M502.21,52.33c3.52,0,6.55-1.26,8.56-3.27c2.27-2.27,3.27-5.29,3.27-8.81c0-3.52-1.01-6.55-3.27-8.56
	c-2.01-2.27-5.04-3.27-8.56-3.27c-3.52,0-6.54,1.01-8.81,3.27c-2.01,2.01-3.27,5.03-3.27,8.56c0,3.52,1.26,6.54,3.27,8.81
	C495.67,51.07,498.69,52.33,502.21,52.33z"/>
<path d="M590.41,215.96h-0.25c-0.25,0-0.5-0.5-0.76-1.51c0-1.01-0.25-3.27-0.25-6.8V45.79V18.35h-3.27l-16.36,4.53v2.01h0.25
	c0.25,0,0.5,0.25,0.5,1.01c0.25,0.5,0.25,1.51,0.25,3.52c0.25,1.76,0.25,4.28,0.25,7.8c0.25,3.27,0,7.3,0,12.84v157.59
	c0,3.52,0,5.79-0.25,6.8c0,1.01-0.25,1.51-0.76,1.51h-0.25v1.76h20.89V215.96z"/>
<rect x="211.73" y="284.67" width="1.78" height="28.85"/>
<polygon points="242.28,284.67 240.5,284.67 240.5,313.52 258.64,313.52 258.64,311.99 242.28,311.99 "/>
<path d="M301.68,301.97c0,1.64-0.16,3.13-0.48,4.44c-0.32,1.32-0.86,2.45-1.6,3.37c-0.74,0.93-1.71,1.64-2.91,2.14
	c-1.2,0.5-2.69,0.75-4.47,0.75c-1.4,0-2.59-0.18-3.58-0.55c-0.98-0.36-1.81-0.85-2.49-1.45c-0.67-0.61-1.21-1.29-1.6-2.06
	c-0.39-0.77-0.69-1.55-0.91-2.34c-0.21-0.79-0.35-1.57-0.4-2.32c-0.06-0.76-0.08-1.42-0.08-1.98v-17.3h-1.78v17.3
	c0,0.65,0.03,1.39,0.08,2.24c0.05,0.85,0.2,1.72,0.44,2.63c0.24,0.9,0.59,1.8,1.05,2.69c0.46,0.89,1.08,1.68,1.88,2.36
	c0.79,0.69,1.8,1.25,3.01,1.68c1.21,0.43,2.67,0.65,4.36,0.65c2.16,0,3.95-0.32,5.39-0.95c1.44-0.63,2.59-1.5,3.46-2.61
	c0.86-1.11,1.47-2.4,1.84-3.88c0.36-1.48,0.54-3.08,0.54-4.81v-17.3h-1.78V301.97z"/>
<path d="M348.7,300.33c-0.93-0.58-1.98-1.04-3.15-1.37s-2.38-0.63-3.62-0.87c-1.21-0.24-2.41-0.5-3.6-0.77
	c-1.19-0.27-2.24-0.63-3.15-1.07c-0.92-0.45-1.66-1.03-2.22-1.76c-0.57-0.73-0.85-1.67-0.85-2.83c0-1.18,0.26-2.17,0.77-2.97
	c0.51-0.79,1.16-1.43,1.96-1.9c0.79-0.47,1.66-0.8,2.59-0.99c0.93-0.19,1.8-0.28,2.61-0.28c1.32,0,2.54,0.15,3.66,0.46
	c1.12,0.31,2.08,0.77,2.89,1.39c0.81,0.62,1.45,1.39,1.92,2.3c0.47,0.92,0.73,1.99,0.79,3.23h1.78c-0.08-1.59-0.42-2.95-1.01-4.08
	c-0.59-1.13-1.38-2.05-2.36-2.77c-0.98-0.71-2.13-1.24-3.44-1.57s-2.71-0.51-4.22-0.51c-1.13,0-2.28,0.14-3.44,0.43
	c-1.16,0.28-2.2,0.73-3.13,1.33c-0.93,0.61-1.68,1.4-2.26,2.38c-0.58,0.98-0.87,2.16-0.87,3.54s0.28,2.5,0.85,3.37
	c0.57,0.88,1.31,1.59,2.22,2.14c0.92,0.55,1.97,0.99,3.15,1.31c1.18,0.32,2.38,0.61,3.6,0.85c1.24,0.24,2.44,0.5,3.62,0.79
	c1.17,0.28,2.22,0.66,3.15,1.13c0.93,0.47,1.68,1.09,2.24,1.86c0.57,0.77,0.85,1.76,0.85,2.97c0,1.27-0.28,2.32-0.83,3.15
	c-0.55,0.84-1.24,1.51-2.06,2.02c-0.82,0.51-1.72,0.88-2.71,1.09c-0.98,0.22-1.91,0.32-2.77,0.32c-1.43,0-2.79-0.16-4.08-0.47
	c-1.29-0.31-2.42-0.81-3.37-1.52c-0.96-0.7-1.71-1.6-2.24-2.69c-0.54-1.09-0.77-2.43-0.69-4.02h-1.78
	c-0.03,1.86,0.28,3.44,0.91,4.73c0.63,1.29,1.5,2.35,2.61,3.17c1.1,0.82,2.4,1.42,3.88,1.78c1.48,0.36,3.07,0.55,4.77,0.55
	c1.11,0,2.26-0.14,3.46-0.42s2.29-0.75,3.27-1.39c0.98-0.65,1.8-1.48,2.44-2.51c0.65-1.02,0.97-2.29,0.97-3.8
	c0-1.4-0.28-2.57-0.85-3.5C350.37,301.66,349.63,300.91,348.7,300.33z"/>
<path d="M386.38,284.67l-11.6,28.85h1.9l3.68-9.25h13.82l3.64,9.25h1.9l-11.39-28.85H386.38z M380.92,302.73l6.43-16.33h0.08
	l6.18,16.33H380.92z"/>
<polygon points="425.45,284.67 423.68,284.67 423.68,313.52 441.82,313.52 441.82,311.99 425.45,311.99 "/>
<path d="M486.86,288.37c-1.17-1.36-2.61-2.43-4.3-3.21c-1.7-0.78-3.62-1.17-5.78-1.17c-2.16,0-4.09,0.39-5.8,1.17
	c-1.71,0.78-3.15,1.85-4.32,3.21c-1.17,1.36-2.07,2.96-2.69,4.81c-0.62,1.85-0.93,3.82-0.93,5.92c0,2.1,0.31,4.07,0.93,5.92
	c0.62,1.85,1.51,3.45,2.69,4.81c1.17,1.36,2.61,2.43,4.32,3.21c1.71,0.78,3.64,1.17,5.8,1.17c2.15,0,4.08-0.39,5.78-1.17
	c1.7-0.78,3.13-1.85,4.3-3.21c1.17-1.36,2.07-2.96,2.69-4.81c0.62-1.84,0.93-3.82,0.93-5.92c0-2.1-0.31-4.07-0.93-5.92
	C488.92,291.33,488.03,289.73,486.86,288.37z M487.89,304.35c-0.54,1.64-1.32,3.08-2.34,4.3s-2.27,2.2-3.74,2.93
	c-1.47,0.73-3.15,1.09-5.03,1.09c-1.89,0-3.57-0.37-5.05-1.09c-1.48-0.73-2.74-1.7-3.76-2.93c-1.02-1.23-1.81-2.66-2.34-4.3
	c-0.54-1.64-0.81-3.4-0.81-5.25c0-1.86,0.27-3.61,0.81-5.25c0.54-1.64,1.32-3.08,2.34-4.3c1.02-1.23,2.28-2.2,3.76-2.93
	c1.48-0.73,3.17-1.09,5.05-1.09c1.88,0,3.56,0.36,5.03,1.09c1.47,0.73,2.71,1.71,3.74,2.93c1.02,1.23,1.81,2.66,2.34,4.3
	c0.54,1.64,0.81,3.39,0.81,5.25C488.7,300.96,488.43,302.71,487.89,304.35z"/>
<polygon points="536.7,311.14 536.62,311.14 518.4,284.67 516.17,284.67 516.17,313.52 517.95,313.52 517.95,286.85 518.03,286.85 
	536.38,313.52 538.48,313.52 538.48,284.67 536.7,284.67 "/>
<path d="M578.36,300.92h10.63c0.08,1.78-0.12,3.39-0.6,4.83c-0.48,1.44-1.21,2.67-2.16,3.7c-0.96,1.02-2.12,1.82-3.49,2.38
	c-1.37,0.57-2.92,0.85-4.65,0.85c-2,0-3.73-0.36-5.21-1.07c-1.48-0.71-2.71-1.68-3.7-2.89c-0.98-1.21-1.72-2.63-2.22-4.26
	c-0.5-1.63-0.75-3.36-0.75-5.19c0-1.81,0.26-3.54,0.77-5.19c0.51-1.66,1.27-3.12,2.26-4.38c1-1.27,2.24-2.28,3.72-3.03
	c1.48-0.75,3.19-1.13,5.13-1.13c2.67,0,4.88,0.71,6.63,2.14c1.75,1.43,2.96,3.41,3.64,5.94h1.7c-0.24-1.51-0.73-2.85-1.45-4.04
	c-0.73-1.18-1.62-2.2-2.69-3.03c-1.06-0.83-2.27-1.47-3.62-1.9c-1.35-0.43-2.76-0.65-4.24-0.65c-2.18,0-4.12,0.41-5.8,1.23
	c-1.69,0.82-3.11,1.93-4.26,3.33c-1.16,1.4-2.04,3.03-2.65,4.87c-0.61,1.84-0.91,3.79-0.91,5.84c0,2.08,0.3,4.02,0.89,5.84
	c0.59,1.82,1.47,3.4,2.63,4.75c1.16,1.35,2.58,2.41,4.26,3.19c1.68,0.78,3.62,1.17,5.8,1.17c1.27,0,2.49-0.16,3.66-0.48
	c1.17-0.32,2.23-0.77,3.19-1.35c0.96-0.58,1.78-1.29,2.49-2.14c0.7-0.85,1.22-1.8,1.57-2.85h0.08v6.14h1.54v-14.14h-12.16V300.92z"
	/>
<rect x="210.9" y="251.67" width="380.26" height="1.83"/>
<path d="M63.55,73.75l-42.44,53.5l66.1,93.26l93.27-66.1l-22.33-64.54L63.55,73.75z M112.24,88.31l36.83,6.28l-16.24,14.53
	l-23.71-0.84l22.39,6.42l8.7,28l-31.18-34.41L112.24,88.31z M130.32,140.97l-26.09-4.49l3.49-20.46L130.32,140.97z M106.15,87.27
	l-3.22,19.95l-37.83,19.55l15.44-20.79l22.29,1.22l-21.7-6.91L70.63,81.22L106.15,87.27z M101.65,114.83l-3.51,20.6l-27.28-4.69
	L101.65,114.83z M64.37,82.65l11,19.96l-19.46,26.2l-24.5-4.61L64.37,82.65z M30.9,130.39l24.03,4.52l22.19,60.71L30.9,130.39z
	 M86.56,203.42L61.7,135.43l35.4,6.09L86.56,203.42z M103.19,142.57l36.2,6.22l-47,57.16L103.19,142.57z M104.97,200.36l41.06-49.93
	l24.18,3.7L104.97,200.36z M147.19,144.36l-9.68-31.16l16.94-15.15l17.32,50.07L147.19,144.36z"/>
</svg>
