<?xml version="1.0" encoding="utf-8"?>
<!-- Generator: Adobe Illustrator 24.0.3, SVG Export Plug-In . SVG Version: 6.00 Build 0)  -->
<svg version="1.1" id="Layer_1" xmlns="http://www.w3.org/2000/svg" xmlns:xlink="http://www.w3.org/1999/xlink" x="0px" y="0px"
	 viewBox="0 0 544 650" style="enable-background:new 0 0 544 650;" xml:space="preserve">
<style type="text/css">
	.st0{fill:#FFFFFF;}
</style>
<g>
	<path class="st0" d="M522.98,227.97c-13.19-31.24-32.1-59.31-56.13-83.34c-24.09-24.08-52.1-42.95-83.34-56.19
		c-32.31-13.65-66.62-20.61-102.05-20.61c-35.33,0-69.69,6.96-102.05,20.61c-0.15,0.07-0.3,0.13-0.46,0.2
		C178.89,72.72,174.5,57.06,166,43.1c-12.3-20.22-31.75-34.43-54.75-40.02c-6.92-1.69-14-2.54-21.04-2.54
		c-40.93,0-76.3,27.82-86.02,67.67c-11.53,47.48,17.7,95.5,65.17,107.04c0.14,0.03,0.27,0.07,0.41,0.09
		c-11.91,16.27-21.9,33.86-29.84,52.63c-13.65,32.31-20.55,66.62-20.55,102s6.9,69.68,20.55,102.05
		c13.24,31.18,32.16,59.25,56.19,83.33c24.08,24.03,52.1,42.9,83.29,56.14c0.15,0.05,0.3,0.15,0.46,0.21
		c-0.05,0.25-0.16,0.51-0.26,0.81c-1.17,3.74-2.91,9.31-1.38,16.88c2.71,13.09,3.58,22.39,3.68,26.17l-6.75,9.62l2.36,1.12
		c-1.59,1.48-3.02,2.86-4.04,4.14c-0.46,0.62-1.38,1.74-1.95,3.17c-0.66,1.59-0.97,3.48-0.05,5.57c1.79,3.94,5.83,4.15,8.8,4.3
		c1.07,0.05,2.35,0.15,3.78,0.31c4.4,0.61,26.53,2.81,43.71,2.81c15.9,0,21.58-1.84,24.39-4.6c0.05-0.05,7.11-1.03,7.11-1.03
		l1.89-6.59c0.66-2.2,1.23-4.55,1.84-7.11c0.2-0.97,0.46-1.99,0.66-3.07c1.79-8.07,2.92-11.76,3.58-13.44
		c4.45-0.62,16.72-1.49,34.72-1.49c21.58,0,31.9,1.23,34.92,1.79c0.97,0.92,2.04,1.95,3.37,3.07c3.22,2.81,8.03,7.11,9.56,9.97
		c0,0.62-0.05,1.84-0.1,2.4l-0.05,0.92L349,641.64l7.46-2.25c2.25,3.68,6.65,6.59,15.14,6.59c0,0,2.55-0.05,3.37-0.05
		c3.78,0,8.08,0.16,12.37,0.36c3.43,0.1,6.9,0.26,10.23,0.31h0.2c1.08,0.05,2.1,0.05,3.12,0.05c6.34,0,11.76-0.36,15.9-1.64h0.1
		c0.06,0,0.06,0,0.11-0.05c2.81-0.87,4.96-2.15,6.54-4.09c0.36-0.46,0.61-0.87,0.87-1.33l8.08,2.92l-2-9.46l-2.04-9.87
		c-2.35-11.61-6.03-29.04-6.95-37.83l-0.11-0.87c-0.46-4.66-2.2-11.86-4.14-20.2c-0.66-2.76-1.38-5.67-2.04-8.74
		c18.76-11.15,36.04-24.54,51.64-40.14c24.03-24.08,42.94-52.15,56.13-83.33c13.71-32.37,20.61-66.67,20.61-102.05
		S536.69,260.28,522.98,227.97z M7.77,69.08C18.89,23.5,64.8-4.45,110.37,6.65c39.25,9.54,65.41,44.89,64.86,83.62
		c-0.03,3.32-0.28,6.67-0.74,10.03c-0.24,1.86-0.55,3.73-0.93,5.6c-0.22,1.12-0.47,2.23-0.74,3.35
		c-4.38,17.9-14.17,33.12-27.15,44.28c4.59,4.59,9.37,8.78,14.24,12.24c0.95,0.69,1.91,1.35,2.88,1.97c1.33,0.86,2.66,1.66,3.99,2.4
		h0.01c0.26-0.18,0.55-0.39,0.82-0.56c-0.26,0.19-0.53,0.38-0.8,0.57c3.08,1.7,6.16,3.05,9.22,3.96c0,0-5.99,0.54-14.6,0.05
		c-1.97-0.1-4.08-0.27-6.28-0.51c-1.46-0.15-2.97-0.34-4.5-0.57c-7.82-1.15-16.43-3.26-24.29-7.05
		c-11.87,5.57-25.06,8.45-38.63,8.02c-1.9-0.05-3.8-0.17-5.71-0.37c-3.28-0.32-6.57-0.84-9.86-1.56c-0.64-0.14-1.29-0.29-1.93-0.45
		C24.66,160.59-3.3,114.66,7.77,69.08z M298.65,134.04h-0.01c-0.05,0-0.05,0-0.05,0c-0.35,0.12-0.69,0.25-1.04,0.38l-0.53-0.53
		c0.56,0.04,1.11,0.08,1.66,0.13c0.74,0.06,1.48,0.13,2.22,0.22C300.16,134.17,299.41,134.1,298.65,134.04z M290.37,133.48
		c0.13,0.01,0.27,0.01,0.4,0.02c0.08,0,0.16,0,0.23,0.01c0.19,0.01,0.37,0.01,0.55,0.03c0.15,0,0.3,0.01,0.45,0.02
		c0.1,0,0.19,0.01,0.28,0.01c0.07,0,0.14,0.01,0.2,0.02h0.16c0.15,0.01,0.3,0.02,0.45,0.03c0.21,0.01,0.42,0.03,0.63,0.04l1.67,1.67
		c-0.68,0.31-1.34,0.63-1.97,0.96c-1.79,0.98-3.42,2-4.86,2.87c-0.97,0.61-2.19,1.43-2.96,1.74c-0.48-0.09-1.22-0.31-2.05-0.6
		L290.37,133.48z M281.3,139.46c-0.53-0.21-1.05-0.42-1.53-0.61c-2.2-0.87-4.75-1.84-7.52-2.71c-2.65-0.87-5.62-1.63-8.69-2.04
		c-0.1,0-0.19,0.02-0.29,0.03c-0.05,0-0.11,0.01-0.16,0.01l-0.01-0.01c0.14-0.01,0.27-0.03,0.41-0.04c1.19-0.11,2.39-0.2,3.59-0.29
		c1.2-0.09,2.4-0.16,3.61-0.22c0.29-0.02,0.58-0.04,0.87-0.05c0.73-0.04,1.46-0.07,2.19-0.1c0.88-0.04,1.76-0.06,2.64-0.09h0.1
		c1.65-0.04,3.29-0.06,4.95-0.06h0.01c0.01,0,0.01,0,0.02,0h0.22c0.77,0,1.55,0.01,2.32,0.02c0.97,0.01,1.94,0.03,2.91,0.06
		c0.15,0,0.3,0.01,0.45,0.02L281.3,139.46z M244.8,136.7c-1.38,0.67-2.35,1.38-3.32,2.05c-0.98,0.66-1.95,1.33-3.69,2.04
		c-0.05,0-0.1,0.05-0.15,0.05c-0.42,0.18-0.91,0.37-1.45,0.55l-2.3-2.3c0.42-0.11,0.84-0.21,1.25-0.31
		c1.18-0.29,2.37-0.56,3.56-0.82c0.47-0.11,0.93-0.21,1.4-0.31c0.7-0.15,1.4-0.29,2.1-0.44C243.06,137.03,243.93,136.86,244.8,136.7
		c0,0,0.05-0.05,0.1-0.05c0.59-0.11,1.18-0.21,1.77-0.3C246.04,136.46,245.42,136.58,244.8,136.7z M230.47,139.97
		c0.32-0.09,0.65-0.17,0.97-0.25l2.4,2.4c-0.2,0.06-0.38,0.11-0.59,0.17c-9.5,2.42-18.52,5.21-25.2,11.21l-0.08-0.08l0.11-0.11
		c1.61-1.61,1.61-4.23,0.01-5.85c0.03-0.01,0.06-0.02,0.09-0.04c0.12-0.06,0.24-0.11,0.37-0.15c0.12-0.06,0.24-0.1,0.36-0.15
		c0.12-0.05,0.24-0.1,0.36-0.15c0.2-0.08,0.4-0.16,0.6-0.23c0.44-0.17,0.88-0.34,1.33-0.51c0.12-0.05,0.24-0.1,0.36-0.14
		c0.06-0.03,0.13-0.06,0.2-0.08c0.69-0.27,1.4-0.53,2.1-0.78l0.01-0.01c0.44-0.16,0.89-0.31,1.33-0.47c0.97-0.35,1.95-0.7,2.93-1.02
		c0.09-0.04,0.18-0.07,0.28-0.1c0.09-0.04,0.19-0.07,0.28-0.1c0.23-0.08,0.45-0.15,0.68-0.22c0.05-0.02,0.11-0.04,0.16-0.05
		c1.34-0.45,2.69-0.89,4.05-1.3c0.29-0.09,0.58-0.17,0.86-0.26c0.29-0.09,0.57-0.17,0.86-0.25c1.08-0.34,2.17-0.65,3.26-0.95
		C229.19,140.31,229.83,140.14,230.47,139.97z M192.5,181.49c0.61,2.15,1.78,3.99,3.63,5.57c0,2,0.05,4.15,0.15,6.34
		c0.16,3.96,0.19,8.89,0.09,14.39l-7.25,7.25l-13.19-13.19v0l-2.36-2.36l0.1-0.1c1.61-1.61,1.62-4.24,0-5.86L189.23,178l3.21,3.21
		C192.46,181.3,192.48,181.39,192.5,181.49z M192.85,254.65l-1.27-0.86l-0.86,5.53l-1.83,1.83l-15.54-15.54l0.11-0.11
		c1.61-1.61,1.61-4.24,0-5.86l15.54-15.54l6.43,6.43c-0.52,8.25-1.23,16.67-2.12,24.44L192.85,254.65z M157.22,390.5
		c0.32,1.57,0.72,3.1,1.16,4.61l-4.33,4.33l-15.54-15.54l0.1-0.1c1.51-1.51,1.61-3.89,0.3-5.52c-0.01-0.01-0.01-0.02-0.02-0.02
		c-0.05-0.07-0.11-0.13-0.17-0.19c-0.04-0.04-0.07-0.08-0.11-0.12l15.54-15.54l2.52,2.52C155.41,372.83,155.22,380.39,157.22,390.5z
		 M160.75,401.9v0.05c3.1,7.38,7.37,13.9,11.45,19.36l-1.18,1.18l-15.54-15.54l0.11-0.11l0,0c0.71-0.71,1.1-1.61,1.19-2.53
		c0.01-0.06,0.01-0.12,0.01-0.19c0-0.07,0.01-0.14,0.01-0.21c0-0.04,0-0.08-0.01-0.12c0-0.09,0-0.19-0.01-0.28l0,0
		c-0.09-0.92-0.48-1.82-1.19-2.53l3.52-3.52C159.62,398.96,160.16,400.44,160.75,401.9z M174.45,424.24v0.06
		c1.74,2.25,3.42,4.29,4.91,6.03c1.27,1.53,2.4,2.86,3.17,3.88c0.2,0.31,0.35,0.62,0.46,1.13v0.05c0.33,1.29,0.45,3.24,0.43,5.56
		l-10.96-10.96l0.11-0.11c1.61-1.61,1.62-4.24,0-5.86l0.97-0.97C173.84,423.45,174.15,423.85,174.45,424.24z M181.25,465.04
		c-0.62,5.22-1.33,10.64-1.74,15.6c-0.07,0.83-0.13,1.7-0.19,2.55l-7.09-7.09l0.11-0.11c1.61-1.61,1.62-4.24,0-5.86l9.43-9.43
		C181.6,462.22,181.43,463.69,181.25,465.04z M179.38,498.16c-0.16-0.1-0.32-0.19-0.48-0.29c-0.52-0.31-0.98-0.62-1.49-0.92v-0.02
		c-3.01-1.87-5.97-3.83-8.87-5.88c-0.05-0.04-0.1-0.07-0.15-0.1c-2.15-1.51-4.26-3.07-6.34-4.67l8.64-8.64l5.24,5.24l3.21,3.21
		c-0.2,3.76-0.29,7.68-0.25,11.75C179.06,497.96,179.22,498.06,179.38,498.16z M97.24,399.01c-0.64-1.67-1.24-3.35-1.81-5.04
		c-0.1-0.29-0.19-0.58-0.29-0.87l7.66-7.66l15.54,15.54l-0.1,0.1c-0.78,0.78-1.21,1.82-1.21,2.93c0,1.11,0.43,2.14,1.21,2.93
		l-12.16,12.16c-0.65-1.27-1.29-2.55-1.9-3.83c-0.34-0.66-0.65-1.32-0.95-1.99c-0.07-0.11-0.12-0.21-0.15-0.32
		c-0.53-1.14-1.06-2.28-1.56-3.43c-0.51-1.15-1.01-2.3-1.49-3.46c-0.98-2.3-1.9-4.63-2.78-6.98v-0.05L97.24,399.01z M172.03,201.05
		l3.91,3.91v0l11.64,11.64l-0.1,0.1c-0.78,0.78-1.21,1.82-1.21,2.93c0,1.1,0.43,2.14,1.21,2.93l-11.53,11.53v0l-4.01,4.01
		l-15.54-15.54l0.11-0.11h0c1.61-1.61,1.61-4.24,0-5.85L172.03,201.05z M171.46,196.58c0-0.52,0.2-1.02,0.58-1.39l0.11-0.11
		c0.76,0.77,0.76,2.01,0,2.78l-0.1,0.1l0,0l0,0h0l-0.01,0.01C171.66,197.59,171.46,197.1,171.46,196.58z M187.24,268.65
		l-11.31,11.31v0l-4.24,4.24l-15.54-15.54l0.11-0.11l0,0c1.61-1.61,1.61-4.24,0-5.86l15.54-15.54l15.54,15.54l-0.11,0.11
		c-0.78,0.78-1.21,1.82-1.21,2.93C186.03,266.83,186.46,267.86,187.24,268.65z M171.69,290.05l-0.11,0.11
		c-0.37-0.37-0.57-0.86-0.57-1.39c0-0.52,0.2-1.02,0.58-1.39l0.11-0.11C172.46,288.04,172.46,289.28,171.69,290.05z M170.04,291.7
		l-15.54,15.54l-15.54-15.54l0.11-0.11c1.61-1.61,1.62-4.24,0-5.86l15.54-15.54l15.54,15.54l-0.11,0.11
		c-0.78,0.78-1.21,1.82-1.21,2.93C168.83,289.88,169.26,290.92,170.04,291.7z M155.07,311.71c0,0.01,0,0.02,0,0.02
		c-0.01,0.49-0.2,0.99-0.57,1.36l-0.11,0.11c-0.37-0.37-0.57-0.86-0.57-1.39c0-0.52,0.2-1.02,0.58-1.39l0.11-0.11
		c0.02,0.02,0.03,0.03,0.05,0.05c0.21,0.23,0.36,0.5,0.45,0.78c0.02,0.05,0.03,0.11,0.04,0.16c0,0.01,0,0.01,0.01,0.02
		c0.01,0.05,0.02,0.1,0.02,0.15c0,0.01,0,0.02,0.01,0.04c0,0.04,0,0.08,0.01,0.13C155.07,311.67,155.07,311.69,155.07,311.71z
		 M152.85,314.75l-15.54,15.54l-15.54-15.54l0.11-0.11c1.62-1.61,1.62-4.24,0-5.86l7.77-7.77l7.77-7.77l15.54,15.54l-0.11,0.11
		c-0.78,0.78-1.21,1.82-1.21,2.93C151.64,312.92,152.07,313.96,152.85,314.75z M152.62,360.85l-15.54,15.54l-15.54-15.54l0.11-0.11
		c1.61-1.61,1.62-4.24,0-5.86l5.58-5.58l9.97-9.97l15.54,15.54l0,0l-0.11,0.11c-0.78,0.78-1.21,1.82-1.21,2.93
		C151.41,359.03,151.84,360.07,152.62,360.85z M154.06,402.52c0.02,0.02,0.04,0.05,0.07,0.07c0.02,0.03,0.05,0.05,0.07,0.08
		c0.01,0.01,0.02,0.03,0.03,0.04c0.03,0.04,0.06,0.07,0.08,0.11c0,0,0,0.01,0,0.01c0.49,0.76,0.41,1.79-0.26,2.46l-0.11,0.11
		c-0.37-0.37-0.57-0.86-0.57-1.39c0-0.53,0.2-1.02,0.58-1.39L154.06,402.52L154.06,402.52L154.06,402.52L154.06,402.52
		L154.06,402.52z M153.95,408.48l15.54,15.54l-0.11,0.11c-0.78,0.78-1.21,1.82-1.21,2.93c0,1.11,0.43,2.15,1.21,2.93l-10.95,10.95
		l-4.59,4.59l-15.54-15.54l0.11-0.11c0.24-0.24,0.44-0.5,0.6-0.78c0.73-1.21,0.8-2.71,0.19-3.96c-0.2-0.4-0.46-0.78-0.79-1.12
		L153.95,408.48z M170.92,431.53l12.42,12.42c-0.19,4.05-0.66,8.79-1.16,13.27l-6.23,6.23v0l-5.13,5.13l-1.32-1.32l-14.22-14.22
		l0.11-0.11c0.61-0.61,0.98-1.35,1.14-2.14c0.23-1.17-0.06-2.43-0.85-3.41c-0.02-0.02-0.04-0.04-0.06-0.07
		c-0.07-0.08-0.14-0.17-0.22-0.25L170.92,431.53z M170.35,427.06c0-0.53,0.2-1.02,0.58-1.39l0.11-0.11c0.76,0.77,0.76,2.01,0,2.78
		l-0.11,0.11C170.55,428.08,170.35,427.58,170.35,427.06z M170.8,474.44l-0.11,0.11c-0.37-0.37-0.57-0.86-0.57-1.39
		c0-0.53,0.2-1.02,0.58-1.39l0.11-0.11C171.57,472.43,171.57,473.68,170.8,474.44z M153.83,451.39l-0.11,0.11
		c-0.37-0.37-0.57-0.86-0.57-1.39c0-0.52,0.2-1.02,0.58-1.39l0.11-0.11c0.01,0.01,0.03,0.03,0.04,0.04
		C154.59,449.43,154.58,450.64,153.83,451.39z M152.41,401.08c-0.78,0.78-1.21,1.82-1.21,2.93c0,1.11,0.43,2.14,1.21,2.93
		l-5.18,5.18l-10.36,10.36l-15.54-15.54l0.11-0.11c1.61-1.61,1.62-4.24,0-5.86l7.77-7.77l7.77-7.77l15.54,15.54L152.41,401.08z
		 M136.86,428.34l-0.11,0.11c-0.37-0.37-0.57-0.86-0.57-1.39c0-0.53,0.2-1.02,0.58-1.39l0.11-0.11c0.08,0.08,0.15,0.17,0.22,0.27
		C137.62,426.59,137.54,427.66,136.86,428.34z M119.89,399.43l-15.54-15.54l0.1-0.1c1.61-1.61,1.62-4.24,0-5.86L120,362.39
		l15.54,15.54l-0.11,0.11c-0.78,0.78-1.21,1.82-1.21,2.93c0,1.1,0.43,2.14,1.21,2.92L119.89,399.43z M119.89,405.29l-0.11,0.11
		c-0.37-0.37-0.57-0.86-0.57-1.39c0-0.53,0.2-1.02,0.58-1.39l0.1-0.1l0,0l0,0l0,0l0.01-0.01
		C120.65,403.28,120.65,404.52,119.89,405.29z M102.91,376.39l-15.54-15.54l0.11-0.11c1.61-1.61,1.62-4.24,0-5.86l11.39-11.39
		l4.15-4.15l15.54,15.54l-0.11,0.11c-0.78,0.78-1.21,1.82-1.21,2.93c0,1.11,0.43,2.14,1.21,2.93L102.91,376.39z M102.91,382.25
		l-0.1,0.1l0,0l0,0l0,0l-0.01,0.01c-0.37-0.37-0.57-0.86-0.57-1.38c0-0.52,0.2-1.02,0.58-1.39l0.11-0.11
		C103.68,380.24,103.67,381.48,102.91,382.25z M87.71,308.78l15.54-15.54l15.54,15.54l-0.11,0.11l0,0
		c-0.57,0.57-0.95,1.28-1.12,2.05c0,0.02-0.01,0.04-0.02,0.06c-0.01,0.05-0.02,0.11-0.02,0.16c-0.01,0.08-0.03,0.16-0.04,0.24
		c0,0.05,0,0.1-0.01,0.14c-0.01,0.09-0.01,0.18-0.01,0.27v0c0,1.11,0.43,2.14,1.21,2.93l-15.54,15.54L87.6,314.75l0.11-0.11
		C89.32,313.02,89.32,310.4,87.71,308.78z M102.68,288.77c0-0.52,0.2-1.02,0.58-1.39l0.11-0.11c0.76,0.77,0.76,2.01,0,2.78
		l-0.11,0.11C102.88,289.79,102.68,289.29,102.68,288.77z M104.9,285.73l15.54-15.54l15.54,15.54l-0.11,0.11
		c-0.78,0.78-1.21,1.82-1.21,2.93c0,1.11,0.43,2.14,1.21,2.93l-7.77,7.77l-7.77,7.77l-15.54-15.54l0.11-0.11
		C106.51,289.97,106.52,287.35,104.9,285.73z M105.13,245.48c1.21-1.21,1.51-2.98,0.92-4.47c0.82-1.62,1.65-3.23,2.52-4.82
		l12.11-12.11l15.54,15.54l-0.11,0.11c-0.78,0.78-1.21,1.82-1.21,2.93c0,1.1,0.43,2.14,1.21,2.93l-2.52,2.52l-13.02,13.02l0,0
		l-15.54-15.54L105.13,245.48z M137.35,196.13c0.26-0.28,0.52-0.57,0.78-0.86c0.59,0.77,0.55,1.88-0.16,2.58l-0.1,0.1l0,0l0,0
		l-0.01,0.01c-0.37-0.37-0.57-0.86-0.57-1.38C137.29,196.42,137.31,196.27,137.35,196.13z M137.86,201.04l15.54,15.54l-0.1,0.1
		c-0.78,0.78-1.21,1.82-1.21,2.93c0,1.1,0.43,2.14,1.21,2.93l-15.54,15.54l-15.54-15.54l0.11-0.11c1.61-1.61,1.62-4.24,0-5.86
		L137.86,201.04z M154.84,224.09l15.54,15.54l-0.11,0.11c-0.78,0.78-1.21,1.82-1.21,2.93c0,1.11,0.43,2.15,1.21,2.93l-3.01,3.01
		l-12.53,12.53l-15.54-15.54l0.11-0.11c1.61-1.61,1.61-4.24,0-5.86L154.84,224.09z M154.27,219.62c0-0.52,0.2-1.02,0.58-1.39
		l0.1-0.1l0,0l0,0l0,0l0.01-0.01c0.21,0.22,0.37,0.47,0.46,0.74c0.15,0.43,0.14,0.91-0.02,1.33c-0.1,0.25-0.24,0.49-0.45,0.7
		l-0.11,0.11C154.47,220.63,154.27,220.14,154.27,219.62z M154.72,267l-0.11,0.11c-0.37-0.37-0.57-0.86-0.57-1.39
		c0-0.52,0.2-1.02,0.58-1.39l0.11-0.11C155.49,264.99,155.49,266.23,154.72,267z M153.07,268.65l-15.54,15.54l-15.54-15.54
		l0.11-0.11c1.61-1.61,1.62-4.24,0-5.86l7.37-7.37l8.17-8.17l0,0l15.54,15.54l-0.11,0.11c-0.78,0.78-1.21,1.82-1.21,2.93
		C151.86,266.83,152.29,267.86,153.07,268.65z M137.53,290.05l-0.11,0.11c-0.37-0.37-0.57-0.86-0.57-1.39
		c0-0.52,0.21-1.02,0.58-1.39l0.11-0.11C138.29,288.04,138.29,289.28,137.53,290.05z M137.07,242.67c0-0.52,0.2-1.02,0.58-1.39
		l0.11-0.11c0.14,0.14,0.25,0.3,0.34,0.46c0,0.01,0.01,0.01,0.01,0.01c0,0,0,0,0,0.01c0.38,0.73,0.27,1.64-0.32,2.26
		c-0.01,0.01-0.02,0.03-0.03,0.04l-0.11,0.11C137.28,243.68,137.07,243.19,137.07,242.67z M120.78,220.9l-0.11,0.11
		c-0.37-0.37-0.57-0.86-0.57-1.39c0-0.52,0.2-1.02,0.58-1.39l0.1-0.1l0,0l0.01-0.01C121.55,218.89,121.55,220.13,120.78,220.9z
		 M120.45,264.33l0.11-0.11c0.76,0.77,0.76,2.01,0,2.78l-0.11,0.11c-0.37-0.37-0.57-0.86-0.57-1.39
		C119.87,265.2,120.08,264.7,120.45,264.33z M135.66,337.8L124,349.45l-3.89,3.89l-15.54-15.54l0.11-0.11
		c1.61-1.61,1.62-4.24,0-5.86l15.54-15.54l15.54,15.54l-0.11,0.11c-0.78,0.78-1.21,1.82-1.21,2.93
		C134.44,335.97,134.87,337.01,135.66,337.8z M120.1,359.2l-0.11,0.11c-0.01-0.01-0.01-0.01-0.02-0.02
		c-0.36-0.37-0.55-0.85-0.55-1.37c0-0.52,0.2-1.02,0.58-1.39l0.11-0.11C120.87,357.19,120.87,358.43,120.1,359.2z M120.33,313.1
		l-0.11,0.11c-0.37-0.37-0.57-0.86-0.57-1.39c0-0.52,0.2-1.02,0.58-1.39l0.11-0.11C121.1,311.09,121.1,312.33,120.33,313.1z
		 M103.03,333.48l0.11-0.11c0.76,0.77,0.76,2.01,0,2.78l-0.11,0.11c-0.37-0.37-0.57-0.86-0.57-1.39
		C102.46,334.34,102.66,333.85,103.03,333.48z M137.1,382.23c-0.01,0.01-0.01,0.01-0.02,0.02l-0.1,0.1l0,0h0l-0.01,0.01
		c-0.37-0.37-0.57-0.86-0.57-1.38c0-0.52,0.2-1.02,0.58-1.39l0.11-0.11c0.01,0.01,0.01,0.01,0.02,0.02
		C137.84,380.26,137.83,381.47,137.1,382.23z M137.81,335.26c-0.09,0.33-0.25,0.63-0.51,0.89l-0.11,0.11
		c-0.37-0.37-0.57-0.86-0.57-1.39c0-0.53,0.2-1.02,0.58-1.39l0.11-0.11C137.82,333.88,137.98,334.61,137.81,335.26z M171.92,243.94
		l-0.11,0.11c-0.37-0.37-0.57-0.86-0.57-1.39c0-0.53,0.2-1.02,0.58-1.39l0.11-0.11C172.69,241.94,172.69,243.18,171.92,243.94z
		 M170.49,193.65c-0.78,0.78-1.21,1.82-1.21,2.93c0,1.11,0.43,2.14,1.21,2.93l-15.53,15.53l-15.54-15.54l0.1-0.1
		c1.57-1.57,1.6-4.08,0.13-5.7c5.08-5.29,10.46-10.3,16.11-15l14.84,14.84L170.49,193.65z M135.45,198.2c0.2,0.48,0.5,0.92,0.87,1.3
		l-11.36,11.36C128.28,206.5,131.77,202.27,135.45,198.2z M118.03,220.53c0.17,0.76,0.54,1.45,1.1,2.02l-6.51,6.51
		c0.21-0.36,0.42-0.72,0.64-1.07c0.4-0.68,0.81-1.35,1.24-2.02c0.83-1.34,1.68-2.67,2.56-3.99
		C117.37,221.49,117.7,221.01,118.03,220.53z M99.31,255.67c0.01-0.01,0.01-0.03,0.01-0.04c0.45-1.09,0.9-2.17,1.37-3.25
		c0.46-1.09,0.94-2.17,1.43-3.25c0.01-0.03,0.02-0.06,0.04-0.09c0.16-0.37,0.34-0.73,0.51-1.09l0.81-0.81l15.54,15.54l-0.11,0.11
		c-0.78,0.78-1.21,1.82-1.21,2.93c0,1.11,0.43,2.14,1.21,2.93l-15.54,15.54l-10.41-10.41c0.05-0.18,0.1-0.35,0.16-0.53
		c0.14-0.51,0.29-1.01,0.45-1.51c0.28-0.93,0.58-1.87,0.9-2.79c0.06-0.22,0.14-0.43,0.21-0.65c0.09-0.29,0.18-0.57,0.28-0.85
		c0.05-0.17,0.11-0.33,0.16-0.5c0.07-0.21,0.15-0.42,0.22-0.63c0.1-0.3,0.22-0.6,0.32-0.9c0.57-1.64,1.16-3.28,1.77-4.9
		C98.03,258.89,98.66,257.28,99.31,255.67z M90.55,282.56c0.08-0.36,0.17-0.71,0.26-1.07c0.15-0.61,0.31-1.22,0.48-1.83
		c0.15-0.61,0.31-1.22,0.49-1.82c0.11-0.42,0.22-0.84,0.34-1.25c0.04-0.14,0.09-0.28,0.13-0.43l9.57,9.57l-0.11,0.11
		c-0.65,0.65-1.06,1.49-1.17,2.39c-0.01,0.04-0.01,0.08-0.02,0.13c0,0.05,0,0.1-0.01,0.14c-0.01,0.09-0.01,0.18-0.01,0.27v0
		c0,1.11,0.43,2.14,1.21,2.93l-15.54,15.54l-0.07-0.07c0.05-0.4,0.1-0.8,0.15-1.2c0.06-0.48,0.12-0.96,0.18-1.45
		c0.1-0.77,0.21-1.54,0.32-2.31v-0.03c0.02-0.17,0.04-0.34,0.07-0.51c0.02-0.18,0.05-0.35,0.08-0.53c0.11-0.81,0.24-1.61,0.37-2.42
		c0.08-0.51,0.16-1.03,0.25-1.54c0.03-0.21,0.07-0.43,0.11-0.64c0.15-0.88,0.31-1.75,0.48-2.62c0.15-0.82,0.29-1.64,0.45-2.46
		c0.32-1.68,0.68-3.35,1.06-5.01C89.91,285.15,90.22,283.85,90.55,282.56z M85.71,310.92c0.09-0.18,0.2-0.35,0.35-0.49l0.11-0.11
		c0.76,0.77,0.76,2.01,0,2.77l-0.11,0.11c-0.24-0.24-0.39-0.53-0.48-0.84C85.61,311.88,85.66,311.4,85.71,310.92z M86.06,316.29
		l15.54,15.54l-0.11,0.11c-0.28,0.28-0.52,0.6-0.71,0.95c-0.01,0.01-0.01,0.02-0.02,0.03c-0.01,0.01-0.01,0.03-0.02,0.04
		c-0.3,0.58-0.46,1.23-0.46,1.91c0,0.41,0.06,0.82,0.18,1.21c0.19,0.64,0.54,1.23,1.03,1.72l-7.83,7.83l-7.51,7.51
		c-0.01-0.11-0.03-0.22-0.04-0.33c-0.04-0.36-0.09-0.71-0.13-1.07c-0.05-0.52-0.12-1.04-0.17-1.56c-0.02-0.15-0.03-0.29-0.05-0.44
		c-0.02-0.23-0.04-0.46-0.06-0.69c-0.05-0.45-0.09-0.89-0.12-1.33c-0.03-0.29-0.05-0.58-0.08-0.87c-0.03-0.29-0.05-0.58-0.07-0.87
		c-0.05-0.58-0.1-1.16-0.13-1.75c-0.08-1.1-0.15-2.21-0.21-3.31c-0.01-0.03-0.01-0.05-0.01-0.08v-0.06
		c-0.1-1.67-0.16-3.34-0.21-5.03c0-0.09,0-0.17-0.01-0.26c-0.01-0.32-0.02-0.64-0.02-0.97c-0.02-0.66-0.03-1.32-0.04-1.99v-0.18
		c-0.01-0.39-0.02-0.78-0.01-1.18c-0.01-0.2-0.02-0.4-0.01-0.6c-0.01-0.2-0.01-0.4-0.01-0.6c0-0.84,0.01-1.69,0.03-2.52
		c0-0.77,0.01-1.53,0.04-2.28c-0.01-0.26,0-0.52,0.02-0.77c0.02-0.91,0.05-1.82,0.09-2.73c0.03-0.69,0.06-1.37,0.1-2.05
		c0.04-0.82,0.1-1.65,0.14-2.47L86.06,316.29z M101.37,377.93l-0.04,0.04l-0.07,0.07c-0.78,0.78-1.21,1.82-1.21,2.93
		c0,1.1,0.43,2.14,1.21,2.92l-6.89,6.89c-0.62-1.92-1.22-3.86-1.79-5.81c-0.31-1.08-0.62-2.16-0.91-3.25
		c-0.21-0.75-0.4-1.49-0.6-2.24c-0.03-0.11-0.05-0.22-0.08-0.33c-0.04-0.11-0.06-0.22-0.09-0.34c-0.03-0.11-0.06-0.22-0.09-0.33
		l-0.01,0.05c-0.13-0.51-0.25-1.02-0.37-1.54c-0.12-0.51-0.24-1.02-0.36-1.54c-0.11-0.47-0.22-0.94-0.33-1.42
		c-0.26-1.14-0.51-2.28-0.75-3.43c-0.17-0.78-0.33-1.57-0.49-2.36c-0.08-0.4-0.16-0.81-0.23-1.22c-0.1-0.55-0.21-1.11-0.31-1.66
		c-0.06-0.34-0.12-0.68-0.18-1.02L101.37,377.93z M113.52,414.73l6.25-6.25l15.54,15.54l-0.11,0.11c-0.78,0.78-1.21,1.82-1.21,2.93
		c0,1.1,0.43,2.14,1.21,2.93l-7.77,7.77l-3.18,3.18L121.2,444c-1.17-1.64-2.32-3.3-3.45-4.97c-0.43-0.64-0.85-1.28-1.27-1.93
		c-0.42-0.64-0.83-1.28-1.24-1.93c-0.42-0.65-0.82-1.3-1.23-1.96c-0.48-0.78-0.96-1.57-1.44-2.36c-0.31-0.53-0.62-1.06-0.93-1.59
		c-0.39-0.66-0.78-1.33-1.16-2s-0.76-1.34-1.13-2.01c-0.37-0.67-0.74-1.35-1.11-2.03c-0.38-0.7-0.75-1.39-1.11-2.09L113.52,414.73z
		 M136.75,431.53l15.54,15.54l-0.11,0.11c-0.78,0.78-1.21,1.82-1.21,2.93c0,1.11,0.43,2.14,1.21,2.93l-12.87,12.87
		c-0.01-0.01-0.02-0.02-0.04-0.04c-1.58-1.66-3.15-3.35-4.68-5.07c-0.51-0.58-1.01-1.15-1.51-1.72c-0.5-0.58-1-1.16-1.5-1.74
		c-0.99-1.17-1.97-2.34-2.93-3.53c-0.48-0.59-0.96-1.19-1.44-1.79c-0.93-1.19-1.86-2.38-2.77-3.58c-0.47-0.63-0.94-1.26-1.41-1.9
		c-0.18-0.25-0.36-0.5-0.55-0.75L136.75,431.53z M153.72,454.58l15.54,15.54l-0.11,0.11c-0.78,0.78-1.21,1.82-1.21,2.93
		c0,1.11,0.43,2.15,1.21,2.93l-8.84,8.84c-2.03-1.59-4.03-3.21-6-4.89l-0.04-0.04c-1.74-1.47-3.45-2.97-5.14-4.51
		c-0.01-0.02-0.02-0.03-0.03-0.03c-0.63-0.58-1.26-1.16-1.89-1.75c-0.62-0.59-1.25-1.18-1.87-1.77c-0.62-0.59-1.23-1.19-1.84-1.79
		c-0.62-0.6-1.23-1.21-1.83-1.82c-0.28-0.28-0.56-0.58-0.84-0.86L153.72,454.58z M153.59,357.92c0-0.52,0.2-1.02,0.58-1.39
		l0.11-0.11c0.05,0.05,0.09,0.09,0.13,0.14c0,0,0,0,0,0c0.2,0.25,0.34,0.54,0.4,0.84c0,0.01,0,0.01,0.01,0.02
		c0,0.02,0.01,0.05,0.01,0.07c0.09,0.6-0.09,1.23-0.55,1.69l-0.11,0.11C153.8,358.94,153.59,358.45,153.59,357.92z M155.7,360.85
		l0.11-0.11c1.61-1.61,1.62-4.24,0-5.86l2.41-2.42l1.3-1.3c-0.92,3.99-1.74,7.62-2.39,11.11L155.7,360.85z M154.28,353.34
		l-15.54-15.54l0.11-0.11c0.59-0.59,0.96-1.31,1.12-2.07c0.25-1.19-0.02-2.48-0.83-3.47c-0.01-0.01-0.02-0.03-0.04-0.04
		c-0.08-0.09-0.16-0.19-0.25-0.27l15.54-15.54l10.64,10.64c-0.51,1.8-0.99,3.67-1.42,5.64v0.05c-0.15,0.67-0.31,1.28-0.46,2
		c-0.92,4.71-1.84,8.84-2.69,12.55L154.28,353.34z M165.75,324.56l-9.81-9.81l0.11-0.11l0,0c1.61-1.61,1.62-4.24,0-5.86l15.54-15.54
		l4.35,4.35v0l1.82,1.82c-0.15,0.25-0.29,0.5-0.44,0.75c-2.45,4.19-5.01,8.64-7.41,13.75C168.4,317.15,166.98,320.66,165.75,324.56z
		 M175.94,294.5L175.94,294.5l-2.81-2.81l0.11-0.11c1.61-1.61,1.62-4.24,0-5.86l15.54-15.54l0.16,0.16
		c-0.55,3.03-1.13,5.68-1.71,7.93c-0.21,0.66-1.07,3.68-1.07,3.68c-1.88,5.58-4.32,10.35-7.28,15.5L175.94,294.5z M188.21,265.72
		c0-0.52,0.2-1.02,0.58-1.39l0.11-0.11c0.76,0.77,0.76,2.01,0,2.78l-0.11,0.11C188.41,266.74,188.21,266.24,188.21,265.72z
		 M188.44,219.62c0-0.53,0.2-1.02,0.58-1.39l0.1-0.1l0,0l0.01-0.01c0.76,0.77,0.76,2.01,0,2.77l-0.11,0.11
		C188.64,220.63,188.44,220.14,188.44,219.62z M190.55,222.54l0.11-0.11c1.61-1.61,1.62-4.24,0-5.85l5.64-5.64
		c-0.13,5.23-0.36,10.88-0.69,16.67L190.55,222.54z M188.65,173.53c0-0.53,0.2-1.02,0.58-1.39l0.11-0.11c0.76,0.77,0.76,2.01,0,2.77
		l-0.11,0.11C188.86,174.54,188.65,174.05,188.65,173.53z M192.1,177.78l-1.33-1.33l0.11-0.11c1.61-1.61,1.62-4.24,0-5.86l4.71-4.71
		l10.84-10.84l0.05,0.05c-1.15,1.2-2.22,2.49-3.19,3.93c-3.01,2.2-5.52,5.07-7.51,8.49C193.97,170.56,192.27,174.14,192.1,177.78z
		 M206.53,151.75l-0.11,0.11c-0.37-0.37-0.58-0.86-0.58-1.39c0-0.52,0.2-1.02,0.58-1.39l0.11-0.11l0,0
		C207.3,149.74,207.3,150.99,206.53,151.75z M204.88,153.4l-15.54,15.54l-8.18-8.18c0.4-0.24,0.79-0.48,1.19-0.71
		c0.66-0.39,1.32-0.77,1.98-1.14c1.37-0.79,2.75-1.55,4.14-2.29c0.21-0.12,0.42-0.23,0.63-0.34c0.56-0.3,1.12-0.6,1.69-0.89
		c0.77-0.4,1.55-0.8,2.33-1.19c0.8-0.41,1.61-0.81,2.42-1.2c0.69-0.34,1.39-0.68,2.09-1c0.81-0.38,1.61-0.76,2.43-1.13
		c1.12-0.52,2.25-1.02,3.38-1.5c0.15-0.07,0.3-0.13,0.45-0.2c-0.14,0.42-0.23,0.85-0.23,1.3
		C203.67,151.58,204.1,152.62,204.88,153.4z M178.04,162.66c0.33-0.2,0.67-0.41,1.01-0.62c0.06-0.04,0.12-0.07,0.18-0.11l8.56,8.56
		l-0.11,0.11c-0.78,0.78-1.21,1.82-1.21,2.93c0,1.1,0.43,2.14,1.21,2.93l-11.75,11.75v0l-3.8,3.8l-14.42-14.42
		c4.21,0.35,7.94,0.46,10.85,0.46c4.71,0,11.04-0.46,11.16-0.47v-6.36l-2.65-0.64c-2.23-0.67-4.52-1.6-6.88-2.8
		c0.5-0.36,1.01-0.71,1.52-1.05c0.33-0.22,0.65-0.43,0.98-0.65c1.04-0.7,2.09-1.38,3.15-2.05
		C176.57,163.57,177.31,163.11,178.04,162.66z M79.6,396.06l-9.82,11.22l8.68-2.78l-0.6-2.03l7.55-2.41l4.24,13.22l-7.56,2.46
		l-0.65-2.04L63,419.62l0.64,2l-7.52,2.42l-3.46-10.81l10.47-11.9l-15.44-3.59l-3.46-10.8l7.53-2.41l0.64,2.02l18.45-5.94
		l-0.65-1.99l7.56-2.43l4.26,13.22l-7.56,2.43l-0.67-1.99l-8.7,2.8L79.6,396.06z M110.34,464.61l1.33-1.02l-1.27-1.69l6.37-4.77
		l8.33,11.13l-6.37,4.76l-1.25-1.67l-15.5,11.58l1.26,1.69l-6.33,4.73l-8.33-11.12l6.33-4.75l1.29,1.68l3.96-2.98l-7-1.03l0.55,0.75
		l-6.3,4.76l-10.03-13.43l6.32-4.75l1.74,2.36l13.37,1.94l2-13.75l-1.61-2.13l6.36-4.75l10.01,13.42l-6.33,4.74l-0.61-0.79
		l-0.64,4.77L110.34,464.61z M151.03,502.17l-1.26,1.72l-6.39-4.67l5.9-8.14l21.09,15.38l-4.68,6.4l-1.71-1.24l-11.41,15.63
		l1.73,1.25l-4.69,6.38l-11.21-8.18l4.65-6.38l1.71,1.21l11.41-15.61L151.03,502.17z M127.84,508.85l1.52,1.49l-5.52,5.63
		l-9.95-9.68l5.5-5.67l1.51,1.46l12.76-13.07l-0.07-1.55l-3.68-3.62l-1.54,0.04l-12.76,13.07l1.51,1.5l-5.52,5.62l-9.95-9.69
		l5.49-5.65l1.56,1.47l15.11-15.52l7.94-0.14l11.11,10.84l0.09,7.94L127.84,508.85z M99.13,442.39l-19.15,10.09l0.98,1.88
		l-7.01,3.71l-6.46-12.31l6.97-3.68l1.01,1.86l16.14-8.53l0.45-1.51l-2.41-4.54l-1.49-0.49l-16.15,8.54l1,1.85L66,442.94l-6.46-12.3
		l6.99-3.67l0.96,1.85l19.18-10.08l7.62,2.32l7.2,13.74L99.13,442.39z M69.59,375.99l-0.26-2.07l-20.18-5.23l0.19,1.48l-7.85,1.03
		l-2.36-18.57l7.81-1.01l0.23,1.78l18.25-10.14l-0.29-2.09l7.88-1.02l1.74,13.44l-7.91,0.98l-0.12-1.13l-1.56,0.7l1.21,9.28
		l1.66,0.34l-0.12-1.12l7.85-1.02l1.71,13.36L69.59,375.99z M66.3,306.13l0.09-2.1l7.94,0.34l-0.58,13.48l-7.94-0.33l0.07-1.14
		l-1.62,0.44l-0.42,9.33l1.58,0.64l0.07-1.16l7.91,0.33l-0.55,13.5l-7.98-0.34l0.13-2.13l-19.02-8.54l-0.06,1.5l-7.89-0.34
		l0.78-18.7l7.91,0.33l-0.09,1.8L66.3,306.13z M74.53,303.56l-7.78-1.54l0.41-2.09l-18.98-3.81l-0.42,2.06l-7.72-1.55l4.29-21.38
		l6.59-4.41l23.51,4.73l4.39,6.63L74.53,303.56z M72.78,272.38l0.68-1.99l-18.28-6.37l-0.68,1.99l-7.49-2.57l4.59-13.12l7.46,2.57
		l-0.72,1.99l18.32,6.36l2.07-5.99l-2.01-0.72l2.62-7.5l9.49,3.3l-8.55,24.64L72.78,272.38z M84.87,244.93l-19.26-9.96l-0.97,1.87
		l-7.03-3.64L64,220.86l7.01,3.64l-0.97,1.86l16.24,8.41l1.49-0.53l2.35-4.55l-0.45-1.51l-16.21-8.4l-0.97,1.9l-7.04-3.62l6.4-12.36
		l7.01,3.63l-0.98,1.87l19.28,9.98l2.39,7.56l-7.1,13.79L84.87,244.93z M99.3,217.33l-5.5-3.95l5.63-7.86l2.74,1.97l1.55-0.29
		l3.01-4.19l-0.26-1.52l-2.75-1.97l-1.55,0.22l-6.07,8.4l-7.81,1.29l-8.47-6.09l-1.29-7.82l9.07-12.61l7.82-1.27l5.65,4.03
		l-5.65,7.85l-2.88-2.03l-1.55,0.22l-3,4.2l0.27,1.6l2.86,2.05l1.62-0.26l6.01-8.36l7.85-1.31l8.29,6l1.3,7.8l-9.05,12.64
		L99.3,217.33z M514.91,428.59c-12.79,30.22-31.04,57.31-54.3,80.53c-14.37,14.36-30.17,26.84-47.35,37.27
		c-1.53,0.97-3.06,1.84-4.6,2.71c0.66,3.06,1.34,6.07,2.01,8.97c0.61,2.6,1.2,5.11,1.77,7.5c1.94,8.15,3.63,15.16,4.11,19.49
		l0.09,0.82c0.97,9.15,4.66,26.89,7.11,38.65l1.61,7.71l0.23,1.12l-4.54-1.64l-0.02-0.01l-0.79-0.28c0.02,0.07,0.03,0.14,0.04,0.2
		c0.16,0.76,0.3,1.47,0.43,2.13c2.13,10.52-29.12,5.9-47.3,6.3c-9.65,0.23-11.79-3.47-12.13-8.01l-4.96,1.53l0.28-5.95v-0.01
		l0.04-0.83c0.05-0.95,0.12-2.22,0.05-3.26c-0.01-0.14-0.02-0.28-0.03-0.41c-0.01-0.03,0-0.06,0-0.09
		c-0.05-0.38-0.13-0.69-0.24-0.93c-1.78-4.01-7.05-8.67-11.27-12.43c-1.56-1.37-3.04-2.68-4.3-3.91c-2.48-0.95-14.63-2.4-37.91-2.4
		c-21.73,0-36.17,1.29-38.24,2.2c-2.16,0.97-4.81,12.9-5.77,17.37c-0.35,1.53-0.69,3.02-1.02,4.45c-0.44,1.88-0.88,3.67-1.38,5.32
		l-0.87,2.98l-3.03,0.42c-0.89,0.13-1.8,0.24-2.7,0.34c-0.23,0.42-0.47,0.78-0.73,1.1c-5.03,6.35-57,1.27-63.33,0.43
		c-6.36-0.84-10.14,0.43-6.77-3.82c0.48-0.59,1.09-1.25,1.8-1.95c2.25-2.24,5.44-4.97,8.05-7.57l-3.91-1.82l3.29-4.68
		c0.26-0.37,0.39-0.59,0.45-0.71c0.26-3.41-0.73-14.55-3.74-29.2c-1.26-6.03,0.12-10.42,1.21-13.92h0.01c0-0.01,0-0.01,0-0.02
		c0.33-1.1,0.65-2.12,0.87-3.08c0.23-1.01,0.56-2.01,0.92-3.08c0.23-0.72,0.47-1.48,0.71-2.3c-1.99-0.77-3.93-1.59-5.93-2.41
		c-0.15-0.05-0.3-0.15-0.46-0.2c-6.08-2.61-12.06-5.42-17.84-8.44c-3.32-1.74-6.6-3.52-9.82-5.42
		c-19.07-10.99-36.6-24.44-52.35-40.23c-23.27-23.22-41.57-50.31-54.3-80.53c-13.24-31.24-19.94-64.42-19.94-98.62
		c0-34.21,6.7-67.39,19.94-98.63c8.18-19.43,18.73-37.6,31.37-54.25c1.82,0.24,3.65,0.41,5.49,0.52
		c-13.24,16.99-24.11,35.59-32.57,55.52c-12.98,30.73-19.58,63.3-19.58,96.84c0,33.53,6.6,66.1,19.58,96.83
		c12.53,29.6,30.43,56.19,53.28,78.99c14.93,14.93,31.44,27.76,49.34,38.35c6.49,3.83,13.14,7.41,19.99,10.63
		c2.71,1.28,5.42,2.51,8.18,3.68c0.51,0.26,0.97,0.46,1.48,0.67c1.69,0.71,3.38,1.43,5.11,2.1c0.01,0,0.02,0.01,0.03,0.01
		c0.4-2.71,0.56-6.11,0.19-10.62c-0.21-2.36-0.16-4.63,0.07-6.85c-0.24,0.01-0.47,0.02-0.69,0.04l-0.97,0.08l-0.09-1.01
		c-0.87-10.35-1.73-21.43-2.17-32.17c-2.04-1.07-4.09-2.2-6.08-3.37c-0.31-0.16-0.66-0.36-0.97-0.51c-0.41-0.26-0.87-0.52-1.28-0.77
		c-7.16-4.24-14.06-8.9-20.71-14.01c-1.84-1.43-3.63-2.86-5.42-4.4c-5.01-4.14-9.91-8.54-14.57-13.24
		c-0.97-0.97-1.89-1.94-2.81-2.91c-3.17-3.22-6.19-6.6-9.05-10.02c-4.86-5.68-9.3-11.61-13.44-17.75
		c-5.07-7.56-9.62-15.33-13.66-23.46v-0.05c-3.06-6.19-5.82-12.58-8.23-19.13c-8.33-22.44-12.68-46.47-12.68-71.11
		c0-54.56,21.27-105.84,59.87-144.44c3.21-3.25,6.52-6.34,9.93-9.32c1.45,0.26,2.88,0.48,4.27,0.67c-4.08,3.5-8.06,7.17-11.9,11
		c-37.93,37.94-58.84,88.45-58.84,142.09c0,21.42,3.32,42.33,9.71,62.12v0.05c2.2,6.64,4.7,13.19,7.57,19.53v0.05
		c4.04,9.1,8.74,17.84,14.21,26.28v0.05c3.94,6.19,8.28,12.22,12.94,18v0.05c3.06,3.73,6.18,7.31,9.45,10.84
		c1.64,1.73,3.28,3.42,4.96,5.11c3.89,3.88,7.93,7.62,12.07,11.14c1.89,1.64,3.83,3.23,5.78,4.81c6.54,5.11,13.34,9.82,20.4,14.06
		c0.46,0.31,0.87,0.56,1.33,0.82c0.41,0.25,0.81,0.51,1.22,0.71c1.9,1.13,3.84,2.2,5.78,3.28c-0.05-1.66-0.09-3.32-0.11-4.95v-0.01
		c-0.02-1.06-0.03-2.11-0.04-3.15l0,0c-0.01-1.72-0.01-3.41,0.01-5.08c0-0.3,0.01-0.6,0.02-0.89l0,0c0.02-1.01,0.04-2.01,0.08-3
		c0.1-2.98,0.26-5.86,0.49-8.62c0.45-4.98,1.09-10.34,1.74-15.57c0.51-4.18,1.03-8.4,1.42-12.4c0,0,0,0,0,0l0,0
		c0.01-0.11,0.02-0.21,0.03-0.32l0,0c0,0,0,0,0-0.01c0.09-0.89,0.17-1.76,0.24-2.62c0,0,0,0,0-0.01c0.07-0.86,0.14-1.71,0.2-2.54
		c0,0,0,0,0,0l0,0c0.06-0.91,0.11-1.81,0.16-2.68c0-0.08,0.01-0.16,0.01-0.23c0.02-0.5,0.04-0.99,0.05-1.48c0,0,0,0,0-0.01l0,0
		c0.16-5.76-0.31-10.33-1.98-12.56c-0.88-1.16-2.07-2.61-3.45-4.29c-1.91-2.28-4.18-5.02-6.53-8.13l0,0
		c-0.44-0.58-0.87-1.17-1.31-1.77l0,0c-5.25-7.22-10.56-16.25-12.75-26.41c-0.05-0.23-0.11-0.46-0.16-0.7l0,0
		c-0.01-0.03-0.01-0.05-0.02-0.08c-1.41-7.04-1.67-12.69-1.19-18.26c0.08-0.93,0.18-1.86,0.29-2.79l0,0
		c0.63-4.98,1.8-10.07,3.21-16.22c0.84-3.55,1.76-7.46,2.7-11.93c0.13-0.61,0.26-1.24,0.39-1.87c0.17-0.82,0.34-1.65,0.5-2.51
		c0.19-0.99,0.4-1.95,0.62-2.89c0.01-0.05,0.02-0.09,0.03-0.14c0.21-0.9,0.43-1.79,0.66-2.66l0,0c2.84-10.69,7.14-18.41,11.43-25.74
		l0,0c0.23-0.4,0.47-0.8,0.7-1.2c0.15-0.25,0.29-0.5,0.44-0.75l0,0c3.65-6.24,7.07-12.26,9.42-19.81l-0.11-0.09l0.2-0.66
		c0.22-0.67,0.41-1.36,0.58-2.03c1.03-3.78,1.97-8.62,2.84-14.33l0.22-1.56l1.33,0.87c0.19,0.13,0.39,0.26,0.6,0.4
		c0.59-3.95,1.12-8.19,1.6-12.58l0,0c0,0,0,0,0-0.01c0.12-1.13,0.24-2.28,0.36-3.43c0,0,0,0,0,0l0,0c0.4-4,0.75-8.09,1.05-12.18l0,0
		c0,0,0,0,0,0c0.07-0.96,0.14-1.91,0.2-2.86c0,0,0-0.01,0-0.01l0,0c0.74-10.8,1.14-21.45,1.19-30.19l0,0c0,0,0,0,0,0
		c0.01-1.06,0.01-2.08,0-3.08c0,0,0,0,0,0l0,0c-0.01-2.83-0.07-5.42-0.16-7.68c-0.02-0.45-0.02-0.86-0.04-1.28
		c-0.03-1.09-0.05-2.14-0.06-3.14c-0.01-1.72,0-3.31,0.04-4.78c-5.46-2.91-5.11-6.77-1.2-13.61c2.04-3.51,4.49-5.76,6.72-7.2
		c0.77-1.26,1.63-2.39,2.58-3.44l0,0c0.49-0.54,1-1.06,1.53-1.55l0,0c5.65-5.23,13.73-7.8,22.99-10.2c1.17-0.3,2.18-0.6,3.08-0.89
		l0,0c0,0,0,0,0,0c2.2-0.72,3.69-1.41,4.86-2.07c0,0,0.01,0,0.01-0.01c0.14-0.08,0.28-0.16,0.41-0.24c0.01-0.01,0.02-0.01,0.04-0.02
		c0.12-0.07,0.24-0.15,0.35-0.22c0.02-0.02,0.05-0.03,0.07-0.05c0.1-0.06,0.2-0.13,0.3-0.19c0.04-0.03,0.08-0.05,0.11-0.07
		c0.08-0.05,0.16-0.1,0.24-0.16c0.07-0.05,0.14-0.09,0.2-0.14c0.04-0.03,0.08-0.05,0.11-0.08c0.37-0.25,0.72-0.5,1.09-0.75
		c1.45-0.97,3.07-1.88,6.42-2.72c4.53-1.14,9.03-0.88,13.24-0.01l0,0c1.41,0.29,2.79,0.65,4.13,1.05c2.36,0.71,4.58,1.53,6.63,2.33
		l0,0c0.76,0.3,1.49,0.58,2.2,0.86c3.93,1.55,7.04,2.71,8.87,2.1c2.67-0.89,7-4.49,12.1-6.58l0,0c0.74-0.3,1.51-0.57,2.28-0.8
		c3.84-1.12,8.02-1.12,12.22,1.6c0.14,0.09,0.28,0.17,0.43,0.27c0.34,0.24,0.66,0.48,0.97,0.74l0,0c6.05,5.13,4.65,14.12,2.86,19.94
		l0,0c-0.13,0.42-0.26,0.82-0.39,1.2c0,0.01,0,0.01-0.01,0.02c-0.13,0.38-0.26,0.74-0.38,1.08l0,0c-0.74,1.98-1.36,3.24-1.36,3.24
		s3.36,5.14,7.96,11.69c0,0.01,0.01,0.01,0.01,0.02l0,0c1.72,2.44,3.6,5.07,5.55,7.7c2.56,3.47,5.45,8.83,8.52,15.17
		c0.33,0.68,0.66,1.37,0.99,2.06c3.98,8.35,8.25,18.14,12.51,27.49c0,0.01,0.01,0.02,0.01,0.02l0,0c1.01,2.22,2.03,4.42,3.04,6.56
		l0.37-0.39l0.65,1.32c2.57,5.36,5.82,10.52,9.53,15.86l0,0c0,0,0,0,0,0c2.51,3.61,5.23,7.31,8.12,11.23
		c2.71,3.65,5.63,7.61,8.71,11.95l0,0c0.42,0.6,0.85,1.19,1.28,1.8c4.55,6.48,9.45,13.85,14.54,22.41c0.38,0.64,0.76,1.28,1.14,1.93
		c1.16,1.98,2.34,4.02,3.52,6.14c3.84,6.88,6.51,13.19,8.3,18.99l0,0c0.25,0.81,0.48,1.6,0.7,2.39l0,0
		c0.02,0.09,0.05,0.17,0.07,0.26l0,0c0.16,0.59,0.31,1.18,0.46,1.77c0.04,0.17,0.08,0.34,0.12,0.5c0.12,0.5,0.24,1,0.34,1.49
		c0.28,1.34,0.52,2.64,0.71,3.91l0,0c0.08,0.54,0.15,1.07,0.22,1.61c0.01,0.11,0.03,0.22,0.04,0.33c0.06,0.53,0.12,1.06,0.17,1.58
		c0.26,2.77,0.33,5.39,0.23,7.87c0.01,0.04,0,0.08,0,0.11c-0.25,11.03-3.63,19.17-5.86,25.01c-0.02,0.05-0.04,0.11-0.06,0.16
		c-0.42,1.11-0.81,2.15-1.11,3.09c-1.36,4.27-3.41,7.37-5.13,11.36c-0.01,0.03-0.02,0.06-0.04,0.08c-0.16,0.38-0.32,0.77-0.48,1.17
		c0,0.01-0.01,0.02-0.01,0.04c-1.34,3.44-2.37,7.62-2.53,13.69c-0.01,0.08-0.01,0.16-0.01,0.24c-0.01,1.79,0.05,3.74,0.2,5.88l0,0
		c0,0,0,0,0,0c0.04,0.53,0.08,1.08,0.13,1.64c0,0.01,0,0.01,0,0.02c0.05,0.56,0.1,1.12,0.16,1.7c0,0.01,0,0.01,0,0.02l0,0
		c0.14,1.41,0.32,2.88,0.53,4.44c0.58,4.2,1.22,8.66,1.9,13.36c0.13,0.9,0.26,1.82,0.4,2.74l0,0c0.13,0.9,0.26,1.78,0.39,2.69l0,0
		c1.24,8.63,2.52,17.79,3.57,26.81l0,0c0.14,1.16,0.27,2.32,0.4,3.47c0.11,0.96,0.2,1.92,0.3,2.87c0,0,0,0,0,0
		c0.13,1.26,0.26,2.51,0.38,3.75c0,0,0,0,0,0c0.04,0.38,0.07,0.75,0.1,1.13l0,0c0.09,0.95,0.17,1.9,0.25,2.83l0,0
		c0.03,0.35,0.07,0.71,0.09,1.05c0,0.01,0,0.01,0,0.01c0.14,1.76,0.27,3.5,0.37,5.21c0.01,0,0.01,0,0.02,0
		c1.59-1.33,3.12-2.66,4.65-3.99c3.53-3.07,6.96-6.29,10.28-9.61c0.61-0.61,1.23-1.23,1.84-1.84c3.53-3.68,6.95-7.42,10.23-11.3
		c4.7-5.63,9.1-11.45,13.14-17.54c5.67-8.38,10.63-17.23,14.87-26.33c2.97-6.24,5.58-12.63,7.83-19.17
		c7.21-20.91,10.99-43.1,10.99-65.9c0-53.64-20.91-104.15-58.9-142.09c-37.94-37.93-88.4-58.85-142.08-58.85
		c-41.92,0-81.84,12.75-115.41,36.42c-0.99-0.61-2-1.26-3.02-1.97c34.3-24.55,75.37-37.77,118.43-37.77
		c54.6,0,105.88,21.22,144.43,59.82c38.6,38.6,59.82,89.88,59.82,144.44c0,25.87-4.8,51.02-13.9,74.39
		c-2.51,6.44-5.32,12.73-8.49,18.81c-4.25,8.23-9,16.16-14.37,23.78c-4.19,5.98-8.69,11.75-13.55,17.28
		c-3.07,3.47-6.24,6.9-9.51,10.17c-0.1,0.1-0.2,0.21-0.3,0.31c-3.89,3.88-7.93,7.62-12.07,11.14c-1.53,1.33-3.12,2.61-4.7,3.84
		c0,0,0,0.01-0.01,0.02v0.01c0.11,2.37,0.18,4.68,0.2,6.91c0.01,0.44,0.01,0.87,0.01,1.3c0,4.03-0.16,7.78-0.54,11.13
		c-0.48,4.1-0.73,9.09-0.75,14.93c0,0.17-0.01,0.35,0,0.52c-0.01,0.03-0.01,0.07,0,0.1c-0.01,0.32-0.01,0.64-0.01,0.97
		c0,0.47,0,0.94,0.01,1.41c0,0.42,0.01,0.84,0.01,1.27s0.02,0.88,0.02,1.32c0.03,3.07,0.12,6.22,0.24,9.4
		c0.07,1.66,0.14,3.33,0.23,4.99c1.63-0.92,3.2-1.89,4.78-2.9c16-9.97,30.78-21.73,44.33-35.28c22.8-22.8,40.74-49.39,53.27-78.99
		c12.99-30.73,19.58-63.3,19.58-96.83c0-33.54-6.59-66.16-19.58-96.84c-12.53-29.6-30.47-56.19-53.27-78.99
		c-22.86-22.86-49.39-40.8-79.05-53.28C347.62,87.88,315,81.28,281.46,81.28c-33.54,0-66.11,6.6-96.84,19.58
		c-2.32,1-4.64,2-6.94,3.08c0.31-1.82,0.56-3.64,0.76-5.46c1.46-0.65,2.93-1.29,4.39-1.91c31.29-13.24,64.47-19.94,98.63-19.94
		c34.15,0,67.38,6.7,98.62,19.94c30.22,12.73,57.32,30.98,80.53,54.24c23.26,23.27,41.51,50.37,54.3,80.53
		c13.19,31.24,19.94,64.42,19.94,98.63C534.85,364.17,528.1,397.35,514.91,428.59z M317.81,136.65l-0.01-0.01
		c-0.73-0.14-1.47-0.27-2.21-0.4c0,0,0,0-0.01-0.01c0.74,0.13,1.47,0.26,2.21,0.4c0.14,0.03,0.29,0.06,0.43,0.08l-0.14,0.14
		C317.99,136.78,317.91,136.71,317.81,136.65z M326.3,138.42c0.26,0.05,0.51,0.11,0.76,0.17c0.26,0.06,0.51,0.12,0.77,0.19
		c0.14,0.03,0.29,0.06,0.44,0.1c0.04,0.01,0.09,0.02,0.13,0.03l0.01,0.01c0.04,0.01,0.09,0.02,0.13,0.03
		c2.12,0.52,4.22,1.08,6.3,1.67l6.82,6.82l-0.11,0.11c-0.78,0.78-1.21,1.82-1.21,2.93c0,1.11,0.43,2.14,1.21,2.93l-15.54,15.54
		l-3.12-3.12c2.84-7.72,4.33-18.4-1.49-25.79c-0.48-0.61-1.02-1.22-1.62-1.79l1.02-1.02c1.69,0.34,3.38,0.69,5.05,1.08
		c0.04,0.01,0.07,0.02,0.11,0.03c0.11,0.02,0.23,0.05,0.34,0.07C326.3,138.41,326.3,138.42,326.3,138.42z M414.95,323.88
		c-1.94-5.32-4.45-10.79-7.57-16.36c-1.33-2.4-2.64-4.71-3.95-6.95l7.33-7.33l15.54,15.54l-0.11,0.11
		c-0.78,0.78-1.21,1.82-1.21,2.93c0,1.11,0.43,2.14,1.21,2.93l-10.7,10.7C415.31,324.93,415.14,324.4,414.95,323.88z M393.22,284.36
		c-0.87-1.38-1.79-2.71-2.71-3.99c-0.95-1.4-1.89-2.76-2.82-4.09l6.09-6.09l15.54,15.54l-0.11,0.11c-0.78,0.78-1.21,1.82-1.21,2.93
		c0,1.11,0.43,2.15,1.21,2.93l-6.93,6.93C399.2,293.44,396.17,288.69,393.22,284.36z M352.17,219.07
		c-2.47-5.54-4.89-10.96-7.23-15.95l13.47,13.47l-0.1,0.1c-0.78,0.78-1.21,1.82-1.21,2.93c0,1.1,0.43,2.14,1.21,2.93l-3.13,3.13
		C354.18,223.47,353.19,221.25,352.17,219.07z M327.55,170.49l12.9-12.9l2.64-2.64l15.54,15.54l-0.11,0.11
		c-0.78,0.78-1.21,1.82-1.21,2.93c0,1.1,0.43,2.14,1.21,2.93L342.98,192l-9.55-9.55c-1.8-2.45-3.54-4.9-5.13-7.17
		C329.08,173.72,328.84,171.79,327.55,170.49z M342.52,150.47c0-0.52,0.2-1.02,0.58-1.39l0.11-0.11c0.76,0.77,0.76,2.01,0,2.78
		l-0.11,0.11C342.72,151.49,342.52,151,342.52,150.47z M360.06,178l15.54,15.54l-0.11,0.11c-0.78,0.78-1.21,1.82-1.21,2.93
		c0,1.1,0.43,2.14,1.21,2.92l-15.54,15.54l-15.54-15.54l0.1-0.1c1.61-1.61,1.61-4.24,0-5.86L360.06,178z M359.49,173.53
		c0-0.53,0.21-1.02,0.58-1.39l0.11-0.11c0.76,0.77,0.76,2.01,0,2.78l-0.11,0.11C359.69,174.54,359.49,174.05,359.49,173.53z
		 M377.03,201.04l15.54,15.54l-0.1,0.1c-0.78,0.78-1.21,1.82-1.21,2.93c0,1.1,0.43,2.14,1.21,2.93l-15.54,15.54l-15.54-15.54
		l0.11-0.11c1.61-1.61,1.62-4.24,0-5.85L377.03,201.04z M376.46,196.58c0-0.52,0.2-1.02,0.57-1.39l0.11-0.11
		c0.76,0.77,0.76,2.01,0,2.78l-0.1,0.1l0,0l-0.01,0.01C376.67,197.59,376.46,197.1,376.46,196.58z M378.69,193.54L394.23,178
		l15.54,15.54l-0.11,0.11c-0.78,0.78-1.21,1.82-1.21,2.93c0,1.11,0.43,2.15,1.21,2.93l-15.53,15.53l-15.54-15.54l0.1-0.1
		C380.3,197.78,380.3,195.16,378.69,193.54z M393.66,173.53c0-0.53,0.2-1.02,0.58-1.39l0.11-0.11c0.76,0.77,0.76,2.01,0,2.77
		l-0.11,0.11C393.86,174.54,393.66,174.05,393.66,173.53z M411.2,201.05l15.54,15.54l-0.1,0.1c-0.78,0.78-1.21,1.82-1.21,2.93
		c0,1.11,0.43,2.14,1.21,2.93l-15.54,15.54l-7.77-7.77l-7.77-7.77l0.11-0.11c1.61-1.61,1.62-4.24,0-5.85L411.2,201.05z
		 M410.63,196.58c0-0.52,0.2-1.02,0.58-1.39l0.11-0.11l0,0c0.76,0.77,0.76,2.01,0,2.78l-0.1,0.1l0,0l-0.01,0.01
		C410.83,197.59,410.63,197.1,410.63,196.58z M428.18,224.09l15.54,15.54l-0.11,0.11c-0.78,0.78-1.21,1.82-1.21,2.93
		c0,1.11,0.43,2.14,1.21,2.93l-1.83,1.83l-13.71,13.71l-15.54-15.54l0.11-0.11c1.61-1.61,1.62-4.24,0-5.86L428.18,224.09z
		 M427.6,219.62c0-0.53,0.2-1.02,0.58-1.39l0.1-0.1l0,0l0.01-0.01c0.76,0.77,0.76,2.01,0,2.78l-0.11,0.11l0,0v0
		C427.81,220.63,427.6,220.14,427.6,219.62z M445.15,247.14l15.54,15.54l-0.11,0.11c-0.78,0.78-1.21,1.82-1.21,2.93
		c0,1.11,0.43,2.14,1.21,2.93l-15.54,15.54l-15.54-15.54l0.11-0.11c1.61-1.62,1.61-4.24,0-5.86l7.87-7.87L445.15,247.14z
		 M444.58,242.67c0-0.53,0.2-1.02,0.58-1.39l0.11-0.11l0,0v0c0.76,0.77,0.76,2.01,0,2.78l-0.11,0.11
		C444.78,243.68,444.58,243.19,444.58,242.67z M461.89,316.29l15.55,15.55l-0.11,0.11c-0.78,0.78-1.21,1.82-1.21,2.93
		c0,1.1,0.43,2.14,1.21,2.92l-15.54,15.55l-15.54-15.54l0.11-0.11c1.61-1.61,1.62-4.24,0-5.86L461.89,316.29z M461.32,311.82
		c0-0.53,0.21-1.02,0.58-1.39l0.11-0.11c0.76,0.77,0.76,2.01,0,2.78l-0.11,0.11l0,0l0,0C461.53,312.83,461.32,312.34,461.32,311.82z
		 M461.78,359.2l-0.11,0.11l0,0v0c-0.37-0.37-0.57-0.86-0.57-1.39c0-0.52,0.2-1.02,0.58-1.39l0.11-0.11
		C462.54,357.19,462.54,358.43,461.78,359.2z M460.13,360.85l-15.54,15.54l-15.54-15.54l0.11-0.11c1.62-1.62,1.62-4.24,0-5.86
		l15.54-15.54l15.54,15.54l-0.11,0.11c-0.78,0.78-1.21,1.82-1.21,2.93C458.92,359.03,459.35,360.07,460.13,360.85z M459.91,406.94
		l-15.54,15.54l-15.54-15.54l0.11-0.11c1.61-1.61,1.61-4.24,0-5.86l15.53-15.53l15.54,15.54l-0.1,0.1
		c-0.78,0.78-1.21,1.82-1.21,2.93C458.7,405.12,459.13,406.16,459.91,406.94z M444.37,428.34l-0.11,0.11
		c-0.37-0.37-0.57-0.86-0.57-1.39c0-0.53,0.2-1.02,0.58-1.39l0.11-0.11C445.13,426.33,445.13,427.57,444.37,428.34z M442.71,429.99
		l-6.37,6.37l-9.17,9.17l-15.54-15.54l0.11-0.11c1.61-1.61,1.61-4.24,0-5.86l15.54-15.54l2.42,2.42l13.12,13.12l-0.11,0.11
		c-0.78,0.78-1.21,1.82-1.21,2.93C441.5,428.17,441.93,429.21,442.71,429.99z M427.17,451.39l-0.11,0.11l0,0l0,0
		c-0.37-0.37-0.57-0.86-0.57-1.39c0-0.53,0.2-1.02,0.58-1.39l0.11-0.11C427.94,449.38,427.94,450.63,427.17,451.39z M410.2,422.48
		l-5.1-5.1c-0.49-3.77-0.78-7.14-0.78-10.11c0-9.25,2.09-13.34,4.5-18.1c0.58-1.13,1.15-2.29,1.71-3.5l15.32,15.32l-0.1,0.1
		c-0.78,0.78-1.21,1.82-1.21,2.93c0,1.11,0.43,2.14,1.21,2.93L410.2,422.48z M410.2,428.34l-0.11,0.11
		c-0.37-0.37-0.57-0.86-0.57-1.39c0-0.53,0.2-1.02,0.58-1.39l0.11-0.11C410.97,426.33,410.97,427.57,410.2,428.34z M427.5,362.39
		l15.54,15.54l-0.11,0.11c-0.78,0.78-1.21,1.82-1.21,2.93c0,1.1,0.43,2.14,1.21,2.93l-15.53,15.53l-15.54-15.54l0.1-0.1
		c1.19-1.19,1.49-2.92,0.94-4.39c0.24-0.71,0.53-1.43,0.83-2.19c0.2-0.52,0.41-1.08,0.62-1.66L427.5,362.39z M426.93,357.92
		c0-0.52,0.21-1.02,0.58-1.39l0.11-0.11c0.76,0.77,0.76,2.01,0,2.78l-0.11,0.11l0,0l0,0C427.13,358.94,426.93,358.45,426.93,357.92z
		 M427.4,405.29l-0.11,0.11l0,0v0c-0.37-0.37-0.57-0.86-0.57-1.39c0-0.52,0.2-1.02,0.58-1.39l0.1-0.1l0,0l0.01-0.01
		C428.16,403.28,428.16,404.52,427.4,405.29z M444.58,382.25l-0.1,0.1l0,0l-0.01,0.01c-0.37-0.37-0.57-0.86-0.57-1.39
		c0-0.52,0.2-1.02,0.58-1.39l0.11-0.11h0h0C445.35,380.24,445.35,381.48,444.58,382.25z M444.81,333.37c0.76,0.77,0.76,2.01,0,2.78
		l-0.11,0.11c-0.37-0.37-0.57-0.86-0.57-1.39c0-0.53,0.2-1.02,0.58-1.39L444.81,333.37L444.81,333.37L444.81,333.37z M460.36,308.89
		c-0.78,0.78-1.21,1.82-1.21,2.93c0,1.11,0.43,2.14,1.21,2.93l-15.54,15.54l-15.54-15.54l0.11-0.11c1.62-1.62,1.62-4.24,0-5.86
		l15.54-15.54l15.54,15.54L460.36,308.89z M427.84,307.24L412.3,291.7l0.11-0.11c1.61-1.61,1.62-4.24,0-5.86l15.54-15.54
		l15.54,15.54l-0.11,0.11c-0.78,0.78-1.21,1.82-1.21,2.93c0,1.11,0.43,2.15,1.21,2.93L427.84,307.24z M427.84,313.1l-0.11,0.11l0,0
		l0,0c-0.37-0.37-0.57-0.86-0.57-1.39c0-0.53,0.2-1.02,0.58-1.39l0.11-0.11C428.61,311.08,428.61,312.33,427.84,313.1z
		 M410.87,284.19l-15.54-15.54l0.11-0.11c1.61-1.61,1.61-4.24,0-5.86l8.44-8.44l7.1-7.1l15.54,15.54l-0.11,0.11
		c-0.78,0.78-1.21,1.82-1.21,2.93c0,1.11,0.43,2.14,1.21,2.93L410.87,284.19z M410.87,290.05l-0.11,0.11
		c-0.37-0.37-0.57-0.86-0.57-1.39c0-0.52,0.2-1.02,0.58-1.39l0.11-0.11l0,0C411.63,288.04,411.63,289.28,410.87,290.05z
		 M393.9,261.14l-15.54-15.54l0.11-0.11c1.61-1.61,1.62-4.24,0-5.86l15.54-15.54l15.54,15.54l-0.11,0.11
		c-0.78,0.78-1.21,1.82-1.21,2.93c0,1.11,0.43,2.15,1.21,2.93L393.9,261.14z M393.89,267l-0.11,0.11c-0.37-0.37-0.57-0.86-0.57-1.39
		c0-0.52,0.2-1.02,0.58-1.39l0.11-0.11C394.66,264.99,394.66,266.23,393.89,267z M393.44,219.62c0-0.53,0.2-1.02,0.58-1.39l0.1-0.1
		l0,0l0.01-0.01c0.76,0.77,0.76,2.01,0,2.77l-0.11,0.11C393.64,220.63,393.44,220.14,393.44,219.62z M410.41,242.67
		c0-0.53,0.2-1.02,0.58-1.39l0.11-0.11l0,0c0.76,0.77,0.76,2.01,0,2.78l-0.11,0.11C410.61,243.69,410.41,243.19,410.41,242.67z
		 M427.38,265.72c0-0.52,0.2-1.02,0.58-1.39l0.11-0.11c0.76,0.77,0.76,2.01,0,2.78l-0.11,0.11l0,0h0
		C427.58,266.74,427.38,266.24,427.38,265.72z M445.03,290.05l-0.11,0.11c-0.37-0.37-0.57-0.86-0.57-1.39c0-0.52,0.2-1.02,0.58-1.39
		l0.11-0.11l0,0l0,0C445.8,288.04,445.8,289.28,445.03,290.05z M376.93,243.94l-0.11,0.11c-0.37-0.37-0.57-0.86-0.57-1.39
		c0-0.53,0.21-1.02,0.58-1.39l0.11-0.11C377.69,241.94,377.69,243.18,376.93,243.94z M359.95,220.9l-0.11,0.11
		c-0.37-0.37-0.57-0.86-0.57-1.39c0-0.53,0.2-1.02,0.58-1.39l0.1-0.1l0,0l0.01-0.01C360.72,218.89,360.72,220.13,359.95,220.9z
		 M342.29,196.58c0-0.52,0.21-1.02,0.58-1.39l0.11-0.11c0.76,0.77,0.76,2.01,0,2.78l-0.1,0.1l0,0l-0.01,0.01
		C342.5,197.59,342.29,197.1,342.29,196.58z M326.24,172.31c0.01,0.01,0.02,0.03,0.03,0.04
		C326.26,172.34,326.25,172.33,326.24,172.31z M341.44,193.54l-0.11,0.11c-0.25,0.25-0.45,0.53-0.63,0.83
		c-0.65-1.25-1.28-2.45-1.91-3.59L341.44,193.54z M359.84,224.09l15.54,15.54l-0.11,0.11c-0.78,0.78-1.21,1.82-1.21,2.93
		c0,1.1,0.43,2.14,1.21,2.93l-5.67,5.67c-0.85-1.22-1.67-2.43-2.45-3.62c-0.51-0.77-0.97-1.48-1.43-2.25
		c-1.9-2.96-3.58-5.93-5.02-8.9l-4.28-8.98L359.84,224.09z M371.08,252.87l5.73-5.73l15.54,15.54l-0.11,0.11
		c-0.78,0.78-1.21,1.82-1.21,2.93c0,1.1,0.43,2.14,1.21,2.93l-5.82,5.82c-3.04-4.3-5.92-8.22-8.59-11.84
		c-2.46-3.33-4.78-6.48-6.95-9.55L371.08,252.87z M427.73,316.29l15.54,15.54l-0.11,0.11c-0.78,0.78-1.21,1.82-1.21,2.93
		c0,1.11,0.43,2.14,1.21,2.93l-8.79,8.79l-6.75,6.75l-8.19-8.19c-0.31-5.69-1.36-11.47-3.18-17.38L427.73,316.29z M419.53,348.34
		l6.55,6.55l-0.11,0.11c-0.78,0.78-1.21,1.82-1.21,2.93c0,1.11,0.43,2.15,1.21,2.93l-9.94,9.94c1.72-5.26,3.34-11.88,3.48-19.71
		C419.53,350.16,419.54,349.25,419.53,348.34z M405.57,420.92l3.1,3.1l-0.11,0.11c-0.78,0.78-1.21,1.82-1.21,2.93
		c0,1.11,0.43,2.15,1.21,2.93l-1.48,1.48C406.51,427.8,406.02,424.3,405.57,420.92z M410.09,431.53l15.54,15.54l-0.11,0.11
		c-0.78,0.78-1.21,1.82-1.21,2.93c0,1.11,0.43,2.14,1.21,2.93l-13.71,13.72c-0.62-5.43-1.33-10.91-2.06-16.29
		c-0.73-5.64-1.53-11.1-2.28-16.31L410.09,431.53z M412.8,476.45v-0.06c-0.07-0.76-0.15-1.53-0.23-2.29
		c0.25-0.95,0.15-1.95-0.28-2.85c-0.06-0.58-0.11-1.15-0.18-1.72l14.94-14.94l3.62,3.62c-0.05,0.05-0.09,0.11-0.14,0.17
		c-0.1,0.12-0.2,0.24-0.3,0.35c-0.82,0.95-1.65,1.89-2.5,2.82c-0.77,0.87-1.56,1.73-2.36,2.58c-0.08,0.09-0.16,0.17-0.24,0.26
		C421.2,468.59,417.08,472.62,412.8,476.45z M432.33,456.24c-0.08,0.1-0.17,0.2-0.25,0.29l-3.49-3.49l0.11-0.11
		c1.62-1.62,1.62-4.24,0-5.86l1.95-1.95l13.59-13.59l3.54,3.54c-0.4,0.63-0.79,1.27-1.21,1.89c-0.13,0.21-0.26,0.43-0.41,0.63
		c0,0.02-0.02,0.04-0.03,0.05c-0.45,0.7-0.91,1.38-1.37,2.07c-0.03,0.05-0.06,0.09-0.1,0.14c-3.22,4.79-6.66,9.43-10.3,13.9
		C433.71,454.59,433.03,455.42,432.33,456.24z M449.93,431.61c-0.31,0.52-0.63,1.05-0.95,1.57l-3.18-3.18l0.11-0.11
		c1.61-1.61,1.62-4.24,0-5.86l15.54-15.54l0.31,0.31c-0.41,0.93-0.81,1.87-1.23,2.79c-0.55,1.22-1.12,2.44-1.71,3.64
		c-0.17,0.37-0.36,0.74-0.54,1.11v0.01c-0.46,0.95-0.93,1.89-1.42,2.83c-0.21,0.44-0.43,0.87-0.67,1.3
		c-0.45,0.87-0.91,1.73-1.37,2.59c-0.5,0.94-1.01,1.88-1.54,2.81c-0.19,0.35-0.38,0.69-0.59,1.04c-0.31,0.54-0.61,1.08-0.94,1.62
		C451.17,429.57,450.56,430.59,449.93,431.61z M460.88,404.01c0-0.52,0.2-1.02,0.58-1.39l0.1-0.1l0,0l0.01-0.01
		c0.76,0.77,0.76,2.01,0,2.78l-0.11,0.11l0,0l0,0C461.08,405.03,460.88,404.54,460.88,404.01z M464.2,403
		c-0.16-0.74-0.52-1.45-1.1-2.02l3.04-3.04c-0.04,0.1-0.07,0.2-0.1,0.29C465.45,399.83,464.83,401.42,464.2,403z M470.94,383.19
		l-0.01-0.05c-0.94,3.39-1.98,6.73-3.11,10.04l-6.26,6.26l-15.54-15.54l0.1-0.1c1.61-1.61,1.62-4.24,0-5.86l15.54-15.54l11.6,11.6
		C472.56,377.08,471.79,380.15,470.94,383.19z M474.96,365.75c-0.12,0.67-0.24,1.33-0.38,1.99c-0.24,1.25-0.49,2.49-0.76,3.73
		l-10.62-10.62l0.11-0.11c1.61-1.61,1.62-4.24,0-5.86l12.75-12.75l1.85-1.85c-0.02,0.38-0.03,0.76-0.06,1.13
		c0.01,0.06,0,0.13-0.01,0.19c0,0.15-0.01,0.29-0.02,0.44c-0.03,0.63-0.07,1.26-0.12,1.89c-0.03,0.5-0.07,1-0.11,1.49
		c-0.02,0.35-0.04,0.7-0.07,1.05c-0.1,1.12-0.2,2.22-0.32,3.33c-0.06,0.64-0.13,1.27-0.2,1.91c-0.04,0.38-0.08,0.77-0.13,1.15
		c-0.08,0.73-0.17,1.46-0.27,2.19c-0.14,1.19-0.31,2.38-0.48,3.56c-0.01,0.03-0.01,0.06-0.02,0.1c-0.17,1.17-0.35,2.35-0.54,3.51
		C475.38,363.41,475.17,364.58,474.96,365.75z M463.44,314.75l0.11-0.11c1.61-1.61,1.62-4.24,0-5.86l11.86-11.86
		c0.16,0.96,0.33,1.91,0.48,2.87c0.05,0.32,0.09,0.63,0.14,0.95c0.1,0.62,0.19,1.23,0.27,1.85c0.09,0.61,0.17,1.23,0.25,1.85
		c0.06,0.44,0.12,0.89,0.16,1.34c0.15,1.12,0.28,2.24,0.39,3.36c0.06,0.5,0.11,1.01,0.15,1.52c0.13,1.29,0.25,2.59,0.34,3.9
		c0.05,0.57,0.09,1.13,0.12,1.7c0.07,0.83,0.12,1.66,0.16,2.5c0.04,0.51,0.07,1.03,0.09,1.55c0.12,2.37,0.19,4.75,0.22,7.14
		c0.01,0.69,0.01,1.38,0.02,2.06L463.44,314.75z M462.01,307.24l-15.54-15.54l0.11-0.11c1.61-1.61,1.61-4.24,0-5.86l15.54-15.54
		l9.62,9.62c0.11,0.4,0.21,0.8,0.32,1.2c0.38,1.49,0.75,2.98,1.09,4.49c0.01,0.03,0.02,0.05,0.02,0.08
		c0.27,1.16,0.53,2.32,0.77,3.49c0.01,0.03,0.01,0.05,0.02,0.08c0.36,1.7,0.7,3.41,1.01,5.13L462.01,307.24z M461.54,265.72
		c0-0.52,0.2-1.02,0.58-1.39l0.11-0.11c0.76,0.77,0.76,2.01,0,2.78l-0.11,0.11l0,0l0,0C461.75,266.74,461.54,266.24,461.54,265.72z
		 M463.66,268.65l0.11-0.11c1.61-1.61,1.62-4.24,0-5.86l1.9-1.9c0.75,1.98,1.47,3.97,2.15,5.98c0.04,0.13,0.08,0.25,0.12,0.37
		c0.01,0.02,0.01,0.03,0.02,0.05c0.93,2.76,1.8,5.56,2.6,8.37L463.66,268.65z M462.23,261.14l-15.54-15.54l0.11-0.11
		c1.61-1.61,1.61-4.24,0-5.86l6.14-6.14c0.5,0.88,0.99,1.77,1.48,2.67c0.03,0.05,0.05,0.1,0.08,0.15c0.36,0.67,0.72,1.34,1.08,2.01
		c0.37,0.71,0.74,1.41,1.1,2.12c0.01,0.03,0.03,0.05,0.04,0.08c0.71,1.39,1.4,2.78,2.07,4.18c0.01,0,0.01,0.01,0.01,0.01
		c0.43,0.89,0.85,1.78,1.27,2.68c0.41,0.9,0.82,1.8,1.22,2.71c1.22,2.71,2.37,5.46,3.45,8.24c0.03,0.07,0.05,0.14,0.08,0.21
		L462.23,261.14z M445.26,238.09l-15.54-15.54l0.11-0.11c1.61-1.61,1.62-4.24,0-5.86l7.12-7.12c0.63,0.8,1.25,1.6,1.86,2.42
		c0.08,0.1,0.15,0.2,0.23,0.3c0.04,0.06,0.08,0.11,0.12,0.16c0.08,0.11,0.16,0.22,0.24,0.33c0.6,0.8,1.2,1.61,1.79,2.43
		c0.03,0.06,0.08,0.12,0.12,0.18c1.36,1.88,2.68,3.79,3.96,5.72c0.66,0.98,1.3,1.96,1.94,2.96c0.6,0.94,1.2,1.88,1.78,2.84
		c0.66,1.07,1.31,2.14,1.95,3.21c0.3,0.5,0.58,1.01,0.88,1.51L445.26,238.09z M428.29,215.04l-15.54-15.54l0.1-0.1
		c1.61-1.62,1.61-4.24,0-5.86l5.16-5.16c0.34,0.33,0.69,0.66,1.03,0.99c0.55,0.54,1.11,1.08,1.65,1.64
		c3.29,3.29,6.46,6.69,9.5,10.21c0.04,0.04,0.08,0.09,0.12,0.14c0.98,1.12,1.93,2.24,2.86,3.38c0.09,0.1,0.17,0.21,0.26,0.31
		c0.73,0.89,1.45,1.79,2.16,2.69L428.29,215.04z M411.31,192l-15.54-15.54l0.11-0.11c1.61-1.61,1.62-4.24,0-5.86l0.31-0.31
		c0.94,0.67,1.88,1.34,2.8,2.04c0.2,0.15,0.41,0.3,0.61,0.46c0.2,0.16,0.41,0.31,0.61,0.46c0.8,0.6,1.6,1.22,2.39,1.84
		c0.41,0.32,0.82,0.65,1.24,0.98c0.78,0.61,1.55,1.24,2.32,1.87c0.4,0.32,0.79,0.65,1.18,0.98c0.79,0.65,1.57,1.31,2.34,1.98
		c0.77,0.66,1.54,1.33,2.3,2.01c0.41,0.36,0.81,0.72,1.22,1.09c0.3,0.27,0.6,0.54,0.9,0.81c0.02,0.02,0.04,0.04,0.06,0.06
		c0.76,0.69,1.52,1.41,2.27,2.12L411.31,192z M394.35,168.95l-0.23-0.23c0.09,0.06,0.18,0.13,0.28,0.19L394.35,168.95z
		 M380.82,160.18c0.4,0.23,0.81,0.47,1.21,0.71c0.83,0.49,1.66,0.99,2.49,1.51c0.17,0.1,0.33,0.21,0.49,0.31l7.79,7.79l-0.11,0.11
		c-0.78,0.78-1.21,1.82-1.21,2.93c0,1.1,0.43,2.14,1.21,2.93L377.15,192l-15.54-15.54l0.11-0.11c1.61-1.61,1.61-4.24,0-5.86
		L375.2,157c0.66,0.36,1.32,0.71,1.97,1.08c0.01-0.01,0.02,0.01,0.02,0.01c0.49,0.26,0.98,0.54,1.46,0.82
		C379.38,159.33,380.1,159.75,380.82,160.18z M372.83,156.29l-12.66,12.66l-15.54-15.54l0.11-0.11c1.61-1.61,1.62-4.24,0-5.86
		l2.78-2.78c0.33,0.12,0.67,0.23,1,0.35c1.34,0.48,2.67,0.98,4,1.5c0.66,0.25,1.32,0.51,1.98,0.78c1.97,0.78,3.93,1.6,5.87,2.46
		c1.29,0.56,2.58,1.14,3.86,1.74c0.77,0.35,1.53,0.71,2.29,1.08c0.76,0.36,1.52,0.73,2.27,1.11c0.76,0.37,1.51,0.75,2.26,1.14
		c0.38,0.19,0.75,0.38,1.12,0.58c0.34,0.17,0.68,0.35,1.01,0.53L372.83,156.29z M343.21,145.9l-4-4c1.77,0.54,3.54,1.1,5.29,1.7
		c0.25,0.08,0.49,0.18,0.74,0.26L343.21,145.9z M314.7,136.09c-0.16-0.03-0.32-0.06-0.49-0.08c-0.28-0.05-0.56-0.1-0.84-0.15
		c0.5,0.08,1,0.16,1.49,0.25C314.81,136.11,314.75,136.1,314.7,136.09z M210.9,116.81l3.85,9.78l-3.17,7.24l-14.47,5.7l-7.26-3.18
		l-1.91-4.8l9.04-3.54l0.62,1.61l1.46,0.63l4.8-1.9l0.61-1.43l-1.22-3.15l-1.45-0.64l-4.07,1.57l-2.97-7.54l4.07-1.62l0.64-1.41
		l-1.23-3.14l-1.45-0.67l-4.81,1.9l-0.62,1.46l0.88,2.24l-9.01,3.55l-2.17-5.44l3.2-7.31l14.47-5.64l7.26,3.18l3.81,9.73l-0.83,1.94
		L210.9,116.81z M213.87,104.12l-2.06,0.49l-1.84-7.69l21.22-5.05l6.78,4.13l5.55,23.31l-4.13,6.76l-21.22,5.1l-1.85-7.73l2.05-0.49
		L213.87,104.12z M277.66,113.99l2.09-0.09l0.27,7.95l-13.9,0.49l-0.25-7.96l2.1-0.05l-0.68-19.36l-2.13,0.09l0.1,2.09l-7.94,0.28
		l-0.37-10.01l29.74-1.06l0.36,10.02l-7.91,0.29l-0.07-2.13l-2.1,0.1L277.66,113.99z M291.83,94.31l0.87-7.86l21.67,2.43l4.98,6.19
		l-1.01,8.96l-2.55,2.03l2.04,2.59l-0.88,7.91l2.08,0.25l-0.88,7.89l-11.69-1.29l1.46-13.09l-1-1.23l-4.82-0.53l-0.71,6.29l2.13,0.2
		l-0.87,7.95l-13.85-1.55l0.86-7.9l2.14,0.21l2.13-19.22L291.83,94.31z M326.39,98.47l1.96-7.65l25.1,6.44l-2.33,8.99l-7.68-1.96
		l0.35-1.36l-5.97-1.54l-1.46,5.57l1.42,0.36l0.33-1.34l7.65,1.95l-2.65,10.39l-7.65-1.99l0.35-1.33l-1.38-0.38l-1.43,5.52
		l5.98,1.54l0.32-1.36l7.69,1.96l-2.3,9.08l-25.09-6.44l1.97-7.72l2.04,0.53l4.81-18.74L326.39,98.47z M356.45,106.36l2.97-7.33
		l24,9.73l-3.49,8.62l-7.36-3l0.54-1.27l-5.75-2.3l-2.16,5.31l1.36,0.53l0.52-1.29l7.32,2.96l-4,9.9l-7.33-2.95l0.52-1.28
		l-1.32-0.54l-2.14,5.29l5.69,2.32l0.54-1.31l7.37,2.98l-3.49,8.66l-24.02-9.72l2.96-7.34l1.97,0.8l7.24-17.97L356.45,106.36z
		 M385.58,118.11l4.03-6.82l9.86,5.84l0.16,18.78l4.16-7.07l-1.8-1.07l4-6.82l11.98,7.08l-4.01,6.81l-1.8-1.09l-9.85,16.7l1.8,1.06
		l-4.03,6.85l-10.05-5.93l-0.16-18.39l-3.97,6.74l1.85,1.06l-4.05,6.86l-11.97-7.08l4.03-6.82l1.81,1.06l9.85-16.67L385.58,118.11z
		 M446.61,162.29l5.56-5.65l9.94,9.73l-5.55,5.65l-1.49-1.5l-13.5,13.88l1.52,1.47l-5.55,5.69l-8.37-8.14l4.24-17.9l-5.46,5.58
		l1.51,1.5l-5.55,5.7l-9.95-9.71l5.53-5.68l1.52,1.47l13.53-13.89l-1.52-1.47l5.52-5.65l8.2,7.99l-4.32,18.28l5.71-5.87
		L446.61,162.29z M503.65,249.41l7.65-2.02l2.91,10.97l-11.09,11.36l15.25,4.38l2.9,10.96l-7.62,2.04l-0.54-2.04l-18.73,4.95
		l0.55,2.04l-7.69,2.03l-3.55-13.42l7.68-2.06l0.52,2.06l8.85-2.37l-14.35-4.14l10.37-10.71l-8.81,2.36l0.55,2.02l-7.69,2.05
		l-3.55-13.45l7.68-2.05l0.56,2.05l18.66-4.95L503.65,249.41z M524.63,320.44l0.75,11.27l-7.88,0.55l-0.14-2.11l-19.3,1.27
		l0.13,2.13l-7.95,0.51l-0.9-13.85l7.91-0.53l0.15,2.12l9.11-0.62l-13.23-6.81l12.21-8.54l-9.11,0.63l0.16,2.07l-7.95,0.55
		l-0.94-13.88l7.95-0.53l0.13,2.11l19.31-1.28l-0.13-2.11l7.88-0.54l0.74,11.3l-13.01,9.04L524.63,320.44z M494.44,369l-0.26,2.12
		l-7.87-0.89l1.51-13.45l7.91,0.89l-0.13,1.15l1.65-0.32l1.06-9.3l-1.55-0.71l-0.12,1.11l-7.88-0.87l1.51-13.41l7.89,0.92
		l-0.23,2.06l18.34,9.89l0.2-1.51l7.84,0.89l-2.13,18.62l-7.85-0.91l0.23-1.76L494.44,369z M448.55,463.52l-1.23-7.85l7.59-10.42
		l7.85-1.24l6.91,5.02l-5.68,7.81l-4.17-3.02l-1.55,0.3l-1.46,2.02l0.23,1.57l14.73,10.73l1.78-2.41l6.39,4.66l-8.72,11.94
		l-6.36-4.64l1.22-1.72L448.55,463.52z M429.3,484.52l-0.19-7.94l8.91-9.31l7.94-0.2l6.21,5.88l-6.69,7.01l-3.71-3.49l-1.59,0.04
		l-1.71,1.79v1.6l13.21,12.6l2.07-2.17l5.72,5.46l-10.24,10.7l-5.69-5.47l1.46-1.51L429.3,484.52z M477.03,449.13l-0.93-3.15
		l-3.16,0.93l-9.08-4.86l-2.29-7.63l10.33-19.2l7.01,3.76l-1,1.87l17.02,9.16l1.03-1.88l6.94,3.76l-10.34,19.22l-7.62,2.28
		L477.03,449.13z M499.51,408.4c-1.81,0.5-3.81,0.4-6.07-0.3c-2.23-0.72-3.91-1.81-5.1-3.3c-1.2-1.47-1.91-3.08-2.17-4.83
		c-0.29-1.69-0.13-3.45,0.42-5.19c0.55-1.75,1.46-3.23,2.68-4.49c1.23-1.23,2.78-2.1,4.55-2.65c1.84-0.48,3.85-0.4,6.11,0.34
		c2.23,0.7,3.94,1.82,5.1,3.27c1.17,1.47,1.91,3.06,2.17,4.81c0.25,1.73,0.13,3.47-0.45,5.22c-0.55,1.73-1.45,3.23-2.68,4.5
		C502.84,407.02,501.32,407.89,499.51,408.4z M491.67,232.5c-0.92,1.61-2.42,2.97-4.53,4.03c-2.07,1.06-4.04,1.46-5.94,1.25
		c-1.87-0.22-3.52-0.86-4.95-1.88c-1.38-1.02-2.51-2.37-3.31-4.01c-0.85-1.63-1.26-3.33-1.26-5.09c0-1.73,0.48-3.44,1.38-5.07
		c0.94-1.61,2.46-2.97,4.56-4.07c2.09-1.02,4.06-1.46,5.94-1.23c1.84,0.22,3.48,0.86,4.91,1.89c1.38,1.03,2.52,2.37,3.36,4.02
		c0.8,1.63,1.22,3.31,1.22,5.07C493.05,229.14,492.6,230.86,491.67,232.5z M478.2,196.11l-6.27,4.74l-5.85-7.73l3.56-2.65l0.26-1.56
		l-3.13-4.13l-1.62-0.23l-13.63,10.37l-0.2,1.58l3.14,4.11l1.55,0.19l2.64-2.02l-1.61-2.09l5.72-4.37l7.46,9.85l-11.11,8.42
		l-7.88-1.07l-9.37-12.35l1.07-7.9l19.12-14.46l7.88,1.05l9.37,12.36L478.2,196.11z M428.85,146.38l-1.68-1.28l-11.75,15.4
		l1.64,1.26l-4.8,6.3l-11.05-8.42l4.81-6.34l1.68,1.3l11.79-15.36l-1.68-1.33l4.78-6.25l11.04,8.46L428.85,146.38z"/>
	<path class="st0" d="M349.16,277.56C349.16,277.56,349.16,277.57,349.16,277.56c-0.67,1.14-1.34,2.3-2,3.48
		c0,0.01-0.01,0.01-0.01,0.02c-1.63,2.88-3.24,5.88-4.82,8.99l0,0c0,0,0,0,0,0.01c-0.52,1.02-1.03,2.05-1.54,3.09
		c-0.02,0.05-0.05,0.1-0.07,0.15c-4.12,8.43-7.95,17.62-11.08,27.4c0,0,0,0,0,0l0,0c-3.17,9.91-5.6,20.42-6.89,31.38
		c-0.07,0.6-0.14,1.19-0.2,1.79l0,0c-0.41,3.87-0.68,7.79-0.77,11.76c0,0,0,0,0,0l0,0c-0.11,4.71-0.01,9.49,0.38,14.32
		c0.49,6.21,0.89,12.2,1.22,18c0.11,1.9,0.21,3.77,0.3,5.62c0,0.08,0.01,0.16,0.01,0.24c0.09,1.87,0.17,3.72,0.25,5.55l0,0
		c0.54,13.13,0.67,25.12,0.51,35.97c-0.02,1.16-0.04,2.3-0.06,3.44c-0.02,0.83-0.04,1.66-0.06,2.48c-0.03,1.25-0.07,2.48-0.1,3.7
		l0,0c-0.42,13.33-1.27,24.73-2.27,34.23c-0.1,0.94-0.2,1.86-0.3,2.76l0,0c-0.36,3.19-0.74,6.15-1.12,8.88
		c-0.04,0.25-0.07,0.48-0.1,0.72l0,0c-0.01,0.09-0.03,0.19-0.04,0.28c-0.02,0.17-0.05,0.34-0.07,0.5c-0.02,0.17-0.05,0.34-0.07,0.51
		c-0.02,0.17-0.05,0.34-0.07,0.51c-0.03,0.17-0.05,0.34-0.08,0.51c-0.07,0.45-0.13,0.88-0.2,1.31l0,0
		c-0.12,0.81-0.25,1.59-0.37,2.35c-0.1,0.59-0.19,1.15-0.29,1.71c-0.04,0.28-0.09,0.55-0.14,0.82c-0.09,0.54-0.18,1.06-0.28,1.57
		c-0.08,0.48-0.16,0.94-0.25,1.39c-0.08,0.45-0.16,0.88-0.25,1.31c-0.09,0.49-0.18,0.96-0.27,1.41c-0.01,0.03-0.02,0.07-0.02,0.11
		c-0.05,0.21-0.09,0.42-0.13,0.63c-0.12,0.57-0.23,1.11-0.34,1.62c-0.03,0.14-0.06,0.28-0.09,0.42c-0.08,0.38-0.16,0.75-0.24,1.1
		c-0.03,0.14-0.06,0.27-0.09,0.4c-0.07,0.31-0.13,0.6-0.2,0.88c-0.07,0.31-0.14,0.61-0.21,0.89c-0.01,0.07-0.03,0.14-0.05,0.21
		c-0.03,0.13-0.06,0.26-0.09,0.38c-0.12,0.49-0.23,0.92-0.32,1.29c0.42-0.07,0.83-0.15,1.24-0.22c-0.41,0.08-0.82,0.15-1.24,0.23
		c-0.05,0.17-0.09,0.33-0.13,0.48c-0.35,1.35-0.67,2.67-0.97,3.96c-0.27,1.21-0.53,2.39-0.75,3.53c-0.18,0.86-0.34,1.71-0.48,2.53
		c-0.08,0.41-0.15,0.82-0.22,1.22c-0.21,1.21-0.39,2.38-0.54,3.5c-0.06,0.37-0.11,0.74-0.15,1.1c-0.09,0.64-0.17,1.26-0.23,1.87
		c-0.04,0.33-0.08,0.65-0.11,0.97c-0.04,0.31-0.07,0.62-0.1,0.92c-0.04,0.36-0.07,0.72-0.1,1.07c-0.02,0.16-0.03,0.32-0.04,0.48
		c-0.04,0.54-0.08,1.07-0.12,1.57c-0.04,0.57-0.07,1.12-0.1,1.65c22.33-5.32,58.16-12.87,81.67-12.87c3.71,0,7.04,0.2,9.94,0.59
		c0.13,0.02,0.26,0.03,0.39,0.06c0.35,0.04,0.69,0.09,1.03,0.15c0.24,0.04,0.48,0.08,0.71,0.12c-0.03-0.85-0.06-1.69-0.09-2.52
		v-0.03c-0.32-10.36-0.1-18.82,0.61-25.14c0.05-0.42,0.09-0.84,0.13-1.27c0.03-0.26,0.05-0.52,0.07-0.79
		c0.03-0.28,0.05-0.56,0.07-0.84c0.04-0.58,0.08-1.18,0.11-1.78c0.03-0.39,0.04-0.78,0.06-1.18c0.02-0.56,0.04-1.12,0.06-1.69
		l0.03-1.5c0.01-0.53,0.01-1.07,0.01-1.61v-0.47c0-0.36,0-0.72-0.01-1.08c0.01-0.51,0-1.02-0.01-1.54
		c-0.01-0.73-0.03-1.47-0.05-2.22c-0.01-0.4-0.02-0.8-0.04-1.21c-0.01-0.15-0.01-0.3-0.01-0.46c-0.06-1.32-0.12-2.68-0.2-4.05
		c-0.1-1.69-0.21-3.41-0.35-5.16c-0.33,0.27-0.67,0.53-1,0.8c0.33-0.28,0.67-0.54,1-0.82c-0.02-0.25-0.04-0.5-0.06-0.76l0,0
		c-0.01-0.15-0.02-0.29-0.04-0.44c-0.05-0.59-0.09-1.17-0.14-1.77c0-0.09-0.01-0.18-0.02-0.28c-0.01-0.09-0.02-0.19-0.03-0.28
		c0-0.03-0.01-0.06-0.01-0.09l0,0c-0.08-0.89-0.16-1.79-0.25-2.68c-0.08-0.85-0.16-1.71-0.25-2.57c-0.08-0.86-0.17-1.73-0.27-2.6
		c-0.1-0.97-0.21-1.94-0.32-2.91c-0.04-0.36-0.08-0.72-0.13-1.08l0,0c-0.09-0.76-0.17-1.52-0.26-2.28
		c-0.02-0.22-0.05-0.45-0.08-0.67c-0.01-0.09-0.02-0.19-0.03-0.28c-0.14-1.15-0.28-2.29-0.43-3.45c-0.24-1.95-0.49-3.89-0.75-5.82
		c-0.25-1.94-0.52-3.87-0.79-5.78c-0.13-0.95-0.26-1.9-0.39-2.85c-0.24-1.73-0.49-3.44-0.73-5.14v0c0-0.03-0.01-0.05-0.01-0.08
		c-0.12-0.82-0.23-1.63-0.35-2.44c-0.01-0.06-0.02-0.12-0.03-0.17v0c-0.2-1.42-0.41-2.84-0.61-4.22c-0.68-4.68-1.33-9.15-1.94-13.34
		c-0.35-2.52-0.6-4.83-0.77-6.97c-0.09-1.14-0.16-2.24-0.21-3.28l0,0c-0.22-4.93,0.05-8.83,0.62-12.07
		c0.13-0.73,0.27-1.42,0.42-2.08c0-0.01,0-0.01,0-0.02c0.16-0.66,0.32-1.3,0.5-1.91c1-3.38,2.33-6,3.65-8.6
		c1.1-2.23,2.17-4.35,3.01-6.9c0.25-0.8,0.56-1.64,0.89-2.54c0.22-0.59,0.45-1.2,0.69-1.85c0.05-0.13,0.1-0.26,0.15-0.39v0
		c2.98-7.82,7.14-19.07,4.29-35.05c-0.01-0.07-0.02-0.14-0.04-0.21c-0.4-2.2-0.93-4.48-1.62-6.86c-0.01-0.02-0.01-0.04-0.02-0.06
		c-0.21-0.73-0.44-1.46-0.67-2.21c0,0,0,0,0,0l0,0c-1.74-5.41-4.26-11.28-7.81-17.66c-1.09-1.94-2.16-3.81-3.23-5.65l0,0
		c0,0,0,0,0,0c-0.38-0.65-0.76-1.3-1.14-1.93c0,0,0,0,0-0.01v0c-9.12-15.36-17.64-26.9-24.69-36.41c-3.08-4.18-5.97-8.11-8.62-11.95
		C359.39,261.4,354.27,268.88,349.16,277.56L349.16,277.56z M371.52,328.2l-0.14-0.3l1.2-1.52l4.76,3.06l0,0l0.3,0.19l-0.21,0.26
		l-0.21,0.26l0.33,0.76l0.83,0.57l0,0l1.82,1.25l0.8,0.06l0.84-1.08l-0.29-0.76l-1.57-1.07l0,0l-0.69-0.47l2-2.66l1.1,0.72l0,0
		l1.2,0.79l0.84,0.03l0.87-1.2l-0.26-0.78l-2.71-1.76h-0.1h-0.78l-0.61,0.84l-5.1-3.11l1.48-1.99l4.46-0.27l3.1,1.98l0,0l1.88,1.2
		l0,0l3.13,2l1.33,4.16l-2.72,3.71l-1.13-0.04l0.35,1.06l-2.58,3.44l-4.13-0.47l-3.77-2.71l-0.16-0.11l0,0l-3.92-2.82l-1.35-2.82v0
		L371.52,328.2z M395.33,349.57l-10.39-9.32l1.9-2.48l1.04,0.83l4.96-6.67l-1.06-0.79l2.13-2.98l10.72,8.68l0.99,4.33l0,0l0.03,0.12
		l0.05,0.21l-3.18,4.39l-3.18,4.39l-0.54-0.1l-1.86-0.33v0L395.33,349.57z M381.51,499.4v-0.01c1.18-0.7,2.35-1.41,3.52-2.13
		c2.06-1.28,4.08-2.6,6.09-3.95c-0.01,0.01-0.01,0.02-0.02,0.03c-2,1.34-4.01,2.66-6.06,3.92
		C383.87,497.99,382.69,498.7,381.51,499.4z M386.14,392.35c-0.43,0.08-0.88,0.15-1.33,0.21c-0.01,0-0.02,0-0.03,0
		c-0.45,0.06-0.9,0.12-1.37,0.16l0,0c-1.43,0.14-2.93,0.21-4.53,0.18c-2.4,0-4.57-0.12-6.36-0.26c-0.86,0.14-1.74,0.21-2.64,0.21
		c-0.37,0-0.74-0.03-1.1-0.05c-0.43-0.03-0.87-0.07-1.3-0.13c-0.05-0.01-0.11-0.02-0.16-0.02c-0.42-0.06-0.84-0.13-1.25-0.22
		c-7.68-1.61-14.58-7.57-17.81-11.3c-1.32-0.45-2.51-0.89-3.58-1.3l0,0c-1.68-0.65-3.01-1.23-3.89-1.62c0,0-0.01,0-0.01-0.01
		c-0.1-0.04-0.18-0.08-0.27-0.12c-0.5-0.23-0.81-0.37-0.89-0.41l-0.2-0.12c-0.06-0.05-1.94-1.71-3.94-4.66l0,0
		c-0.27-0.4-0.55-0.83-0.82-1.28c-0.03-0.06-0.07-0.11-0.1-0.17c-0.84-1.41-1.66-3.05-2.33-4.88v0c-1.79-4.91-2.48-11.23,0.36-18.54
		c0.11-0.27,0.22-0.55,0.34-0.83c0.12-0.28,0.24-0.57,0.37-0.85c0.14-0.3,0.27-0.6,0.42-0.9c0.23-0.47,0.48-0.94,0.74-1.42
		c0.01-0.01,0.01-0.02,0.02-0.04v0c1.17-2.14,2.65-4.34,4.5-6.61l0.19-0.22l0.04-0.01c0.12-0.41,0.26-0.8,0.39-1.2
		c0.67-2.07,1.48-4.06,2.38-5.96v0c4.35-9.11,10.63-15.86,11.33-16.53c-0.38,0.51-4.87,6.57-8.54,14.4l0,0c0,0,0,0,0,0
		c-0.42,0.9-0.83,1.81-1.22,2.75c-0.01,0.02-0.01,0.03-0.02,0.05c-0.66,1.58-1.27,3.21-1.79,4.87l0,0
		c-0.01,0.02-0.01,0.05-0.02,0.07c-0.09,0.29-0.18,0.58-0.27,0.87l0,0l0,0c0.23-0.06,0.48-0.13,0.74-0.19l0,0c0,0,0.01,0,0.01,0
		c0.39-0.1,0.81-0.2,1.27-0.31c0.01,0,0.01,0,0.02,0c0.46-0.1,0.95-0.21,1.47-0.31c2.94-0.59,6.83-1.14,11.14-1.14
		c6.9,0,12.89,1.4,17.87,4.16c0.66,0.36,1.29,0.76,1.91,1.17c0.97,0.64,1.9,1.33,2.78,2.09c5.61,4.81,9.31,11.85,11.06,21.02l0,0
		c0.16,0.86,0.31,1.74,0.44,2.64l0,0c0.39,2.67,0.63,5.5,0.71,8.49l0.04,0.31l-0.2,0.26c-0.84,1.29-1.78,2.46-2.81,3.51
		c-1.8,4.07-3.91,7.28-6.3,9.66l0,0c-0.53,0.53-1.07,1.02-1.63,1.46c-0.11,0.09-0.21,0.18-0.32,0.26c8-0.08,18.25-1.56,24.21-7.72
		C403.86,381.81,398.78,390.11,386.14,392.35z"/>
	<path class="st0" d="M203.05,288.3c0.84,0.75,1.69,1.52,2.55,2.3c0.09,0.08,0.18,0.17,0.28,0.26c0.77,0.71,1.55,1.43,2.33,2.17
		c0.16,0.15,0.32,0.3,0.47,0.45c0.72,0.69,1.46,1.39,2.19,2.11c0.2,0.2,0.4,0.39,0.61,0.59c0.7,0.69,1.41,1.39,2.11,2.11
		c0.23,0.23,0.46,0.46,0.69,0.69c0.7,0.71,1.4,1.44,2.11,2.18c0.23,0.24,0.46,0.48,0.69,0.72c0.74,0.78,1.48,1.58,2.22,2.38
		c0.19,0.21,0.39,0.41,0.58,0.63c0.91,1,1.82,2.01,2.73,3.04c0.02,0.02,0.04,0.05,0.06,0.07c0.96,1.09,1.93,2.21,2.89,3.34l0,0
		c4.85,5.73,9.64,12.03,14.15,18.85c0.96,1.45,1.9,2.91,2.83,4.4l0,0c2.13,3.42,4.18,6.97,6.13,10.63l0,0
		c1.09,2.05,2.15,4.12,3.16,6.24c1.28,2.68,2.5,5.41,3.65,8.21c0.38,0.92,0.75,1.85,1.11,2.79l0,0c3.66,9.37,6.51,19.38,8.24,29.99
		c0.09,0.51,0.18,1.02,0.26,1.53l0,0c0.02,0.15,0.05,0.3,0.07,0.45c1.14,7.73,2.1,15.27,2.91,22.59l0,0
		c0.13,1.16,0.25,2.31,0.37,3.45l0,0c0.47,4.48,0.89,8.87,1.26,13.17c0.04,0.49,0.08,0.97,0.12,1.46l0,0
		c0.95,11.35,1.58,22.06,2.02,32.03c0.09,1.95,0.16,3.88,0.24,5.77c0,0.01,0,0.03,0,0.04c0.07,1.89,0.14,3.76,0.2,5.59l0,0
		c0.25,7.67,0.41,14.81,0.55,21.36c0.01,0.55,0.03,1.1,0.04,1.64c0.01,0.34,0.02,0.67,0.03,1c0,0.34,0.01,0.67,0.02,1
		c0.05,2.15,0.11,4.25,0.17,6.29c0.01,0.51,0.02,1.02,0.04,1.52c0.15,5.53,0.34,10.61,0.6,15.2c0.09,1.45,0.19,2.85,0.29,4.19
		c0.02,0.29,0.04,0.58,0.07,0.86c0.07,0.85,0.14,1.67,0.22,2.47c0.31,3.3,0.71,6.27,1.23,8.87c0.06,0.28,0.11,0.56,0.17,0.83
		c0.06,0.28,0.12,0.56,0.18,0.83c0.05,0.22,0.1,0.43,0.15,0.63c0.07,0.29,0.14,0.58,0.22,0.86c0.38,1.45,0.82,2.75,1.32,3.9
		c3.91-0.49,7.67-1.22,11.23-2.18c0.82-0.22,1.63-0.45,2.42-0.7c0,0,0,0,0-0.01c0.06-1.07,0.14-2.24,0.25-3.5
		c0.01-0.16,0.02-0.32,0.04-0.48c0.02-0.25,0.05-0.51,0.08-0.78c0.03-0.29,0.06-0.59,0.09-0.89c0.08-0.72,0.17-1.46,0.26-2.23
		c0.01-0.01,0.01-0.02,0-0.03c0.09-0.78,0.2-1.58,0.32-2.41v-0.02c-0.16-0.9-0.3-1.83-0.43-2.8c-0.03-0.2-0.06-0.4-0.08-0.61
		c-0.12-0.88-0.22-1.78-0.32-2.71c-0.09-0.79-0.17-1.59-0.24-2.42c-0.05-0.57-0.1-1.16-0.15-1.75c-0.65,0.03-1.31,0.06-1.97,0.09
		c0.38-0.02,0.76-0.04,1.14-0.06c0.28-0.01,0.56-0.02,0.83-0.04c-0.03-0.41-0.06-0.82-0.09-1.23c-0.03-0.41-0.06-0.83-0.09-1.25
		c-0.07-1.06-0.14-2.14-0.2-3.25c-0.06-1.1-0.12-2.24-0.17-3.4c-0.05-0.93-0.09-1.88-0.12-2.84c-0.07-1.68-0.13-3.41-0.18-5.19
		c-0.03-0.89-0.06-1.79-0.08-2.7c-0.03-0.91-0.06-1.83-0.08-2.77v-0.04c-0.01-0.32-0.02-0.64-0.02-0.96
		c-0.02-0.33-0.02-0.66-0.03-0.99c-0.01-0.37-0.02-0.74-0.03-1.11c-0.03-1.14-0.06-2.3-0.09-3.48v0c-0.02-0.65-0.03-1.3-0.05-1.96
		c0,0,0,0,0,0c0-0.06,0-0.11,0-0.16c0-0.06,0-0.11,0-0.17c-0.32-13.82-0.7-30.32-1.86-48.86l0,0c0-0.01,0-0.01,0-0.02
		c-0.07-1.07-0.14-2.16-0.21-3.24c0-0.01,0-0.03,0-0.04l0,0c-0.61-9.18-1.43-18.84-2.52-28.91l0,0c0,0,0,0,0,0
		c-0.1-0.91-0.2-1.82-0.3-2.74c0-0.01,0-0.03,0-0.04l0,0c-0.61-5.37-1.29-10.85-2.08-16.44l0,0c0,0,0,0,0,0
		c-0.23-1.63-0.46-3.26-0.7-4.9c-0.79-5.36-1.88-10.56-3.21-15.6c-0.2-0.77-0.42-1.54-0.63-2.3l0,0
		c-3.89-13.83-9.62-26.46-16.32-37.81c0,0-0.01,0-0.01-0.01c-1.02-1.72-2.06-3.41-3.12-5.08c-0.36-0.55-0.71-1.1-1.07-1.65
		c-0.49-0.76-0.99-1.52-1.5-2.26c-1.1-1.63-2.22-3.22-3.35-4.79l0,0c-0.13-0.17-0.25-0.35-0.38-0.52c-0.38-0.53-0.76-1.06-1.14-1.58
		c-1.8-2.44-3.64-4.81-5.5-7.1c-1.12-1.38-2.25-2.73-3.38-4.06c-0.01,0-0.01,0,0-0.01c-2.58-3.02-5.18-5.87-7.77-8.59l0.01-0.01
		c-0.5-0.53-1-1.06-1.5-1.58l-0.02,0.02c-6.76-6.96-13.36-12.87-19.23-17.71l0.03-0.03c-0.57-0.47-1.14-0.94-1.7-1.39l-0.04,0.04
		c-5.49-4.43-10.26-7.87-13.76-10.25c-0.46,2.92-0.95,5.58-1.45,7.98l-0.1-0.1c-0.18,0.88-0.37,1.72-0.56,2.52l0.1,0.1
		c-0.2,0.87-0.41,1.7-0.61,2.48c-0.13,0.48-0.26,0.96-0.41,1.43C197.89,283.8,200.41,285.95,203.05,288.3L203.05,288.3z"/>
	<path class="st0" d="M217.1,162.54L217.1,162.54c-0.15,0.11-0.28,0.22-0.42,0.32c-0.04,0.04-0.09,0.07-0.13,0.11
		c-0.96,0.81-1.54,1.63-1.48,2.28c0.01,0.17,0.02,0.34,0.04,0.51v0.03c0,0.01,0.01,0.02,0.01,0.03v0.07
		c0.02,0.21,0.06,0.41,0.09,0.61c0.03,0.14,0.06,0.28,0.09,0.41c0.03,0.13,0.06,0.26,0.1,0.38c-0.81,0.97-1.3,2.21-1.3,3.57
		c0,1.61,0.68,3.08,1.78,4.1c0.01,0.15,0.01,0.3,0.02,0.45c0,0.14,0.01,0.28,0.02,0.43c0.07,2.19,0.18,4.84,0.34,8.03
		c0.17,3.27,1.02,6,2.35,8.18c0.59-3.22,2.18-10.09,5.41-13.84l-0.51-2.41l-0.08-0.36l-0.08-0.37l-0.06-0.28v0l-0.39-1.83v0l0-0.02
		c-0.31,0-0.63-0.03-0.96-0.07c-0.05-0.01-0.11-0.02-0.17-0.02c-0.34-0.06-0.68-0.13-1.03-0.24c-1.15-0.35-2.32-0.98-3.29-1.91
		c-0.01-0.02-0.03-0.03-0.05-0.05c-0.73-0.79-1.32-1.77-1.67-2.95c-0.06-0.2-0.11-0.4-0.16-0.61c-0.03-0.13-0.05-0.27-0.07-0.41
		c-0.03-0.13-0.05-0.27-0.06-0.41c-0.03-0.23-0.05-0.46-0.06-0.7c-0.04-0.36,0.13-0.78,0.44-1.22c0.35-0.49,0.89-1.01,1.57-1.51l0,0
		c2.48-1.82,6.8-3.4,10.38-2.6c0.36,0.06,0.7,0.16,1.04,0.29c0.8,0.3,1.41,0.64,1.86,1.01c0.04,0.04,0.06,0.09,0.09,0.13l0,0
		c0.45,0.56,0.64,1.18,0.64,1.83c0,0.01,0,0.02,0,0.03c0,0.21-0.02,0.43-0.06,0.65c-0.5,2.75-3.78,5.93-5.45,7.52
		c-0.01,0-0.01,0.01-0.01,0.01v0c-0.15,0.14-0.29,0.27-0.41,0.39c-0.12,0.12-0.26,0.23-0.42,0.32c-0.06,0.04-0.13,0.08-0.2,0.11
		l0.06,0.29l0.12,0.57l0.12,0.53l0.75,3.5l0,0l0.1,0.46c0.23,0.19,0.48,0.39,0.73,0.58c0.06,0.04,0.11,0.09,0.17,0.13
		c0.25,0.2,0.51,0.4,0.77,0.6c0,0,0,0,0,0l0,0c5.56,4.21,13.56,9,13.56,9c-0.26-0.1-4.04-1.57-8.27-3.71
		c-0.62-0.31-1.24-0.64-1.87-0.98c-0.1-0.05-0.19-0.11-0.29-0.16c-0.59-0.33-1.19-0.66-1.77-1.01c-0.03-0.02-0.06-0.03-0.08-0.05
		c-0.58-0.35-1.15-0.7-1.7-1.06c-0.13-0.08-0.25-0.17-0.38-0.25c-0.55-0.37-1.09-0.74-1.59-1.12c0,0-0.01,0.01-0.01,0.01l0,0
		c-2.79,3.48-5.36,9.78-6.42,12.56c3.96,6.1,11.8,7.68,18.8,4.51l0,0c0,0,0,0,0,0c0.38-0.17,0.75-0.36,1.13-0.55
		c0.04-0.02,0.08-0.04,0.13-0.07c0.58-0.32,1.16-0.67,1.73-1.06l0,0c0,0,0,0,0,0c0.59-0.4,1.16-0.84,1.72-1.32c0,0,0,0,0,0l0,0
		c1.25-1.06,2.43-2.31,3.5-3.75c0.41-0.55,0.8-1.1,1.17-1.66l0,0c0,0,0,0,0,0c0.37-0.55,0.72-1.1,1.05-1.65
		c0.03-0.05,0.06-0.11,0.09-0.16c0.31-0.51,0.6-1.02,0.87-1.52c0.02-0.03,0.03-0.06,0.05-0.09c0.29-0.53,0.56-1.07,0.81-1.6
		c0,0,0,0,0-0.01c2.86-6.06,3.4-11.86,1.22-16.24c-0.05-0.1-0.11-0.21-0.17-0.32c-0.05-0.11-0.11-0.22-0.18-0.33
		c0.45-0.02,0.87-0.11,1.29-0.23c0.19-0.05,0.37-0.12,0.55-0.19c0.17-0.07,0.34-0.15,0.5-0.24c0.02-0.01,0.04-0.02,0.06-0.03
		c1.72-0.94,2.9-2.75,2.9-4.87c0-3.09-2.49-5.59-5.55-5.59c-1.74,0-3.27,0.78-4.3,2l0,0c0,0,0,0,0,0c-0.49,0.58-0.85,1.27-1.07,2.02
		c0,0,0,0,0,0l0,0c-0.14,0.5-0.23,1.02-0.23,1.57c0,0.16,0.01,0.32,0.02,0.47c-0.11-0.05-0.22-0.1-0.33-0.15l-0.36-0.15
		c-1.05-0.42-2.21-0.77-3.47-1.03c-2.23-0.46-4.36-0.65-6.38-0.65c-0.01,0-0.01,0-0.02,0c-0.51,0-1.02,0.01-1.51,0.04c0,0,0,0,0,0
		l0,0c-1.6,0.08-3.11,0.27-4.53,0.54C224.6,158.9,219.78,160.58,217.1,162.54L217.1,162.54z"/>
	<path class="st0" d="M195.76,416.12c0.61,2.81,1.41,5.63,2.43,7.86c1.15,2.48,2.58,4.21,4.32,4.39c0.02,0,0.03,0,0.05,0l0,0
		c0.08,0.01,0.16,0.01,0.24,0.01c0.19,0,0.39-0.02,0.59-0.06c0.09-0.02,0.18-0.04,0.28-0.06c0.07-0.02,0.15-0.04,0.22-0.07
		c0.26-0.08,0.53-0.19,0.8-0.32c0,0,0,0,0,0l0,0c0.38-0.19,0.77-0.42,1.18-0.72c0.63-0.47,1.25-0.95,1.87-1.44c0,0,0,0,0,0l0,0
		c1.69-1.35,3.33-2.8,4.89-4.27c-0.96-0.13-1.89-0.3-2.8-0.5l0,0c-0.83-0.18-1.65-0.39-2.45-0.63l0,0c-3.1-0.93-5.93-2.3-8.47-4.11
		l0,0c-0.66-0.47-1.3-0.97-1.93-1.5c0,0-0.01-0.01-0.01-0.01c-0.63-0.53-1.23-1.09-1.82-1.69
		C195.33,414.01,195.53,415.07,195.76,416.12L195.76,416.12L195.76,416.12z"/>
	<path class="st0" d="M407.77,554.26c-0.3-1.35-0.6-2.71-0.9-4.09c-0.22-1.06-0.45-2.13-0.67-3.21c-0.87-0.09-1.78-0.16-2.72-0.23
		c0.14-0.05,0.28-0.15,0.48-0.24c0.61-0.36,1.28-0.72,1.89-1.12c0.01,0,0.01-0.01,0.02-0.01c-0.47-2.33-0.91-4.68-1.31-7.01
		c-3.01-0.46-6.62-0.71-10.68-0.71c-23.52,0-59.57,7.63-81.76,12.94l-0.01,0.25l-0.74,0.17c-11.24,2.71-18.82,4.76-18.89,4.79
		l-1.19,0.31l-0.06-0.61l-0.05-0.57c-0.01-0.2-0.14-2.16-0.04-5.54c-0.75,0.22-1.5,0.43-2.26,0.63c-7.44,1.97-15.62,2.94-24.82,2.94
		c-16.12,0-32.13-2.97-46.28-5.58c-10.19-1.9-19.03-3.56-25.75-3.64c-0.21,1.86-0.28,3.76-0.17,5.71c0.01,0.33,0.03,0.66,0.06,0.99
		c0.23,2.63,0.27,4.91,0.19,6.9c-0.01,0.29-0.02,0.58-0.04,0.85c0,0.07,0,0.14-0.01,0.21c0,0.11-0.01,0.21-0.02,0.32
		c-0.01,0.13-0.02,0.26-0.03,0.38c-0.02,0.26-0.04,0.52-0.07,0.77c0,0.03,0,0.06-0.01,0.09c-0.02,0.19-0.04,0.39-0.06,0.58
		c-0.06,0.49-0.12,0.97-0.2,1.42c-0.03,0.21-0.06,0.41-0.1,0.61c-0.03,0.2-0.07,0.4-0.11,0.59c-0.03,0.19-0.07,0.38-0.11,0.56
		c-0.04,0.19-0.08,0.37-0.12,0.55c0.01,0.01,0,0.02,0,0.02c-0.11,0.49-0.23,0.96-0.35,1.4c-0.04,0.15-0.08,0.3-0.12,0.44
		c-0.04,0.14-0.08,0.28-0.11,0.41c-0.24,0.8-0.48,1.53-0.7,2.21c-0.36,1.09-0.69,2-0.88,2.88c-0.22,1.09-0.54,2.12-0.91,3.26
		c-0.01,0.03-0.02,0.07-0.03,0.1c-0.19,0.61-0.39,1.25-0.58,1.9c-0.08,0.28-0.16,0.57-0.23,0.86c-0.14,0.53-0.27,1.09-0.38,1.66
		c-0.1,0.47-0.18,0.96-0.24,1.47c-0.03,0.21-0.06,0.42-0.08,0.64c-0.02,0.25-0.04,0.5-0.06,0.76c-0.1,1.68-0.01,3.52,0.41,5.57
		c3.03,14.61,3.93,24.98,3.83,29c0.87-0.33,1.81-0.57,2.74-0.75c3.36-0.64,6.64-0.43,6.64-0.43c-3.01,0.57-5.15,1.17-6.67,1.71
		c-2.43,0.87-3.26,1.6-3.47,1.82h-0.01v0.02c0,0-0.02,0.02-0.04,0.03c-0.01,0.01-0.01,0.01-0.01,0.01c0,0.02-0.01,0.04-0.03,0.06
		l-1.9,2.7l2.35,1.1l0.68,0.31c3.92,1.82,9.54,4.17,16.33,6.27c9.21,2.86,20.57,5.27,32.75,5.27c3.67,0,7.27-0.23,10.78-0.67
		c0.47-0.06,0.93-0.12,1.4-0.19l1.77-0.23l0.51-1.73c0.44-1.47,0.83-3.05,1.23-4.71c0.36-1.58,0.72-3.23,1.1-4.94
		c1.89-8.43,3.5-14.48,5.36-17.26c-1.13,0.05-2.21,0.08-3.24,0.09h-0.5c-16.8,0-21.84-5.85-22.09-6.13c0,0,6.38,4.76,23.81,4.15
		c2.17-0.08,4.51-0.24,7.03-0.5l0.01,0.11c6.54-0.92,20.51-1.59,35.61-1.59c13.86,0,24.26,0.52,30.88,1.21l0.02-0.23
		c4.07,0.42,7.68,0.57,10.84,0.54c14.57-0.14,20.03-4.2,20.03-4.2c-0.23,0.23-4.49,5.17-18.07,6c-1.22,0.08-2.52,0.13-3.9,0.13
		c1.11,1.07,2.37,2.18,3.73,3.37c4.13,3.64,9.2,8.12,11.37,12.32c0.47-0.59,1.12-1.25,2.01-1.96c0.8-0.63,1.8-1.32,3.04-2.02
		c-0.29,0.21-1.62,1.22-2.72,2.58c-0.88,1.09-1.62,2.4-1.57,3.72c0,0.01,0,0.02,0.01,0.03c0,0.13,0.01,0.25,0.03,0.37
		c0.11,1.18,0.04,2.52,0,3.67l-0.04,0.8l-0.15,3.15l2.79-0.85l0.96-0.29c1.77-0.54,3.77-1.11,5.95-1.66
		c7.11-1.78,16.2-3.37,25.89-3.37c8.78,0,16.92,1.32,24.19,3.91l1.54,0.56l3.11,1.13l-1.1-5.35c-2.45-11.81-6.16-29.6-7.14-38.82
		l-0.1-0.82c-0.44-4.2-2.1-11.15-4-19.22c-0.37-1.54-0.75-3.13-1.14-4.77c0,0,0-0.01,0-0.02c-0.17-0.73-0.35-1.46-0.52-2.2
		c-0.23-0.99-0.47-2-0.7-3.02C408.04,555.46,407.9,554.86,407.77,554.26z"/>
	<path class="st0" d="M190.27,541.76c0.03-0.21,0.06-0.42,0.1-0.64c0.02,0.21,0.05,0.42,0.08,0.63c0.27-0.02,0.55-0.02,0.82-0.02
		h0.23c0.26,0,0.52,0,0.79,0.01c6.83,0.12,15.69,1.75,25.88,3.62c14.04,2.65,29.93,5.58,45.89,5.58c4.03,0,7.86-0.19,11.52-0.57
		c-0.5-1.22-0.94-2.59-1.33-4.09c-0.11-0.44-0.22-0.89-0.32-1.35c-0.32-1.37-0.6-2.86-0.84-4.44c-0.08-0.5-0.15-1.01-0.22-1.53
		c-0.22-1.55-0.4-3.2-0.57-4.94c-0.1-1.09-0.2-2.21-0.29-3.38c-0.1-1.34-0.19-2.73-0.28-4.18c-0.03-0.46-0.05-0.94-0.07-1.42
		c-0.07-1.32-0.13-2.67-0.19-4.06c0-0.04,0-0.08-0.01-0.13c-0.02-0.55-0.04-1.12-0.07-1.68c-0.02-0.56-0.04-1.13-0.06-1.7
		c-0.01-0.33-0.02-0.65-0.03-0.98c-0.01-0.17-0.01-0.35-0.02-0.52l0,0c-0.03-0.91-0.06-1.83-0.09-2.76c0-0.14-0.01-0.28-0.01-0.42
		l0,0c-0.01-0.34-0.02-0.67-0.03-1.01c-0.01-0.48-0.03-0.96-0.04-1.46c-0.03-0.87-0.05-1.74-0.07-2.63
		c-0.03-1.39-0.07-2.81-0.1-4.25c-0.01-0.33-0.02-0.66-0.03-1c0-0.33-0.01-0.67-0.02-1.01c-0.01-0.49-0.02-0.99-0.03-1.49
		c-0.14-6-0.3-12.51-0.52-19.47l0,0c0-0.01,0-0.03,0-0.04c-0.03-0.97-0.06-1.95-0.1-2.94c0,0,0,0,0-0.01l0,0
		c-0.1-3-0.22-6.07-0.35-9.23l0,0c0,0,0-0.01,0-0.01c-0.42-9.74-1.01-20.21-1.91-31.29l0,0c0,0,0,0,0,0
		c-0.08-0.94-0.16-1.89-0.24-2.84c0,0,0,0,0,0l0,0c-1.06-12.43-2.52-25.61-4.56-39.38c-0.08-0.56-0.19-1.1-0.27-1.65l0,0
		c-1.65-10.27-4.37-19.98-7.86-29.08l0,0c-0.06-0.15-0.12-0.31-0.18-0.46c-2.23-5.75-4.76-11.27-7.51-16.53l0,0c0,0,0,0,0,0
		c-0.6-1.16-1.22-2.3-1.84-3.43c-0.03-0.06-0.06-0.11-0.09-0.17c-0.61-1.11-1.23-2.21-1.87-3.29c0,0,0,0,0,0l0,0
		c-0.58-1-1.17-2-1.77-2.98l0,0c0,0,0,0,0,0c-0.34-0.57-0.7-1.12-1.05-1.68c-0.13-0.2-0.25-0.4-0.37-0.6v0
		c-0.26-0.42-0.52-0.84-0.78-1.25l0,0c0,0,0,0,0,0c-0.35-0.55-0.71-1.09-1.07-1.64c-0.36-0.56-0.73-1.11-1.1-1.66
		c-0.43-0.64-0.86-1.27-1.3-1.9c-0.28-0.41-0.56-0.81-0.84-1.22c-0.5-0.71-0.99-1.41-1.49-2.1c-0.19-0.26-0.38-0.52-0.57-0.79
		c-2.68-3.69-5.43-7.2-8.2-10.52l0,0c0,0,0,0,0,0c-0.54-0.65-1.08-1.28-1.61-1.91c0,0,0,0,0,0v0c-0.31-0.37-0.63-0.73-0.94-1.1l0,0
		c0,0,0,0,0,0c-5.7-6.59-11.43-12.41-16.81-17.43l0,0c-0.53-0.5-1.07-1-1.6-1.48l0,0c-3.22-2.94-6.28-5.59-9.12-7.93
		c-2.46,7.56-5.94,13.6-9.64,19.92l0,0c-0.06,0.1-0.12,0.2-0.18,0.31c-0.32,0.54-0.64,1.09-0.96,1.63c0,0,0,0,0,0.01l0,0
		c-3.96,6.79-7.89,13.96-10.62,23.54c-0.16,0.57-0.33,1.15-0.48,1.75c-0.11,0.4-0.21,0.81-0.31,1.22c-0.15,0.59-0.29,1.19-0.42,1.8
		c-0.15,0.66-0.29,1.33-0.43,2.02c-0.16,0.8-0.31,1.58-0.47,2.34c-0.07,0.34-0.14,0.68-0.2,1.01l0,0c-0.01,0.04-0.02,0.09-0.03,0.13
		c-0.16,0.75-0.31,1.49-0.47,2.21c-0.07,0.36-0.15,0.72-0.23,1.07c-0.15,0.71-0.3,1.4-0.45,2.08c-0.3,1.35-0.59,2.66-0.88,3.91
		c-0.28,1.26-0.56,2.47-0.82,3.64c-0.82,3.55-1.55,6.72-2.15,9.67c-0.27,1.36-0.51,2.68-0.72,3.98c-0.04,0.24-0.08,0.47-0.11,0.71
		c-0.17,1.08-0.3,2.15-0.41,3.21l0,0c-0.05,0.47-0.1,0.94-0.14,1.41c-0.04,0.48-0.06,0.97-0.08,1.45l0,0
		c-0.08,1.47-0.13,2.94-0.1,4.46c0.01,0.02,0.01,0.03,0,0.04v0.01c0.03,0.85,0.07,1.71,0.12,2.6c0.04,0.45,0.07,0.9,0.11,1.36
		c0.05,0.6,0.12,1.22,0.2,1.85c0.04,0.36,0.09,0.72,0.14,1.09c0.05,0.41,0.12,0.84,0.19,1.27c0.16,1.07,0.36,2.17,0.59,3.32
		c0.11,0.56,0.24,1.12,0.37,1.67c0.09,0.4,0.19,0.8,0.3,1.2c0.12,0.47,0.26,0.94,0.39,1.41c2.46,8.27,6.93,15.72,11.37,21.86
		l-0.14,0.14c0.43,0.61,0.87,1.2,1.3,1.78l0.15-0.15c2.38,3.18,4.7,5.97,6.64,8.28c1.39,1.7,2.61,3.17,3.52,4.38
		c0.8,1.07,1.38,2.52,1.75,4.29c0.05,0.21,0.09,0.42,0.13,0.64c0.09,0.46,0.17,0.94,0.23,1.44c0.01,0.03,0.01,0.07,0.01,0.1
		c0.07,0.54,0.12,1.09,0.16,1.67c0.09,1.12,0.11,2.33,0.12,3.58l0,0c0,0.35,0.01,0.68,0,1.04c0,0.32-0.01,0.65-0.02,0.98
		c-0.01,0.37-0.02,0.75-0.04,1.13c-0.02,0.71-0.06,1.43-0.1,2.16c-0.02,0.34-0.04,0.69-0.07,1.04c-0.08,1.24-0.19,2.52-0.31,3.83
		c-0.07,0.82-0.16,1.65-0.24,2.48c-0.04,0.36-0.08,0.72-0.12,1.08l0,0c-0.06,0.6-0.12,1.2-0.19,1.81c-0.09,0.79-0.18,1.58-0.27,2.38
		c-0.14,1.18-0.29,2.38-0.44,3.59c-0.12,1.01-0.24,2.03-0.37,3.05c-0.49,4.13-1.01,8.29-1.41,12.27c-0.06,0.58-0.12,1.16-0.17,1.73
		c0,0.06-0.01,0.12-0.02,0.18c-0.04,0.44-0.07,0.88-0.11,1.32c-0.05,0.6-0.1,1.2-0.15,1.81c-0.2,2.77-0.33,5.67-0.4,8.67
		c-0.01,0.53-0.02,1.06-0.03,1.6c-0.02,1.76-0.03,3.55-0.02,5.37c0,0.5,0,1,0.01,1.5c0.01,0.68,0.01,1.36,0.03,2.05
		c0.01,0.23,0.01,0.46,0.02,0.69v0.01c0,0.22,0,0.44,0.01,0.66c0.03,1.41,0.07,2.83,0.13,4.25c0.03,1.07,0.07,2.14,0.12,3.22
		c0.01,0.2,0.02,0.4,0.02,0.61h0.01l0.03,0.78c0.06,1.31,0.13,2.63,0.2,3.95c0.1,1.89,0.21,3.78,0.33,5.67
		c0.14,2.14,0.29,4.27,0.45,6.4c0.05,0.7,0.1,1.4,0.15,2.09c0.07,1,0.15,1.99,0.22,2.97c0.22,2.74,0.45,5.46,0.67,8.13H190.27z
		 M206.68,511.97c0.19,0.08,0.37,0.15,0.56,0.22l0,0C207.06,512.11,206.87,512.04,206.68,511.97z M191.17,504.78
		c0.39,0.2,0.79,0.4,1.18,0.6l0.01,0.01C191.96,505.18,191.56,504.98,191.17,504.78z M198.37,508.3L198.37,508.3
		c1.68,0.78,3.38,1.55,5.09,2.29C201.74,509.87,200.05,509.1,198.37,508.3z M209.44,513.07L209.44,513.07
		c1.24,0.48,2.48,0.96,3.73,1.42C211.92,514.04,210.68,513.56,209.44,513.07z M181.4,415.19c-0.52-0.5-1.03-1.01-1.54-1.54l0,0
		c-3.45-3.6-6.54-7.76-8.58-12.45c2.6,4.4,6.01,8.19,9.63,11.41l0,0c0,0,0,0,0,0c4.94,4.39,10.28,7.7,14.51,9.95
		c-1.05-2.88-1.75-6.14-2.23-9c-0.2-1.2-0.36-2.33-0.48-3.33c-0.4-0.5-0.78-1.02-1.15-1.56l-0.13-0.21l-0.03-0.23
		c-0.36-2.9-0.53-5.68-0.54-8.35l0,0c0-1.08,0.03-2.13,0.09-3.17l0,0c0.52-9.74,3.54-17.79,9.04-24
		c6.08-6.85,14.17-10.26,20.88-11.96c0.68-0.17,1.35-0.33,2-0.47c0.02,0,0.03-0.01,0.05-0.01c0.64-0.14,1.26-0.26,1.86-0.36l0,0
		c2.27-0.4,4.25-0.62,5.73-0.73c-6.31-11.37-14.82-18.81-25.36-22.21c0,0-0.01,0-0.01,0c-1.02-0.33-2.06-0.63-3.12-0.89
		c-10.1-2.39-19.12-3.47-19.12-3.47c0.36-0.1,7.78-0.48,18.7,2.11c0.39,0.09,0.79,0.19,1.19,0.29c0.75,0.19,1.52,0.39,2.32,0.62l0,0
		c0.25,0.07,0.51,0.15,0.77,0.23l0,0c0.69,0.21,1.39,0.43,2.1,0.68l0,0c6.07,2.08,12.95,5.61,19.08,12.36l0,0
		c0.48,0.53,0.96,1.08,1.43,1.65c2.15,2.6,4.19,5.63,6.04,9.17c3.36,4.9,5.92,9.53,7.84,13.88l0,0c0.32,0.73,0.62,1.45,0.91,2.17
		c2.1,5.21,3.29,9.97,3.86,14.25l0,0c0.07,0.55,0.13,1.1,0.19,1.63c0.01,0.08,0.02,0.16,0.02,0.23c0.05,0.53,0.09,1.05,0.12,1.57
		l0,0c0.26,4.17-0.06,7.79-0.64,10.82c-1.32,6.87-4.13,11.37-5.26,12.1c-0.43,0.28-2.6,1.34-5.9,2.44c-0.3,0.1-0.61,0.2-0.92,0.3
		c-0.09,0.03-0.18,0.06-0.27,0.08c-0.38,0.12-0.76,0.23-1.16,0.35c-4.13,1.2-9.43,2.27-15.1,2.27c-1.01,0-1.99-0.03-2.96-0.1
		c-2.54,2.46-5.32,4.9-8.21,7.04c-0.35,0.25-0.69,0.47-1.03,0.66c-0.27,0.15-0.53,0.28-0.8,0.39c-0.06,0.03-0.12,0.06-0.18,0.08
		c-0.64,0.26-1.27,0.42-1.88,0.47c-0.13,0.01-0.25,0.04-0.38,0.04c-2.13,0-3.83-1.32-5.19-3.35
		C193.44,424.73,187.09,420.7,181.4,415.19z"/>
	<path class="st0" d="M384.14,381.16c-1.92,1.2-4.07,2.11-6.44,2.75c-0.61,0.16-1.24,0.31-1.89,0.44c0,0,0,0,0,0
		c-0.64,0.13-1.3,0.23-1.98,0.32c-1.57,0.21-3.22,0.32-4.95,0.32c-5.87,0-11.78-1.2-16.74-2.64c3.64,3.43,9.41,7.55,15.59,8.36
		c0.02,0,0.04,0,0.05,0.01l0,0c0,0,0.01,0,0.01,0c0.35,0.05,0.69,0.08,1.04,0.11c0.35,0.02,0.7,0.04,1.05,0.04
		c0.3,0,0.59-0.03,0.88-0.05l0,0c1.82-0.11,3.55-0.54,5.17-1.33c0.9-0.44,1.76-0.99,2.6-1.64l0,0c0,0,0,0,0,0
		C380.6,386.24,382.48,384.02,384.14,381.16z"/>
	<path class="st0" d="M297.49,552.4c3.16-0.82,7.51-1.93,12.69-3.18c0-0.08,0.01-0.16,0.01-0.24c0.02-0.36,0.04-0.74,0.06-1.12
		c0.03-0.7,0.09-1.43,0.15-2.21c0.08-1.05,0.19-2.18,0.32-3.37c0.04-0.41,0.09-0.83,0.14-1.26c0.17-1.42,0.38-2.92,0.63-4.51
		c0.08-0.56,0.18-1.12,0.28-1.69c0.16-0.94,0.33-1.91,0.53-2.9c0.11-0.56,0.22-1.14,0.35-1.72c0.12-0.58,0.24-1.17,0.38-1.76
		c0.13-0.61,0.28-1.23,0.43-1.86c0.1-0.42,0.2-0.84,0.31-1.27c0.1-0.43,0.21-0.86,0.33-1.3c-1.04,0.17-2.09,0.33-3.13,0.48l0,0
		c1.02-0.15,2.03-0.31,3.05-0.48c0.03,0,0.06-0.01,0.09-0.02c0.04-0.13,0.07-0.27,0.11-0.41c0.62-2.34,1.91-7.67,3.28-16.05v0
		c0.02-0.1,0.03-0.21,0.05-0.31c0.18-1.08,0.35-2.2,0.53-3.37c0.05-0.3,0.09-0.6,0.14-0.91c0.05-0.33,0.1-0.67,0.14-1.01
		c0.05-0.33,0.1-0.66,0.15-1c1.53-10.87,3-25.48,3.65-43.94v0c0.04-1.05,0.07-2.11,0.1-3.18l0,0c0.06-1.89,0.1-3.82,0.14-5.79
		c0,0,0,0,0-0.01v0c0.01-0.54,0.02-1.08,0.03-1.63v0c0,0,0-0.01,0-0.01c0.02-1,0.03-2.01,0.04-3.03c0,0,0-0.01,0-0.01l0,0
		c0.11-9.79-0.01-20.47-0.45-32.08l0,0c0,0,0,0,0,0c-0.04-0.97-0.08-1.95-0.12-2.93c0-0.01,0-0.02,0-0.03v0
		c-0.13-3.01-0.27-6.07-0.45-9.2v0c0-0.09-0.01-0.18-0.01-0.26c-0.06-1-0.11-2-0.17-3.01c0,0,0,0,0,0l0,0
		c-0.3-5.09-0.66-10.34-1.09-15.74c-0.33-4.2-0.45-8.35-0.41-12.46c0.01-1.04,0.02-2.08,0.05-3.11l0,0
		c0.13-4.2,0.46-8.35,0.93-12.44c0.11-0.92,0.21-1.83,0.34-2.74c1.41-10.54,3.86-20.66,6.96-30.2l0,0c0.25-0.77,0.51-1.54,0.77-2.31
		v0c1.92-5.66,4.06-11.1,6.35-16.31v0c0.85-1.93,1.71-3.82,2.59-5.67l0,0c0.72-1.53,1.46-3.04,2.2-4.52l0,0
		c1.28-2.55,2.58-5.03,3.9-7.44l0,0c4.4-8.03,8.93-15.19,13.16-21.34l0,0c0.43-0.62,0.84-1.22,1.26-1.81
		c1.47-2.1,2.91-4.08,4.27-5.91c-3.04-4.5-5.43-8.46-7.31-12.28c-1.46,1.63-4.41,5.06-8.21,10.01c0,0,0,0.01-0.01,0.01l0,0
		c-4.27,5.57-9.61,13.07-15.08,22.09l0,0c0,0,0,0,0,0c-0.38,0.63-0.76,1.26-1.14,1.9c-0.01,0.01-0.01,0.02-0.02,0.03l0,0
		c-1.13,1.9-2.26,3.87-3.38,5.89c-3.06,5.53-6.23,11.79-9.24,18.65l0,0c-0.31,0.71-0.62,1.43-0.93,2.15l0,0
		c-3.4,8-6.56,16.76-9.05,26.11c0,0.01,0,0.01,0,0.02c-0.32,1.22-0.64,2.46-0.94,3.7v0.01c-0.16,0.64-0.31,1.28-0.46,1.93
		c-0.18,0.77-0.35,1.55-0.51,2.33c-0.13,0.56-0.25,1.12-0.36,1.69c-0.03,0.14-0.06,0.28-0.08,0.42l0,0
		c-0.07,0.34-0.14,0.67-0.21,1.01c-0.06,0.33-0.12,0.67-0.19,1c-0.13,0.66-0.25,1.33-0.36,1.99c-1.79,10.25-2.64,21.02-2.11,32.09
		c0,0,0,0,0,0l0,0c0.07,1.38,0.14,2.76,0.25,4.14c0.2,2.6,0.39,5.16,0.56,7.69l0,0c0.05,0.71,0.1,1.41,0.14,2.11
		c0.75,11.28,1.2,21.83,1.43,31.67l0,0c0.02,1.06,0.04,2.1,0.06,3.14l0,0c0.01,0.54,0.02,1.08,0.03,1.61
		c0.02,1.49,0.04,2.96,0.05,4.42l0,0c0,0.39,0.01,0.8,0.01,1.19l0,0c0.01,1.04,0.01,2.05,0.01,3.07l0,0
		c0.02,8.14-0.12,15.72-0.38,22.74c-0.01,0.43-0.03,0.85-0.05,1.26c-0.03,1-0.08,1.99-0.12,2.96c-0.03,0.7-0.06,1.38-0.09,2.06
		c-0.05,1.09-0.1,2.17-0.17,3.23l0,0c-0.01,0.26-0.03,0.53-0.04,0.79c-0.04,0.72-0.08,1.42-0.13,2.12l0,0
		c-0.07,1.23-0.15,2.45-0.23,3.64c-0.07,1.03-0.14,2.04-0.22,3.04c-0.03,0.49-0.07,0.99-0.11,1.48c-0.03,0.37-0.06,0.73-0.08,1.1
		l0,0c-0.01,0.12-0.02,0.24-0.03,0.36c-0.07,0.79-0.14,1.57-0.2,2.34c-0.07,0.77-0.14,1.53-0.21,2.28
		c-0.04,0.43-0.08,0.86-0.12,1.28c-0.06,0.67-0.13,1.33-0.19,1.98c-0.02,0.2-0.04,0.4-0.06,0.59c-0.08,0.73-0.15,1.44-0.23,2.14
		c-0.17,1.67-0.36,3.29-0.55,4.84c-0.11,0.83-0.21,1.65-0.31,2.45c-0.01,0.11-0.02,0.23-0.04,0.34c-0.23,1.79-0.46,3.49-0.7,5.11
		c-0.05,0.33-0.09,0.66-0.14,0.99c-0.05,0.33-0.1,0.65-0.14,0.97c-0.01,0.01-0.01,0.03-0.01,0.04c-0.22,1.44-0.44,2.8-0.65,4.1
		c-0.15,0.9-0.3,1.76-0.45,2.58c-1.15,6.47-2.18,10.7-2.71,12.73c-0.27,1.02-0.52,2.02-0.75,3.01c-0.17,0.73-0.34,1.45-0.5,2.16
		c-0.16,0.71-0.31,1.4-0.44,2.09c-0.24,1.16-0.46,2.28-0.65,3.37c-0.17,0.98-0.33,1.94-0.47,2.87c0,0.01,0,0.01,0,0.02
		c-0.01,0.09-0.03,0.18-0.04,0.27c-0.14,0.96-0.27,1.89-0.38,2.79c-0.01,0.06-0.02,0.12-0.02,0.18v0.01
		c-0.04,0.24-0.07,0.48-0.1,0.71c-0.07,0.64-0.14,1.26-0.2,1.86v0.04c0,0.02-0.01,0.04-0.01,0.06v0.09
		c-0.02,0.12-0.03,0.23-0.04,0.35c-0.04,0.4-0.08,0.79-0.11,1.18c-0.04,0.54-0.09,1.06-0.12,1.56v0.01
		c-0.01,0.18-0.03,0.36-0.04,0.54v0.12c0,0.01,0,0.01,0,0.02c0,0.05-0.01,0.1-0.01,0.15c-0.01,0.16-0.02,0.31-0.03,0.46
		c-0.01,0.06-0.01,0.12-0.01,0.17c0,0.1,0,0.19-0.01,0.28v0.16c-0.02,0.32-0.03,0.63-0.04,0.92c-0.01,0.05-0.01,0.1-0.01,0.15
		c-0.01,0.01-0.01,0.01-0.02,0.01c-0.08,2.15-0.07,3.78-0.04,4.79C294.08,553.29,295.56,552.9,297.49,552.4z M308.27,524.88
		L308.27,524.88c-0.29,0.04-0.57,0.09-0.86,0.12C307.7,524.96,307.99,524.91,308.27,524.88z"/>
	<polygon class="st0" points="399.95,337.76 397.59,335.77 392.59,342.61 394.85,344.66 395.66,344.81 400.17,338.64 	"/>
	<path class="st0" d="M247.36,148.02c0.06-0.02,0.13-0.04,0.2-0.07c0.38-0.13,0.79-0.26,1.21-0.37c0.31-0.09,0.63-0.17,0.97-0.25
		c0.12-0.03,0.25-0.06,0.38-0.08c3.12-0.66,7.12-0.76,11.45,1l0.77-1.83c-2.48-1.02-4.79-1.41-6.88-1.41
		c-0.26,0-0.51,0.01-0.76,0.02c-0.53,0.02-1.04,0.07-1.54,0.14c-0.23,0.04-0.47,0.08-0.7,0.12c-0.19,0.03-0.37,0.07-0.55,0.11
		c-0.19,0.04-0.37,0.08-0.54,0.13c-0.04,0.01-0.08,0.02-0.12,0.03c-0.32,0.08-0.63,0.17-0.93,0.27c-0.34,0.11-0.67,0.22-0.98,0.35
		c-0.14,0.06-0.29,0.12-0.43,0.18c-0.27,0.11-0.52,0.22-0.77,0.34c-0.49,0.23-0.95,0.48-1.36,0.73c-0.16,0.09-0.31,0.18-0.46,0.27
		c-0.06,0.04-0.12,0.08-0.18,0.12c-0.16,0.1-0.32,0.2-0.46,0.3c-0.21,0.14-0.39,0.28-0.56,0.41c-0.18,0.13-0.34,0.25-0.48,0.37
		c-0.05,0.03-0.1,0.07-0.14,0.11c-0.09,0.07-0.17,0.15-0.25,0.21c-0.06,0.05-0.11,0.1-0.16,0.14c-0.05,0.05-0.1,0.1-0.14,0.14
		c-0.05,0.04-0.09,0.08-0.12,0.11c-0.07,0.05-0.11,0.1-0.15,0.15c0.28-0.18,1.51-0.94,3.41-1.64
		C247.18,148.09,247.26,148.06,247.36,148.02z"/>
	<path class="st0" d="M213.52,162.04L213.52,162.04c0.18-0.26,0.37-0.51,0.56-0.75c0.06-0.07,0.11-0.15,0.17-0.22
		c0.21-0.26,0.42-0.51,0.63-0.75l0,0c2.94-3.33,6.17-4.82,6.57-5c-0.44,0.08-4.17,0.94-7.59,3.98l0,0c0,0,0,0,0,0
		c-0.26,0.23-0.51,0.46-0.76,0.71c-0.26,0.26-0.51,0.53-0.76,0.82c-1.74,2.01-3.24,4.7-3.94,8.31l1.93,0.39
		C210.92,166.49,212.12,164.03,213.52,162.04z"/>
	<polygon class="st0" points="52.4,281.01 51.05,281.91 50.08,286.62 69.07,290.43 70.04,285.73 69.17,284.38 	"/>
	<polygon class="st0" points="57.42,318.97 51.76,320.97 57.22,323.46 	"/>
	<polygon class="st0" points="53.57,360.36 59.41,361.89 58.83,357.43 	"/>
	<polygon class="st0" points="471.03,433.59 471.48,435.15 475.06,437.08 476.61,436.6 478.91,432.35 473.32,429.39 	"/>
	<polygon class="st0" points="488.08,442.79 490.34,438.54 485.85,436.12 483.56,440.34 484.04,441.91 486.53,443.24 	"/>
	<polygon class="st0" points="504.2,356.83 510.01,355.2 504.71,352.38 	"/>
	<polygon class="st0" points="309.04,100.21 309.33,97.4 308.34,96.14 303.56,95.6 302.97,100.69 307.78,101.22 	"/>
	<polygon class="st0" points="232.48,119.56 233.31,118.22 229.34,101.57 227.95,100.73 223.27,101.86 227.79,120.7 	"/>
	<polygon class="st0" points="54.67,74.67 46.88,74.67 46.88,35.21 34.06,35.21 34.06,84.55 54.67,84.55 	"/>
	<polygon class="st0" points="80.02,74.67 70.62,74.67 70.62,63.85 78.63,63.85 78.63,54.43 70.62,54.43 70.62,45.08 79.18,45.08 
		79.18,35.21 57.77,35.21 57.77,84.55 80.02,84.55 	"/>
	<polygon class="st0" points="88.29,84.55 101.11,84.55 101.11,45.08 108.7,45.08 108.7,35.21 80.7,35.21 80.7,45.08 88.29,45.08 	
		"/>
	<path class="st0" d="M117.61,45.33c0.55-1.47,0.81-3.39,0.81-5.67v-4.44h-8.24v9.67h2.07c-0.17,1.18-0.88,2.08-2.07,2.76v3.57
		c1.68-0.38,3.23-1.1,4.59-2.11C116.09,48.08,117.06,46.79,117.61,45.33z"/>
	<path class="st0" d="M124.61,58.46c1.07,0.98,3.17,2.5,6.37,4.6c3.2,2.12,5.2,3.59,6.01,4.47c0.77,0.91,1.19,2.81,1.19,5.7
		c0,1.31-0.22,2.33-0.64,2.99c-0.42,0.68-1.04,1.02-1.88,1.02c-0.9,0-1.48-0.27-1.81-0.8c-0.35-0.54-0.48-1.71-0.48-3.56v-6.01
		h-11.92v3.26c0,3.67,0.36,6.54,1.13,8.54c0.74,2.03,2.32,3.67,4.75,4.94c2.46,1.31,5.35,1.97,8.78,1.97c3.14,0,5.88-0.56,8.24-1.69
		c2.36-1.15,3.94-2.53,4.78-4.2c0.81-1.65,1.23-4.22,1.23-7.75c0-4.82-0.74-8.34-2.22-10.51c-1.49-2.17-5.08-4.95-10.79-8.35
		c-2.01-1.19-3.2-2.17-3.62-3.02c-0.45-0.82-0.68-2.08-0.68-3.72c0-1.27,0.2-2.23,0.62-2.87c0.39-0.62,0.97-0.93,1.74-0.93
		c0.71,0,1.23,0.24,1.52,0.7c0.29,0.46,0.45,1.55,0.45,3.24v3.66h11.91v-1.97c0-3.88-0.39-6.68-1.15-8.29
		c-0.75-1.65-2.3-3-4.67-4.09c-2.35-1.06-5.15-1.58-8.52-1.58c-3.04,0-5.62,0.47-7.78,1.45c-2.16,1-3.71,2.39-4.68,4.09
		c-0.98,1.74-1.46,4.53-1.46,8.28c0,2.62,0.36,4.77,1.04,6.48C122.74,56.2,123.62,57.52,124.61,58.46z"/>
	<path class="st0" d="M62.29,112.58c1.01-1.35,1.49-4,1.49-7.98c0-4.39-0.72-7.56-2.1-9.55c-1.39-2.03-3.23-3.24-5.43-3.73
		c-2.23-0.47-6.49-0.72-12.76-0.72h-9.43v51.22h13.31v-23.1c1.84,0,2.97,0.3,3.39,0.97c0.45,0.65,0.65,2.37,0.65,5.09v17.04h12.37
		V128.3c0-4.15-0.1-6.67-0.33-7.59c-0.23-0.9-0.81-1.92-1.71-3.01c-0.91-1.1-2.69-1.97-5.3-2.66
		C59.35,114.81,61.29,113.99,62.29,112.58z M51.41,106.13c0,2.24-0.29,3.59-0.87,3.99c-0.65,0.42-1.68,0.63-3.17,0.63V99.36
		c1.55,0,2.58,0.24,3.17,0.75c0.58,0.51,0.87,1.58,0.87,3.22V106.13z"/>
	<path class="st0" d="M76.56,141.52c2.19,0.92,4.65,1.34,7.4,1.34c2.88,0,5.39-0.49,7.56-1.39c2.19-0.98,3.9-2.33,5.16-4.1
		c1.29-1.78,2.07-3.72,2.3-5.87c0.22-2.13,0.36-5.76,0.36-10.92v-8.76c0-5.27-0.13-8.97-0.38-11.04c-0.23-2.12-1.04-4.06-2.36-5.85
		c-1.33-1.8-3.07-3.16-5.26-4.02c-2.17-0.92-4.66-1.36-7.36-1.36c-2.91,0-5.43,0.48-7.59,1.42c-2.19,0.96-3.9,2.31-5.16,4.07
		c-1.3,1.77-2.04,3.72-2.3,5.86c-0.23,2.16-0.36,5.79-0.36,10.92v8.76c0,5.26,0.13,8.96,0.38,11.08c0.26,2.09,1.04,4.06,2.37,5.85
		C72.62,139.26,74.4,140.62,76.56,141.52z M81.87,103.73c0-2.61,0.19-4.2,0.54-4.73c0.38-0.54,0.9-0.8,1.61-0.8
		c0.8,0,1.36,0.35,1.62,0.99c0.26,0.65,0.39,2.18,0.39,4.54v23.55c0,3.01-0.13,4.9-0.36,5.72c-0.25,0.82-0.84,1.18-1.74,1.18
		c-0.91,0-1.49-0.35-1.71-1.02c-0.22-0.7-0.35-2.54-0.35-5.53V103.73z"/>
	<polygon class="st0" points="117.61,90.61 104.3,90.61 104.3,141.82 125.71,141.82 125.71,131.55 117.61,131.55 	"/>
	<polygon class="st0" points="142.25,90.61 128.94,90.61 128.94,141.82 150.35,141.82 150.35,131.55 142.25,131.55 	"/>
</g>
</svg>
