<?xml version="1.0" encoding="utf-8"?>
<!-- Generator: Adobe Illustrator 24.0.3, SVG Export Plug-In . SVG Version: 6.00 Build 0)  -->
<svg version="1.1" id="Layer_1" xmlns="http://www.w3.org/2000/svg" xmlns:xlink="http://www.w3.org/1999/xlink" x="0px" y="0px"
	 viewBox="0 0 166.99 125.34" style="enable-background:new 0 0 166.99 125.34;" xml:space="preserve">
<style type="text/css">
	.st0{fill:#FFFFFF;}
</style>
<g>
	<path class="st0" d="M31.11,42.26c-2.25-2.8-5.22-4.2-8.9-4.2c-1.3,0-2.56,0.31-3.79,0.92c-1.23,0.61-1.84,1.67-1.84,3.17
		c0,1.23,0.63,2.13,1.89,2.71c1.26,0.58,2.86,1.09,4.81,1.53c1.94,0.44,4.02,0.92,6.24,1.43c2.21,0.51,4.3,1.31,6.24,2.4
		c1.94,1.09,3.55,2.58,4.81,4.45c1.26,1.88,1.89,4.38,1.89,7.52c0,3.21-0.7,5.85-2.1,7.93c-1.4,2.08-3.19,3.75-5.37,5.01
		c-2.18,1.26-4.64,2.15-7.37,2.66c-2.73,0.51-5.42,0.77-8.08,0.77c-3.48,0-6.99-0.5-10.54-1.48c-3.55-0.99-6.55-2.75-9-5.27
		L9.31,61.5c1.43,1.77,3.02,3.12,4.76,4.04c1.74,0.92,3.77,1.38,6.09,1.38c1.77,0,3.38-0.26,4.81-0.77
		c1.43-0.51,2.15-1.45,2.15-2.81c0-1.29-0.63-2.27-1.89-2.92c-1.26-0.65-2.86-1.19-4.81-1.64c-1.94-0.44-4.03-0.92-6.24-1.43
		s-4.3-1.28-6.24-2.3c-1.94-1.02-3.55-2.47-4.81-4.35c-1.26-1.88-1.89-4.38-1.89-7.52c0-2.93,0.6-5.46,1.79-7.57
		c1.19-2.11,2.76-3.85,4.71-5.22c1.94-1.36,4.18-2.37,6.7-3.02c2.52-0.65,5.08-0.97,7.67-0.97c3.27,0,6.58,0.48,9.93,1.43
		c3.34,0.96,6.17,2.66,8.49,5.12L31.11,42.26z"/>
	<path class="st0" d="M98.23,77.35H83.49V70.6h-0.2c-0.55,0.96-1.25,1.91-2.1,2.87c-0.85,0.96-1.89,1.81-3.12,2.56
		c-1.23,0.75-2.63,1.36-4.2,1.84c-1.57,0.48-3.27,0.72-5.12,0.72c-3.89,0-7.04-0.6-9.46-1.79c-2.42-1.19-4.3-2.85-5.63-4.96
		s-2.22-4.6-2.66-7.47c-0.44-2.86-0.67-5.97-0.67-9.31V27.63h15.35v24.35c0,1.43,0.05,2.92,0.15,4.45c0.1,1.54,0.41,2.95,0.92,4.25
		c0.51,1.3,1.29,2.35,2.35,3.17c1.06,0.82,2.58,1.23,4.55,1.23s3.58-0.36,4.81-1.07c1.23-0.72,2.17-1.67,2.81-2.86
		c0.65-1.19,1.07-2.54,1.28-4.04c0.2-1.5,0.31-3.07,0.31-4.71V27.63h15.35V77.35z"/>
	<path class="st0" d="M110.5,0h15.35v32.95h0.2c1.77-2.39,4.04-4.07,6.8-5.06c2.76-0.99,5.75-1.49,8.95-1.49
		c3.55,0,6.72,0.73,9.51,2.2c2.8,1.47,5.17,3.43,7.11,5.88c1.94,2.46,3.44,5.27,4.5,8.44c1.06,3.17,1.59,6.5,1.59,9.97
		c0,3.75-0.58,7.2-1.74,10.33c-1.16,3.14-2.81,5.85-4.96,8.14c-2.15,2.29-4.72,4.06-7.72,5.32c-3,1.26-6.34,1.89-10.03,1.89
		c-1.77,0-3.45-0.24-5.01-0.72c-1.57-0.48-3.02-1.09-4.35-1.84c-1.33-0.75-2.49-1.59-3.48-2.51c-0.99-0.92-1.79-1.83-2.4-2.71h-0.2
		v6.55H110.5V0z M124.62,52.49c0,3.75,1.07,6.79,3.22,9.11c2.15,2.32,5.17,3.48,9.06,3.48c3.89,0,6.91-1.16,9.05-3.48
		c2.15-2.32,3.22-5.36,3.22-9.11c0-3.75-1.07-6.79-3.22-9.11c-2.15-2.32-5.17-3.48-9.05-3.48c-3.89,0-6.91,1.16-9.06,3.48
		C125.7,45.7,124.62,48.74,124.62,52.49z"/>
	<g>
		<path class="st0" d="M0,83.93h7.66v23.6l8.48-9.81h9.4l-9.86,11.19l10.11,13.64h-9.65l-8.38-12.57h-0.1v12.57H0V83.93z"/>
		<path class="st0" d="M52.31,122.55h-7.36v-3.37h-0.1c-0.27,0.48-0.62,0.95-1.05,1.43c-0.43,0.48-0.94,0.9-1.56,1.28
			c-0.61,0.37-1.31,0.68-2.09,0.92c-0.78,0.24-1.63,0.36-2.55,0.36c-1.94,0-3.52-0.3-4.72-0.89c-1.21-0.6-2.15-1.42-2.81-2.48
			c-0.66-1.06-1.11-2.3-1.33-3.73c-0.22-1.43-0.33-2.98-0.33-4.65V97.73h7.66v12.16c0,0.71,0.03,1.46,0.08,2.22
			c0.05,0.77,0.2,1.47,0.46,2.12c0.26,0.65,0.65,1.17,1.17,1.58c0.53,0.41,1.29,0.61,2.27,0.61s1.79-0.18,2.4-0.54
			c0.61-0.36,1.08-0.83,1.4-1.43c0.32-0.6,0.54-1.27,0.64-2.02c0.1-0.75,0.15-1.53,0.15-2.35V97.73h7.66V122.55z"/>
		<path class="st0" d="M57.82,83.93h7.66v38.62h-7.66V83.93z"/>
		<path class="st0" d="M87.91,103.86h-6.74v8.27c0,0.68,0.03,1.3,0.1,1.86c0.07,0.56,0.22,1.05,0.46,1.46
			c0.24,0.41,0.6,0.72,1.1,0.94c0.49,0.22,1.15,0.33,1.97,0.33c0.41,0,0.95-0.04,1.61-0.13c0.66-0.08,1.17-0.28,1.51-0.59v6.38
			c-0.85,0.31-1.74,0.51-2.66,0.61c-0.92,0.1-1.82,0.15-2.71,0.15c-1.29,0-2.49-0.14-3.58-0.41c-1.09-0.27-2.04-0.71-2.86-1.3
			c-0.82-0.6-1.46-1.37-1.92-2.32c-0.46-0.95-0.69-2.11-0.69-3.47v-11.8h-4.9v-6.13h4.9v-7.36h7.66v7.36h6.74V103.86z"/>
		<path class="st0" d="M115.7,122.55h-7.36v-3.37h-0.1c-0.27,0.48-0.62,0.95-1.05,1.43c-0.43,0.48-0.94,0.9-1.56,1.28
			c-0.61,0.37-1.31,0.68-2.09,0.92c-0.78,0.24-1.63,0.36-2.55,0.36c-1.94,0-3.52-0.3-4.72-0.89c-1.21-0.6-2.15-1.42-2.81-2.48
			c-0.66-1.06-1.11-2.3-1.33-3.73c-0.22-1.43-0.33-2.98-0.33-4.65V97.73h7.66v12.16c0,0.71,0.03,1.46,0.08,2.22
			c0.05,0.77,0.2,1.47,0.46,2.12c0.26,0.65,0.65,1.17,1.17,1.58c0.53,0.41,1.29,0.61,2.27,0.61s1.79-0.18,2.4-0.54
			c0.61-0.36,1.08-0.83,1.4-1.43c0.32-0.6,0.54-1.27,0.64-2.02c0.1-0.75,0.15-1.53,0.15-2.35V97.73h7.66V122.55z"/>
		<path class="st0" d="M121.11,97.73h7.66v3.98h0.1c0.82-1.53,1.79-2.68,2.91-3.45c1.12-0.77,2.54-1.15,4.24-1.15
			c0.44,0,0.89,0.02,1.33,0.05c0.44,0.03,0.85,0.1,1.23,0.2v7c-0.54-0.17-1.08-0.3-1.61-0.38c-0.53-0.08-1.08-0.13-1.66-0.13
			c-1.46,0-2.62,0.2-3.47,0.61c-0.85,0.41-1.51,0.98-1.97,1.71c-0.46,0.73-0.76,1.61-0.89,2.63c-0.14,1.02-0.2,2.14-0.2,3.37v10.37
			h-7.66V97.73z"/>
		<path class="st0" d="M157.48,119.44h-0.1c-0.85,1.33-1.98,2.28-3.4,2.86c-1.41,0.58-2.9,0.87-4.47,0.87
			c-1.16,0-2.27-0.16-3.35-0.49c-1.07-0.32-2.02-0.81-2.83-1.46c-0.82-0.65-1.47-1.45-1.94-2.4c-0.48-0.95-0.72-2.06-0.72-3.32
			c0-1.43,0.26-2.64,0.79-3.63c0.53-0.99,1.24-1.8,2.14-2.45c0.9-0.65,1.93-1.15,3.09-1.51c1.16-0.36,2.36-0.62,3.6-0.79
			c1.24-0.17,2.49-0.27,3.73-0.31c1.24-0.03,2.39-0.05,3.45-0.05c0-1.36-0.48-2.44-1.46-3.24c-0.97-0.8-2.12-1.2-3.45-1.2
			c-1.26,0-2.41,0.26-3.45,0.79c-1.04,0.53-1.97,1.25-2.78,2.17l-4.09-4.19c1.43-1.33,3.1-2.32,5.01-2.99c1.91-0.66,3.88-1,5.92-1
			c2.25,0,4.09,0.28,5.54,0.84c1.45,0.56,2.61,1.39,3.47,2.48c0.87,1.09,1.47,2.43,1.81,4.01c0.34,1.58,0.51,3.41,0.51,5.49v12.62
			h-7.05V119.44z M155.59,111.67c-0.58,0-1.3,0.03-2.17,0.08c-0.87,0.05-1.7,0.2-2.5,0.43c-0.8,0.24-1.48,0.6-2.04,1.07
			c-0.56,0.48-0.84,1.14-0.84,1.99c0,0.92,0.39,1.6,1.17,2.04c0.78,0.44,1.6,0.66,2.45,0.66c0.75,0,1.47-0.1,2.17-0.31
			c0.7-0.2,1.32-0.49,1.86-0.87c0.54-0.37,0.98-0.85,1.3-1.43c0.32-0.58,0.48-1.26,0.48-2.04v-1.63H155.59z"/>
	</g>
</g>
</svg>
